<?xml version="1.0" encoding="UTF-8"?>
<svg xmlns="http://www.w3.org/2000/svg" viewBox="-300 -1000 6600 19030" role="img" aria-labelledby="plan-title plan-desc" data-schema="house-concept-furniture-plan-v1" data-building="A" data-floor="floor-3" data-geometry-source="tour_mm" data-frontage-study="keep-full-clear"><title id="plan-title">A 棟 3F 娛樂 · HTML／3D 共用家具概念配置</title><desc id="plan-desc">道路／前方在上。常見市售暫估尺寸，尚未實測。虛線為操作與入口暫留帶，非驗證動線；未能放入的家具列待調整。</desc><style>text{font-family:system-ui,sans-serif;fill:#263846} .room-name{font-size:210px;font-weight:600} .item-number{font-size:180px;font-weight:700;fill:#fff;text-anchor:middle} .wall{stroke:#6b7274;stroke-width:100} .allowance{fill:none;stroke:#c2904c;stroke-width:18;stroke-dasharray:70 40} .front-mark{stroke:#24394a;stroke-width:22;fill:none}</style><text x="0" y="-560" font-size="250" font-weight="700">A 棟 · 3F 娛樂 · 前方／道路 ↑</text><text x="0" y="-210" font-size="175">固定比較框／非地籍可建面積。家具未縮放；未解需求見 HTML。</text><rect x="0" y="1500" width="4400" height="4600" fill="#c3ccd9" fill-opacity="0.18" /><rect x="3600" y="10400" width="2400" height="5230" fill="#7c9df0" fill-opacity="0.18" /><rect x="0" y="13400" width="2400" height="2230" fill="#3fb6c8" fill-opacity="0.18" /><rect x="0" y="10400" width="2400" height="3000" fill="#c3ccd9" fill-opacity="0.18" /><rect x="0" y="6100" width="3600" height="4300" fill="#b0bec5" fill-opacity="0.18" /><rect x="0" y="15630" width="6000" height="2000" fill="#5fae74" fill-opacity="0.18" /><rect x="0" y="0" width="6000" height="1500" fill="#98b99a" fill-opacity="0.18" /><rect x="4400" y="1500" width="1600" height="4600" fill="#d4ddd5" fill-opacity="0.18" /><rect x="3600" y="6100" width="2400" height="4300" fill="#d4ddd5" fill-opacity="0.18" /><rect x="2400" y="10400" width="1200" height="5230" fill="#d4ddd5" fill-opacity="0.18" /><g data-room-id="A:floor-3:entertainment" data-space-group="" data-x-mm="0" data-y-mm="1500" data-w-mm="4400" data-h-mm="4600"><a href="../model3d.html#mode=tour&amp;building=A&amp;floor=floor-3&amp;room=A%3Afloor-3%3Aentertainment&amp;view=plan" target="_blank"><text x="140" y="1820" class="room-name">家庭劇院（隔音待核）</text></a><line x1="0" x2="2549.9992" y1="1500" y2="1500" stroke="#6b7274" stroke-width="100" data-wall-face="front" /><line x1="3449.9992" x2="4400" y1="1500" y2="1500" stroke="#6b7274" stroke-width="100" data-wall-face="front" /><line x1="0" x2="4400" y1="6100" y2="6100" stroke="#6b7274" stroke-width="100" data-wall-face="rear" /><line x1="0" x2="0" y1="1500" y2="6100" stroke="#6b7274" stroke-width="100" data-wall-face="left" /><line x1="4400" x2="4400" y1="1500" y2="2550.0002000000004" stroke="#6b7274" stroke-width="100" data-wall-face="right" /><line x1="4400" x2="4400" y1="3450.0002000000004" y2="6100" stroke="#6b7274" stroke-width="100" data-wall-face="right" /><rect x="3500.0" y="2450.0" width="900.0" height="1100.0" data-reserved="door-approach" class="allowance" /><rect x="2450.0" y="1500.0" width="1100.0" height="900.0" data-reserved="door-approach" class="allowance" /><rect x="845.0" y="1510.0" width="950" height="280" fill="#54a5bb" stroke="#14586c" stroke-width="20" data-hvac-id="A-AC06" data-hvac-type="indoor" /><text x="1420.0" y="1800" font-size="155">A-AC06內</text><g data-furniture-id="A:floor-3:entertainment:furniture:theater-sofa" data-status="planning-not-measured" data-center-x-mm="1480.0" data-center-y-mm="5545.0" data-width-mm="2800.0" data-depth-mm="950.0" data-height-mm="900.0" data-rotation-deg="0" data-mount-height-mm="0.0" data-wall-anchor="rear" transform="translate(1480.0 5545.0) rotate(0)"><title>1. 家庭劇院沙發 · 2800×950×900mm · 暫估</title><rect x="-1400.0" y="-475.0" width="2800.0" height="950.0" rx="50" fill="#115e59" stroke="#37434c" stroke-width="15" /><path d="M -100 -345.0 L 0 -445.0 L 100 -345.0" class="front-mark" /><text x="0" y="70" transform="rotate(0)" class="item-number">1</text></g><rect x="80.0" y="4770.0" width="2800.0" height="300.0" class="allowance" /><g data-furniture-id="A:floor-3:entertainment:furniture:coffee-table" data-status="planning-not-measured" data-center-x-mm="1480.0" data-center-y-mm="4370.0" data-width-mm="1100.0" data-depth-mm="600.0" data-height-mm="420.0" data-rotation-deg="0" data-mount-height-mm="0.0" data-wall-anchor="" transform="translate(1480.0 4370.0) rotate(0)"><title>2. 茶几 · 1100×600×420mm · 暫估</title><rect x="-550.0" y="-300.0" width="1100.0" height="600.0" rx="50" fill="#d97706" stroke="#37434c" stroke-width="15" /><text x="0" y="70" transform="rotate(0)" class="item-number">2</text></g><g data-furniture-id="A:floor-3:entertainment:furniture:media-wall" data-status="planning-not-measured" data-center-x-mm="1480.0" data-center-y-mm="1805.0" data-width-mm="1800.0" data-depth-mm="450.0" data-height-mm="1250.0" data-rotation-deg="180" data-mount-height-mm="0.0" data-wall-anchor="front" transform="translate(1480.0 1805.0) rotate(-180)"><title>3. 電視牆／電視櫃 · 1800×450×1250mm · 暫估</title><rect x="-900.0" y="-225.0" width="1800.0" height="450.0" rx="50" fill="#475569" stroke="#37434c" stroke-width="15" /><path d="M -100 -95.0 L 0 -195.0 L 100 -95.0" class="front-mark" /><text x="0" y="70" transform="rotate(180)" class="item-number">3</text></g></g><g data-room-id="A:floor-3:guest" data-space-group="" data-x-mm="3600" data-y-mm="10400" data-w-mm="2400" data-h-mm="5230"><a href="../model3d.html#mode=tour&amp;building=A&amp;floor=floor-3&amp;room=A%3Afloor-3%3Aguest&amp;view=plan" target="_blank"><text x="3740" y="10720" class="room-name">客房（淨寬待核）</text></a><line x1="3600" x2="5100.0" y1="10400" y2="10400" stroke="#6b7274" stroke-width="100" data-wall-face="front" /><line x1="3600" x2="3950.0" y1="15630" y2="15630" stroke="#6b7274" stroke-width="100" data-wall-face="rear" /><line x1="5650.0" x2="6000" y1="15630" y2="15630" stroke="#6b7274" stroke-width="100" data-wall-face="rear" /><line x1="3950.0" x2="5650.0" y1="15630" y2="15630" stroke="#3b7894" stroke-width="45" data-wall-face="rear" /><line x1="3600" x2="3600" y1="10400" y2="15630" stroke="#6b7274" stroke-width="100" data-wall-face="left" /><line x1="6000" x2="6000" y1="10400" y2="15630" stroke="#6b7274" stroke-width="100" data-wall-face="right" /><rect x="5000.0" y="10400.0" width="1100.0" height="900.0" data-reserved="door-approach" class="allowance" /><rect x="4250.0" y="14730.0" width="1100.0" height="900.0" data-reserved="door-approach" class="allowance" /><rect x="5710.0" y="13586.0" width="280" height="950" fill="#54a5bb" stroke="#14586c" stroke-width="20" data-hvac-id="A-AC07" data-hvac-type="indoor" /><text x="5950" y="14211.0" font-size="155">A-AC07內</text><g data-furniture-id="A:floor-3:guest:furniture:bed" data-status="planning-not-measured" data-center-x-mm="4205.0" data-center-y-mm="11420.0" data-width-mm="1050.0" data-depth-mm="1880.0" data-height-mm="850.0" data-rotation-deg="180" data-mount-height-mm="0.0" data-wall-anchor="front" transform="translate(4205.0 11420.0) rotate(-180)"><title>4. 單人床 · 1050×1880×850mm · 暫估</title><rect x="-525.0" y="-940.0" width="1050.0" height="1880.0" rx="50" fill="#8b5cf6" stroke="#37434c" stroke-width="15" /><rect x="-367.5" y="470.0" width="315.0" height="300.8" rx="35" fill="#f4f1e8" /><rect x="52.5" y="470.0" width="315.0" height="300.8" rx="35" fill="#f4f1e8" /><path d="M -100 -810.0 L 0 -910.0 L 100 -810.0" class="front-mark" /><text x="0" y="70" transform="rotate(180)" class="item-number">4</text></g><rect x="3680.0" y="12360.0" width="1050.0" height="600.0" class="allowance" /><g data-furniture-id="A:floor-3:guest:furniture:wardrobe" data-status="planning-not-measured" data-center-x-mm="5620.0" data-center-y-mm="13780.0" data-width-mm="1800.0" data-depth-mm="600.0" data-height-mm="2200.0" data-rotation-deg="90" data-mount-height-mm="0.0" data-wall-anchor="right" transform="translate(5620.0 13780.0) rotate(-90)"><title>5. 180 cm 衣櫃 · 1800×600×2200mm · 暫估</title><rect x="-900.0" y="-300.0" width="1800.0" height="600.0" rx="50" fill="#a16207" stroke="#37434c" stroke-width="15" /><path d="M -100 -170.0 L 0 -270.0 L 100 -170.0" class="front-mark" /><text x="0" y="70" transform="rotate(90)" class="item-number">5</text></g><rect x="4720.0" y="12880.0" width="600.0" height="1800.0" class="allowance" /><g data-furniture-id="A:floor-3:guest:furniture:desk" data-status="planning-not-measured" data-center-x-mm="4030.0" data-center-y-mm="13956.4" data-width-mm="1400.0" data-depth-mm="700.0" data-height-mm="750.0" data-rotation-deg="270" data-mount-height-mm="0.0" data-wall-anchor="left" transform="translate(4030.0 13956.4) rotate(-270)"><title>6. 140 cm 書桌 · 1400×700×750mm · 暫估</title><rect x="-700.0" y="-350.0" width="1400.0" height="700.0" rx="50" fill="#0369a1" stroke="#37434c" stroke-width="15" /><path d="M -100 -220.0 L 0 -320.0 L 100 -220.0" class="front-mark" /><text x="0" y="70" transform="rotate(270)" class="item-number">6</text></g><rect x="4380.0" y="13256.4" width="700.0" height="1400.0" class="allowance" /></g><g data-room-id="A:floor-3:bath3" data-space-group="" data-x-mm="0" data-y-mm="13400" data-w-mm="2400" data-h-mm="2230"><a href="../model3d.html#mode=tour&amp;building=A&amp;floor=floor-3&amp;room=A%3Afloor-3%3Abath3&amp;view=plan" target="_blank"><text x="140" y="13720" class="room-name">3F衛浴</text></a><line x1="0" x2="2400" y1="13400" y2="13400" stroke="#6b7274" stroke-width="100" data-wall-face="front" /><line x1="0" x2="900.0" y1="15630" y2="15630" stroke="#6b7274" stroke-width="100" data-wall-face="rear" /><line x1="1500.0" x2="2400" y1="15630" y2="15630" stroke="#6b7274" stroke-width="100" data-wall-face="rear" /><line x1="900.0" x2="1500.0" y1="15630" y2="15630" stroke="#3b7894" stroke-width="45" data-wall-face="rear" /><line x1="0" x2="0" y1="13400" y2="15630" stroke="#6b7274" stroke-width="100" data-wall-face="left" /><line x1="2400" x2="2400" y1="13400" y2="14100.00102" stroke="#6b7274" stroke-width="100" data-wall-face="right" /><line x1="2400" x2="2400" y1="14900.00102" y2="15630" stroke="#6b7274" stroke-width="100" data-wall-face="right" /><rect x="1500.0" y="14000.0" width="900.0" height="1000.0" data-reserved="door-approach" class="allowance" /><g data-furniture-id="A:floor-3:bath3:furniture:vanity" data-status="planning-not-measured" data-center-x-mm="305.0" data-center-y-mm="13780.0" data-width-mm="600.0" data-depth-mm="450.0" data-height-mm="850.0" data-rotation-deg="270" data-mount-height-mm="0.0" data-wall-anchor="left" transform="translate(305.0 13780.0) rotate(-270)"><title>7. 60 cm 一般洗手台 · 600×450×850mm · 暫估</title><rect x="-300.0" y="-225.0" width="600.0" height="450.0" rx="50" fill="#0891b2" stroke="#37434c" stroke-width="15" /><path d="M -100 -95.0 L 0 -195.0 L 100 -95.0" class="front-mark" /><text x="0" y="70" transform="rotate(270)" class="item-number">7</text></g><rect x="530.0" y="13480.0" width="700.0" height="600.0" class="allowance" /><g data-furniture-id="A:floor-3:bath3:furniture:toilet" data-status="planning-not-measured" data-center-x-mm="305.0" data-center-y-mm="15200.0" data-width-mm="450.0" data-depth-mm="700.0" data-height-mm="800.0" data-rotation-deg="0" data-mount-height-mm="0.0" data-wall-anchor="rear" transform="translate(305.0 15200.0) rotate(0)"><title>8. 馬桶 · 450×700×800mm · 暫估</title><rect x="-225.0" y="-350.0" width="450.0" height="700.0" rx="50" fill="#e2e8f0" stroke="#37434c" stroke-width="15" /><path d="M -100 -220.0 L 0 -320.0 L 100 -220.0" class="front-mark" /><text x="0" y="70" transform="rotate(0)" class="item-number">8</text></g><rect x="80.0" y="14150.0" width="450.0" height="700.0" class="allowance" /><g data-furniture-id="A:floor-3:bath3:furniture:shower" data-status="planning-not-measured" data-center-x-mm="1030.0" data-center-y-mm="15100.0" data-width-mm="900.0" data-depth-mm="900.0" data-height-mm="2000.0" data-rotation-deg="0" data-mount-height-mm="0.0" data-wall-anchor="rear" transform="translate(1030.0 15100.0) rotate(0)"><title>9. 90 cm 淋浴區 · 900×900×2000mm · 暫估</title><rect x="-450.0" y="-450.0" width="900.0" height="900.0" rx="50" fill="#0ea5e9" stroke="#37434c" stroke-width="15" /><path d="M -100 -320.0 L 0 -420.0 L 100 -320.0" class="front-mark" /><text x="0" y="70" transform="rotate(0)" class="item-number">9</text></g><rect x="580.0" y="13950.0" width="900.0" height="700.0" class="allowance" /></g><g data-room-id="A:floor-3:multi" data-space-group="" data-x-mm="0" data-y-mm="10400" data-w-mm="2400" data-h-mm="3000"><a href="../model3d.html#mode=tour&amp;building=A&amp;floor=floor-3&amp;room=A%3Afloor-3%3Amulti&amp;view=plan" target="_blank"><text x="140" y="10720" class="room-name">多功能室</text></a><line x1="0" x2="2400" y1="10400" y2="10400" stroke="#6b7274" stroke-width="100" data-wall-face="front" /><line x1="0" x2="2400" y1="13400" y2="13400" stroke="#6b7274" stroke-width="100" data-wall-face="rear" /><line x1="0" x2="0" y1="10400" y2="13400" stroke="#6b7274" stroke-width="100" data-wall-face="left" /><line x1="2400" x2="2400" y1="10400" y2="11450.0" stroke="#6b7274" stroke-width="100" data-wall-face="right" /><line x1="2400" x2="2400" y1="12350.0" y2="13400" stroke="#6b7274" stroke-width="100" data-wall-face="right" /><rect x="1500.0" y="11350.0" width="900.0" height="1100.0" data-reserved="door-approach" class="allowance" /><g data-furniture-id="A:floor-3:multi:furniture:yoga-mat" data-status="planning-not-measured" data-center-x-mm="1200.0" data-center-y-mm="12950.0" data-width-mm="700.0" data-depth-mm="1800.0" data-height-mm="25.0" data-rotation-deg="90.0" data-mount-height-mm="0.0" data-wall-anchor="" transform="translate(1200.0 12950.0) rotate(-90.0)"><title>10. 瑜伽墊 · 700×1800×25mm · 暫估</title><rect x="-350.0" y="-900.0" width="700.0" height="1800.0" rx="50" fill="#f97316" stroke="#37434c" stroke-width="15" /><text x="0" y="70" transform="rotate(90.0)" class="item-number">10</text></g><g data-furniture-id="A:floor-3:multi:furniture:storage" data-status="planning-not-measured" data-center-x-mm="280.0" data-center-y-mm="11380.0" data-width-mm="1800.0" data-depth-mm="400.0" data-height-mm="2100.0" data-rotation-deg="270" data-mount-height-mm="0.0" data-wall-anchor="left" transform="translate(280.0 11380.0) rotate(-270)"><title>11. 書櫃／收納櫃 · 1800×400×2100mm · 暫估</title><rect x="-900.0" y="-200.0" width="1800.0" height="400.0" rx="50" fill="#a16207" stroke="#37434c" stroke-width="15" /><path d="M -100 -70.0 L 0 -170.0 L 100 -70.0" class="front-mark" /><text x="0" y="70" transform="rotate(270)" class="item-number">11</text></g><rect x="480.0" y="10480.0" width="600.0" height="1800.0" class="allowance" /></g><g data-room-id="A:floor-3:stair3" data-space-group="" data-x-mm="0" data-y-mm="6100" data-w-mm="3600" data-h-mm="4300"><a href="../model3d.html#mode=tour&amp;building=A&amp;floor=floor-3&amp;room=A%3Afloor-3%3Astair3&amp;view=plan" target="_blank"><text x="140" y="6420" class="room-name">正式樓梯／梯廳</text></a><line x1="0" x2="3600" y1="6100" y2="6100" stroke="#6b7274" stroke-width="100" data-wall-face="front" /><line x1="0" x2="2499.9988" y1="10400" y2="10400" stroke="#6b7274" stroke-width="100" data-wall-face="rear" /><line x1="3499.9988" x2="3600" y1="10400" y2="10400" stroke="#6b7274" stroke-width="100" data-wall-face="rear" /><line x1="0" x2="0" y1="6100" y2="10400" stroke="#6b7274" stroke-width="100" data-wall-face="left" /><rect x="2400.0" y="9500.0" width="1200.0" height="900.0" data-reserved="door-approach" class="allowance" /><rect x="80" y="6170" width="2200" height="4160" fill="#c5ceca" data-stairs="two-flight-u-proposal-not-verified" /><line x1="80" x2="2280" y1="7440.0" y2="7440.0" stroke="#62716f" stroke-width="20" /><line x1="80" x2="2280" y1="7710.0" y2="7710.0" stroke="#62716f" stroke-width="20" /><line x1="80" x2="2280" y1="7980.0" y2="7980.0" stroke="#62716f" stroke-width="20" /><line x1="80" x2="2280" y1="8250.0" y2="8250.0" stroke="#62716f" stroke-width="20" /><line x1="80" x2="2280" y1="8520.0" y2="8520.0" stroke="#62716f" stroke-width="20" /><line x1="80" x2="2280" y1="8790.0" y2="8790.0" stroke="#62716f" stroke-width="20" /><line x1="80" x2="2280" y1="9060.0" y2="9060.0" stroke="#62716f" stroke-width="20" /><line x1="80" x2="2280" y1="9330.0" y2="9330.0" stroke="#62716f" stroke-width="20" /><line x1="1180.0" x2="1180.0" y1="7170" y2="9330" stroke="#62716f" stroke-width="80" /><text x="160" y="8250.0" font-size="180">↑雙折梯↓（初排）</text></g><g data-room-id="A:floor-3:terrace3" data-space-group="" data-x-mm="0" data-y-mm="15630" data-w-mm="6000" data-h-mm="2000"><a href="../model3d.html#mode=tour&amp;building=A&amp;floor=floor-3&amp;room=A%3Afloor-3%3Aterrace3&amp;view=plan" target="_blank"><text x="140" y="15950" class="room-name">後工作／空調維修陽台</text></a><rect x="5020" y="16180" width="900" height="1350" data-reserved="hvac-service" class="allowance" /><rect x="2450.0" y="15630.0" width="1100.0" height="900.0" data-reserved="door-approach" class="allowance" /><rect x="4250.0" y="15630.0" width="1100.0" height="900.0" data-reserved="door-approach" class="allowance" /><rect x="5020.0" y="17180.0" width="900" height="350" fill="#54a5bb" stroke="#14586c" stroke-width="20" data-hvac-id="A-AC07" data-hvac-type="outdoor" /><text x="5570" y="17505" font-size="155">A-AC07外</text></g><g data-room-id="A:floor-3:front-service" data-space-group="" data-x-mm="0" data-y-mm="0" data-w-mm="6000" data-h-mm="1500"><a href="../model3d.html#mode=tour&amp;building=A&amp;floor=floor-3&amp;room=A%3Afloor-3%3Afront-service&amp;view=plan" target="_blank"><text x="140" y="320" class="room-name">前側空調維修陽台（待核）</text></a><rect x="870.0" y="100" width="900.0" height="1350" data-reserved="hvac-service" class="allowance" /><rect x="2450.0" y="600.0" width="1100.0" height="900.0" data-reserved="door-approach" class="allowance" /><rect x="870.0" y="100.0" width="900" height="350" fill="#54a5bb" stroke="#14586c" stroke-width="20" data-hvac-id="A-AC06" data-hvac-type="outdoor" /><text x="1420.0" y="425" font-size="155">A-AC06外</text></g><g data-room-id="A:floor-3:front-hall" data-space-group="" data-x-mm="4400" data-y-mm="1500" data-w-mm="1600" data-h-mm="4600"><a href="../model3d.html#mode=tour&amp;building=A&amp;floor=floor-3&amp;room=A%3Afloor-3%3Afront-hall&amp;view=plan" target="_blank"><text x="4540" y="1820" class="room-name">前段公共走道</text></a><line x1="4400" x2="4600.0" y1="1500" y2="1500" stroke="#6b7274" stroke-width="100" data-wall-face="front" /><line x1="5800.0" x2="6000" y1="1500" y2="1500" stroke="#6b7274" stroke-width="100" data-wall-face="front" /><line x1="4600.0" x2="5800.0" y1="1500" y2="1500" stroke="#3b7894" stroke-width="45" data-wall-face="front" /><line x1="4400" x2="4700.0" y1="6100" y2="6100" stroke="#6b7274" stroke-width="100" data-wall-face="rear" /><line x1="5700.0" x2="6000" y1="6100" y2="6100" stroke="#6b7274" stroke-width="100" data-wall-face="rear" /><line x1="4400" x2="4400" y1="1500" y2="2550.0002000000004" stroke="#6b7274" stroke-width="100" data-wall-face="left" /><line x1="4400" x2="4400" y1="3450.0002000000004" y2="6100" stroke="#6b7274" stroke-width="100" data-wall-face="left" /><line x1="6000" x2="6000" y1="1500" y2="6100" stroke="#6b7274" stroke-width="100" data-wall-face="right" /><rect x="4400.0" y="2450.0" width="900.0" height="1100.0" data-reserved="door-approach" class="allowance" /><rect x="4600.0" y="5200.0" width="1200.0" height="900.0" data-reserved="door-approach" class="allowance" /></g><g data-room-id="A:floor-3:rear-hall" data-space-group="" data-x-mm="3600" data-y-mm="6100" data-w-mm="2400" data-h-mm="4300"><a href="../model3d.html#mode=tour&amp;building=A&amp;floor=floor-3&amp;room=A%3Afloor-3%3Arear-hall&amp;view=plan" target="_blank"><text x="3740" y="6420" class="room-name">連續公共乾式梯廳</text></a><line x1="3600" x2="4700.0008" y1="6100" y2="6100" stroke="#6b7274" stroke-width="100" data-wall-face="front" /><line x1="5700.0008" x2="6000" y1="6100" y2="6100" stroke="#6b7274" stroke-width="100" data-wall-face="front" /><line x1="3600" x2="5100.0" y1="10400" y2="10400" stroke="#6b7274" stroke-width="100" data-wall-face="rear" /><line x1="6000" x2="6000" y1="6100" y2="10400" stroke="#6b7274" stroke-width="100" data-wall-face="right" /><rect x="4600.0" y="6100.0" width="1200.0" height="900.0" data-reserved="door-approach" class="allowance" /><rect x="5000.0" y="9500.0" width="1100.0" height="900.0" data-reserved="door-approach" class="allowance" /></g><g data-room-id="A:floor-3:back-hall" data-space-group="" data-x-mm="2400" data-y-mm="10400" data-w-mm="1200" data-h-mm="5230"><a href="../model3d.html#mode=tour&amp;building=A&amp;floor=floor-3&amp;room=A%3Afloor-3%3Aback-hall&amp;view=plan" target="_blank"><text x="2540" y="10720" class="room-name">衛浴公共走道</text></a><line x1="2400" x2="2500.0" y1="10400" y2="10400" stroke="#6b7274" stroke-width="100" data-wall-face="front" /><line x1="3500.0" x2="3600" y1="10400" y2="10400" stroke="#6b7274" stroke-width="100" data-wall-face="front" /><line x1="2400" x2="2550.0" y1="15630" y2="15630" stroke="#6b7274" stroke-width="100" data-wall-face="rear" /><line x1="3450.0" x2="3600" y1="15630" y2="15630" stroke="#6b7274" stroke-width="100" data-wall-face="rear" /><line x1="2400" x2="2400" y1="10400" y2="11450.00061" stroke="#6b7274" stroke-width="100" data-wall-face="left" /><line x1="2400" x2="2400" y1="12350.00061" y2="14100.000970000001" stroke="#6b7274" stroke-width="100" data-wall-face="left" /><line x1="2400" x2="2400" y1="14900.000970000001" y2="15630" stroke="#6b7274" stroke-width="100" data-wall-face="left" /><line x1="3600" x2="3600" y1="10400" y2="15630" stroke="#6b7274" stroke-width="100" data-wall-face="right" /><rect x="2400.0" y="10400.0" width="1200.0" height="900.0" data-reserved="door-approach" class="allowance" /><rect x="2400.0" y="11350.0" width="900.0" height="1100.0" data-reserved="door-approach" class="allowance" /><rect x="2400.0" y="14000.0" width="900.0" height="1000.0" data-reserved="door-approach" class="allowance" /><rect x="2450.0" y="14730.0" width="1100.0" height="900.0" data-reserved="door-approach" class="allowance" /></g></svg>
