<?xml version="1.0" encoding="UTF-8"?>
<svg xmlns="http://www.w3.org/2000/svg" viewBox="-300 -1000 6600 19030" role="img" aria-labelledby="plan-title plan-desc" data-schema="house-concept-furniture-plan-v1" data-building="B" data-floor="floor-1" data-geometry-source="tour_mm" data-frontage-study="keep-full-clear"><title id="plan-title">B 棟 1F 神明廳 × IDF · HTML／3D 共用家具概念配置</title><desc id="plan-desc">道路／前方在上。常見市售暫估尺寸，尚未實測。虛線為操作與入口暫留帶，非驗證動線；未能放入的家具列待調整。</desc><style>text{font-family:system-ui,sans-serif;fill:#263846} .room-name{font-size:210px;font-weight:600} .item-number{font-size:180px;font-weight:700;fill:#fff;text-anchor:middle} .wall{stroke:#6b7274;stroke-width:100} .allowance{fill:none;stroke:#c2904c;stroke-width:18;stroke-dasharray:70 40} .front-mark{stroke:#24394a;stroke-width:22;fill:none}</style><text x="0" y="-560" font-size="250" font-weight="700">B 棟 · 1F 神明廳 × IDF · 前方／道路 ↑</text><text x="0" y="-210" font-size="175">固定比較框／非地籍可建面積。家具未縮放；未解需求見 HTML。</text><rect x="4400" y="3900" width="1600" height="5600" fill="#e0c99d" fill-opacity="0.18" /><rect x="3000" y="13800" width="3000" height="3830" fill="#c3ccd9" fill-opacity="0.18" /><rect x="0" y="0" width="6000" height="3900" fill="#98b99a" fill-opacity="0.18" /><rect x="4400" y="9500" width="1600" height="4300" fill="#d4ddd5" fill-opacity="0.18" /><rect x="0" y="16000" width="3000" height="1630" fill="#5fae74" fill-opacity="0.18" /><rect x="0" y="13800" width="1800" height="2200" fill="#3fb6c8" fill-opacity="0.18" /><rect x="0" y="9500" width="3600" height="4300" fill="#b0bec5" fill-opacity="0.18" /><rect x="3600" y="9500" width="800" height="4300" fill="#90a4ae" fill-opacity="0.18" /><rect x="0" y="3900" width="4400" height="5600" fill="#69a79b" fill-opacity="0.18" /><rect x="1800" y="13800" width="1200" height="2200" fill="#d4ddd5" fill-opacity="0.18" /><g data-room-id="B:floor-1:entry" data-space-group="" data-x-mm="4400" data-y-mm="3900" data-w-mm="1600" data-h-mm="5600"><a href="../model3d.html#mode=tour&amp;building=B&amp;floor=floor-1&amp;room=B%3Afloor-1%3Aentry&amp;view=plan" target="_blank"><text x="4540" y="4220" class="room-name">側邊玄關／直線搬轎通道</text></a><line x1="4400" x2="4450.0" y1="3900" y2="3900" stroke="#6b7274" stroke-width="100" data-wall-face="front" /><line x1="5950.0" x2="6000" y1="3900" y2="3900" stroke="#6b7274" stroke-width="100" data-wall-face="front" /><line x1="4750.0" x2="5650.0" y1="3900" y2="3900" stroke="#3b7894" stroke-width="45" data-wall-face="front" /><line x1="4400" x2="4400" y1="3900" y2="4250.002399999999" stroke="#6b7274" stroke-width="100" data-wall-face="left" /><line x1="4400" x2="4400" y1="5750.002399999999" y2="9500" stroke="#6b7274" stroke-width="100" data-wall-face="left" /><line x1="6000" x2="6000" y1="3900" y2="9500" stroke="#6b7274" stroke-width="100" data-wall-face="right" /><rect x="4400" y="3900" width="1600" height="5600" data-reserved="circulation" class="allowance" /><rect x="4400.0" y="4150.0" width="900.0" height="1700.0" data-reserved="door-approach" class="allowance" /><rect x="4350.0" y="3900.0" width="1700.0" height="900.0" data-reserved="door-approach" class="allowance" /></g><g data-room-id="B:floor-1:storage" data-space-group="" data-x-mm="3000" data-y-mm="13800" data-w-mm="3000" data-h-mm="3830"><a href="../model3d.html#mode=tour&amp;building=B&amp;floor=floor-1&amp;room=B%3Afloor-1%3Astorage&amp;view=plan" target="_blank"><text x="3140" y="14120" class="room-name">後段武轎／祭祀物品收納</text></a><line x1="3000" x2="4449.999" y1="13800" y2="13800" stroke="#6b7274" stroke-width="100" data-wall-face="front" /><line x1="5949.999" x2="6000" y1="13800" y2="13800" stroke="#6b7274" stroke-width="100" data-wall-face="front" /><line x1="3000" x2="4200.0" y1="17630" y2="17630" stroke="#6b7274" stroke-width="100" data-wall-face="rear" /><line x1="4800.0" x2="6000" y1="17630" y2="17630" stroke="#6b7274" stroke-width="100" data-wall-face="rear" /><line x1="4200.0" x2="4800.0" y1="17630" y2="17630" stroke="#3b7894" stroke-width="45" data-wall-face="rear" /><line x1="3000" x2="3000" y1="13800" y2="17630" stroke="#6b7274" stroke-width="100" data-wall-face="left" /><line x1="6000" x2="6000" y1="13800" y2="17630" stroke="#6b7274" stroke-width="100" data-wall-face="right" /><rect x="4350.0" y="13800.0" width="1700.0" height="900.0" data-reserved="door-approach" class="allowance" /><rect x="4400.0" y="13800.0" width="1600.0" height="1294.7999999999993" data-reserved="transport-band" class="allowance" /><g data-furniture-id="B:floor-1:storage:furniture:ceremonial-storage" data-status="planning-not-measured" data-center-x-mm="5200.0" data-center-y-mm="15944.8" data-width-mm="1200.0" data-depth-mm="1700.0" data-height-mm="1800.0" data-rotation-deg="0.0" data-mount-height-mm="0.0" data-wall-anchor="" transform="translate(5200.0 15944.8) rotate(-0.0)"><title>1. 武轎收納位 · 1200×1700×1800mm · 暫估</title><rect x="-600.0" y="-850.0" width="1200.0" height="1700.0" rx="50" fill="#b91c1c" stroke="#37434c" stroke-width="15" /><text x="0" y="70" transform="rotate(0.0)" class="item-number">1</text></g><g data-furniture-id="B:floor-1:storage:furniture:ritual-cabinet" data-status="planning-not-measured" data-center-x-mm="3305.0" data-center-y-mm="16864.0" data-width-mm="1200.0" data-depth-mm="450.0" data-height-mm="2100.0" data-rotation-deg="270" data-mount-height-mm="0.0" data-wall-anchor="left" transform="translate(3305.0 16864.0) rotate(-270)"><title>2. 法器／旗幟櫃 · 1200×450×2100mm · 暫估</title><rect x="-600.0" y="-225.0" width="1200.0" height="450.0" rx="50" fill="#92400e" stroke="#37434c" stroke-width="15" /><path d="M -100 -95.0 L 0 -195.0 L 100 -95.0" class="front-mark" /><text x="0" y="70" transform="rotate(270)" class="item-number">2</text></g><rect x="3530.0" y="16264.0" width="600.0" height="1200.0" class="allowance" /><g data-furniture-id="B:floor-1:storage:furniture:dehumidifier" data-status="planning-not-measured" data-center-x-mm="3230.0" data-center-y-mm="14566.0" data-width-mm="350.0" data-depth-mm="300.0" data-height-mm="600.0" data-rotation-deg="270" data-mount-height-mm="0.0" data-wall-anchor="left" transform="translate(3230.0 14566.0) rotate(-270)"><title>3. 除濕機 · 350×300×600mm · 暫估</title><rect x="-175.0" y="-150.0" width="350.0" height="300.0" rx="50" fill="#475569" stroke="#37434c" stroke-width="15" /><path d="M -100 -20.0 L 0 -120.0 L 100 -20.0" class="front-mark" /><text x="0" y="70" transform="rotate(270)" class="item-number">3</text></g><rect x="3380.0" y="14391.0" width="600.0" height="350.0" class="allowance" /></g><g data-room-id="B:floor-1:garage" data-space-group="" data-x-mm="0" data-y-mm="0" data-w-mm="6000" data-h-mm="3900"><a href="../model3d.html#mode=tour&amp;building=B&amp;floor=floor-1&amp;room=B%3Afloor-1%3Agarage&amp;view=plan" target="_blank"><text x="140" y="320" class="room-name">騎樓／前緣通行預留（非車位）</text></a></g><g data-room-id="B:floor-1:corridor1" data-space-group="B1-dry-hall" data-x-mm="4400" data-y-mm="9500" data-w-mm="1600" data-h-mm="4300"><a href="../model3d.html#mode=tour&amp;building=B&amp;floor=floor-1&amp;room=B%3Afloor-1%3Acorridor1&amp;view=plan" target="_blank"><text x="4540" y="9820" class="room-name">後段直線搬運／公共通道</text></a><line x1="4400" x2="4450.0" y1="13800" y2="13800" stroke="#6b7274" stroke-width="100" data-wall-face="rear" /><line x1="5950.0" x2="6000" y1="13800" y2="13800" stroke="#6b7274" stroke-width="100" data-wall-face="rear" /><line x1="6000" x2="6000" y1="9500" y2="13800" stroke="#6b7274" stroke-width="100" data-wall-face="right" /><rect x="4400" y="9500" width="1600" height="4300" data-reserved="circulation" class="allowance" /><rect x="4350.0" y="12900.0" width="1700.0" height="900.0" data-reserved="door-approach" class="allowance" /></g><g data-room-id="B:floor-1:balcony1" data-space-group="" data-x-mm="0" data-y-mm="16000" data-w-mm="3000" data-h-mm="1630"><a href="../model3d.html#mode=tour&amp;building=B&amp;floor=floor-1&amp;room=B%3Afloor-1%3Abalcony1&amp;view=plan" target="_blank"><text x="140" y="16320" class="room-name">後工作／洗滌準備區</text></a><rect x="1800.0" y="16000.0" width="1200.0" height="900.0" data-reserved="door-approach" class="allowance" /><g data-furniture-id="B:floor-1:balcony1:furniture:washer" data-status="planning-not-measured" data-center-x-mm="1405.0" data-center-y-mm="17225.0" data-width-mm="650.0" data-depth-mm="650.0" data-height-mm="1000.0" data-rotation-deg="0" data-mount-height-mm="0.0" data-wall-anchor="rear" transform="translate(1405.0 17225.0) rotate(0)"><title>4. 洗衣機 · 650×650×1000mm · 暫估</title><rect x="-325.0" y="-325.0" width="650.0" height="650.0" rx="50" fill="#64748b" stroke="#37434c" stroke-width="15" /><path d="M -100 -195.0 L 0 -295.0 L 100 -195.0" class="front-mark" /><text x="0" y="70" transform="rotate(0)" class="item-number">4</text></g><rect x="1080.0" y="16300.0" width="650.0" height="600.0" class="allowance" /></g><g data-room-id="B:floor-1:bath1" data-space-group="" data-x-mm="0" data-y-mm="13800" data-w-mm="1800" data-h-mm="2200"><a href="../model3d.html#mode=tour&amp;building=B&amp;floor=floor-1&amp;room=B%3Afloor-1%3Abath1&amp;view=plan" target="_blank"><text x="140" y="14120" class="room-name">後段客用廁所（淋浴另案）</text></a><line x1="0" x2="1800" y1="13800" y2="13800" stroke="#6b7274" stroke-width="100" data-wall-face="front" /><line x1="0" x2="450.0" y1="16000" y2="16000" stroke="#6b7274" stroke-width="100" data-wall-face="rear" /><line x1="1350.0" x2="1800" y1="16000" y2="16000" stroke="#6b7274" stroke-width="100" data-wall-face="rear" /><line x1="450.0" x2="1350.0" y1="16000" y2="16000" stroke="#3b7894" stroke-width="45" data-wall-face="rear" /><line x1="0" x2="0" y1="13800" y2="16000" stroke="#6b7274" stroke-width="100" data-wall-face="left" /><line x1="1800" x2="1800" y1="13800" y2="14450.0" stroke="#6b7274" stroke-width="100" data-wall-face="right" /><line x1="1800" x2="1800" y1="15350.0" y2="16000" stroke="#6b7274" stroke-width="100" data-wall-face="right" /><rect x="900.0" y="14350.0" width="900.0" height="1100.0" data-reserved="door-approach" class="allowance" /><g data-furniture-id="B:floor-1:bath1:furniture:toilet" data-status="planning-not-measured" data-center-x-mm="450.0" data-center-y-mm="15570.0" data-width-mm="450.0" data-depth-mm="700.0" data-height-mm="800.0" data-rotation-deg="0" data-mount-height-mm="0.0" data-wall-anchor="rear" transform="translate(450.0 15570.0) rotate(0)"><title>5. 馬桶 · 450×700×800mm · 暫估</title><rect x="-225.0" y="-350.0" width="450.0" height="700.0" rx="50" fill="#e2e8f0" stroke="#37434c" stroke-width="15" /><path d="M -100 -220.0 L 0 -320.0 L 100 -220.0" class="front-mark" /><text x="0" y="70" transform="rotate(0)" class="item-number">5</text></g><rect x="225.0" y="14520.0" width="450.0" height="700.0" class="allowance" /><g data-furniture-id="B:floor-1:bath1:furniture:vanity" data-status="planning-not-measured" data-center-x-mm="450.0" data-center-y-mm="14105.0" data-width-mm="600.0" data-depth-mm="450.0" data-height-mm="850.0" data-rotation-deg="180" data-mount-height-mm="0.0" data-wall-anchor="front" transform="translate(450.0 14105.0) rotate(-180)"><title>6. 60 cm 一般洗手台 · 600×450×850mm · 暫估</title><rect x="-300.0" y="-225.0" width="600.0" height="450.0" rx="50" fill="#0891b2" stroke="#37434c" stroke-width="15" /><path d="M -100 -95.0 L 0 -195.0 L 100 -95.0" class="front-mark" /><text x="0" y="70" transform="rotate(180)" class="item-number">6</text></g><rect x="150.0" y="14330.0" width="600.0" height="700.0" class="allowance" /></g><g data-room-id="B:floor-1:stair1" data-space-group="B1-dry-hall" data-x-mm="0" data-y-mm="9500" data-w-mm="3600" data-h-mm="4300"><a href="../model3d.html#mode=tour&amp;building=B&amp;floor=floor-1&amp;room=B%3Afloor-1%3Astair1&amp;view=plan" target="_blank"><text x="140" y="9820" class="room-name">正式樓梯／共用梯廳</text></a><line x1="0" x2="3600" y1="9500" y2="9500" stroke="#6b7274" stroke-width="100" data-wall-face="front" /><line x1="0" x2="1900.0012000000002" y1="13800" y2="13800" stroke="#6b7274" stroke-width="100" data-wall-face="rear" /><line x1="2900.0012" x2="3600" y1="13800" y2="13800" stroke="#6b7274" stroke-width="100" data-wall-face="rear" /><line x1="0" x2="0" y1="9500" y2="13800" stroke="#6b7274" stroke-width="100" data-wall-face="left" /><rect x="1800.0" y="12900.0" width="1200.0" height="900.0" data-reserved="door-approach" class="allowance" /><rect x="80" y="9570" width="2200" height="4160" fill="#c5ceca" data-stairs="two-flight-u-proposal-not-verified" /><line x1="80" x2="2280" y1="10840.0" y2="10840.0" stroke="#62716f" stroke-width="20" /><line x1="80" x2="2280" y1="11110.0" y2="11110.0" stroke="#62716f" stroke-width="20" /><line x1="80" x2="2280" y1="11380.0" y2="11380.0" stroke="#62716f" stroke-width="20" /><line x1="80" x2="2280" y1="11650.0" y2="11650.0" stroke="#62716f" stroke-width="20" /><line x1="80" x2="2280" y1="11920.0" y2="11920.0" stroke="#62716f" stroke-width="20" /><line x1="80" x2="2280" y1="12190.0" y2="12190.0" stroke="#62716f" stroke-width="20" /><line x1="80" x2="2280" y1="12460.0" y2="12460.0" stroke="#62716f" stroke-width="20" /><line x1="80" x2="2280" y1="12730.0" y2="12730.0" stroke="#62716f" stroke-width="20" /><line x1="1180.0" x2="1180.0" y1="10570" y2="12730" stroke="#62716f" stroke-width="80" /><text x="160" y="11650.0" font-size="180">↑雙折梯↓（初排）</text></g><g data-room-id="B:floor-1:idf-cabinet" data-space-group="B1-dry-hall" data-x-mm="3600" data-y-mm="9500" data-w-mm="800" data-h-mm="4300"><a href="../model3d.html#mode=tour&amp;building=B&amp;floor=floor-1&amp;room=B%3Afloor-1%3Aidf-cabinet&amp;view=plan" target="_blank"><text x="3740" y="9820" class="room-name">IDF壁龕（梯廳分區）</text></a><line x1="3600" x2="4400" y1="9500" y2="9500" stroke="#6b7274" stroke-width="100" data-wall-face="front" /><line x1="3600" x2="4400" y1="13800" y2="13800" stroke="#6b7274" stroke-width="100" data-wall-face="rear" /><g data-furniture-id="B:floor-1:idf-cabinet:furniture:rack" data-status="planning-not-measured" data-center-x-mm="4000.0" data-center-y-mm="13420.0" data-width-mm="600.0" data-depth-mm="600.0" data-height-mm="800.0" data-rotation-deg="0" data-mount-height-mm="1000.0" data-wall-anchor="rear" transform="translate(4000.0 13420.0) rotate(0)"><title>7. 15U IDF-B 壁掛機櫃 · 600×600×800mm · 暫估</title><rect x="-300.0" y="-300.0" width="600.0" height="600.0" rx="50" fill="#334155" stroke="#37434c" stroke-width="15" /><path d="M -100 -170.0 L 0 -270.0 L 100 -170.0" class="front-mark" /><text x="0" y="70" transform="rotate(0)" class="item-number">7</text></g><rect x="3700.0" y="12320.0" width="600.0" height="800.0" class="allowance" /></g><g data-room-id="B:floor-1:shrine" data-space-group="" data-x-mm="0" data-y-mm="3900" data-w-mm="4400" data-h-mm="5600"><a href="../model3d.html#mode=tour&amp;building=B&amp;floor=floor-1&amp;room=B%3Afloor-1%3Ashrine&amp;view=plan" target="_blank"><text x="140" y="4220" class="room-name">私有前廳／神明堂（面前方）</text></a><line x1="2300.0" x2="4400" y1="3900" y2="3900" stroke="#6b7274" stroke-width="100" data-wall-face="front" /><line x1="-100.0" x2="2300.0" y1="3900" y2="3900" stroke="#3b7894" stroke-width="45" data-wall-face="front" /><line x1="0" x2="4400" y1="9500" y2="9500" stroke="#6b7274" stroke-width="100" data-wall-face="rear" /><line x1="0" x2="0" y1="3900" y2="9500" stroke="#6b7274" stroke-width="100" data-wall-face="left" /><line x1="4400" x2="4400" y1="3900" y2="4250.002399999999" stroke="#6b7274" stroke-width="100" data-wall-face="right" /><line x1="4400" x2="4400" y1="5750.002399999999" y2="9500" stroke="#6b7274" stroke-width="100" data-wall-face="right" /><rect x="3500.0" y="4150.0" width="900.0" height="1700.0" data-reserved="door-approach" class="allowance" /><g data-furniture-id="B:floor-1:shrine:furniture:altar" data-status="planning-not-measured" data-center-x-mm="2200.0" data-center-y-mm="9120.0" data-width-mm="1800.0" data-depth-mm="600.0" data-height-mm="1250.0" data-rotation-deg="0" data-mount-height-mm="0.0" data-wall-anchor="rear" transform="translate(2200.0 9120.0) rotate(0)"><title>8. 龍邊神桌 · 1800×600×1250mm · 暫估</title><rect x="-900.0" y="-300.0" width="1800.0" height="600.0" rx="50" fill="#9a3412" stroke="#37434c" stroke-width="15" /><path d="M -100 -170.0 L 0 -270.0 L 100 -170.0" class="front-mark" /><text x="0" y="70" transform="rotate(0)" class="item-number">8</text></g><g data-furniture-id="B:floor-1:shrine:furniture:offering-table" data-status="planning-not-measured" data-center-x-mm="2200.0" data-center-y-mm="7540.0" data-width-mm="1200.0" data-depth-mm="500.0" data-height-mm="750.0" data-rotation-deg="0.0" data-mount-height-mm="0.0" data-wall-anchor="" transform="translate(2200.0 7540.0) rotate(-0.0)"><title>9. 活動供桌 · 1200×500×750mm · 暫估</title><rect x="-600.0" y="-250.0" width="1200.0" height="500.0" rx="50" fill="#c2410c" stroke="#37434c" stroke-width="15" /><text x="0" y="70" transform="rotate(0.0)" class="item-number">9</text></g><g data-furniture-id="B:floor-1:shrine:furniture:bench-left" data-status="planning-not-measured" data-center-x-mm="880.0" data-center-y-mm="5860.0" data-width-mm="1400.0" data-depth-mm="450.0" data-height-mm="450.0" data-rotation-deg="0.0" data-mount-height-mm="0.0" data-wall-anchor="" transform="translate(880.0 5860.0) rotate(-0.0)"><title>10. 可移動長凳 · 1400×450×450mm · 暫估</title><rect x="-700.0" y="-225.0" width="1400.0" height="450.0" rx="50" fill="#a16207" stroke="#37434c" stroke-width="15" /><text x="0" y="70" transform="rotate(0.0)" class="item-number">10</text></g><g data-furniture-id="B:floor-1:shrine:furniture:bench-right" data-status="planning-not-measured" data-center-x-mm="3080.0" data-center-y-mm="6160.0" data-width-mm="1400.0" data-depth-mm="450.0" data-height-mm="450.0" data-rotation-deg="0.0" data-mount-height-mm="0.0" data-wall-anchor="" transform="translate(3080.0 6160.0) rotate(-0.0)"><title>11. 可移動長凳 · 1400×450×450mm · 暫估</title><rect x="-700.0" y="-225.0" width="1400.0" height="450.0" rx="50" fill="#a16207" stroke="#37434c" stroke-width="15" /><text x="0" y="70" transform="rotate(0.0)" class="item-number">11</text></g></g><g data-room-id="B:floor-1:rear-hall" data-space-group="" data-x-mm="1800" data-y-mm="13800" data-w-mm="1200" data-h-mm="2200"><a href="../model3d.html#mode=tour&amp;building=B&amp;floor=floor-1&amp;room=B%3Afloor-1%3Arear-hall&amp;view=plan" target="_blank"><text x="1940" y="14120" class="room-name">工作區公共乾式通道</text></a><line x1="1800" x2="1900.0" y1="13800" y2="13800" stroke="#6b7274" stroke-width="100" data-wall-face="front" /><line x1="2900.0" x2="3000" y1="13800" y2="13800" stroke="#6b7274" stroke-width="100" data-wall-face="front" /><line x1="1800" x2="1900.0" y1="16000" y2="16000" stroke="#6b7274" stroke-width="100" data-wall-face="rear" /><line x1="2900.0" x2="3000" y1="16000" y2="16000" stroke="#6b7274" stroke-width="100" data-wall-face="rear" /><line x1="1800" x2="1800" y1="13800" y2="14450.0" stroke="#6b7274" stroke-width="100" data-wall-face="left" /><line x1="1800" x2="1800" y1="15350.0" y2="16000" stroke="#6b7274" stroke-width="100" data-wall-face="left" /><line x1="3000" x2="3000" y1="13800" y2="16000" stroke="#6b7274" stroke-width="100" data-wall-face="right" /><rect x="1800.0" y="13800.0" width="1200.0" height="900.0" data-reserved="door-approach" class="allowance" /><rect x="1800.0" y="14350.0" width="900.0" height="1100.0" data-reserved="door-approach" class="allowance" /><rect x="1800.0" y="15100.0" width="1200.0" height="900.0" data-reserved="door-approach" class="allowance" /></g></svg>
