<svg xmlns="http://www.w3.org/2000/svg" width="1162" height="717" viewBox="0 0 1162 717" role="img" aria-label="A floor-2">
<metadata>{&quot;schema_version&quot;: &quot;layout-top1-svg-v2&quot;, &quot;drawing_style&quot;: &quot;presentation&quot;, &quot;presentation_version&quot;: 2, &quot;building_id&quot;: &quot;A&quot;, &quot;floor_id&quot;: &quot;floor-2&quot;, &quot;candidate_id&quot;: &quot;baseline&quot;, &quot;validation_markers&quot;: [&quot;ENT&quot;, &quot;DW:&quot;, &quot;WIN:&quot;, &quot;DIM:&quot;, &quot;LEGEND:&quot;, &quot;ELEV:&quot;]}</metadata>
<rect x="0" y="0" width="1162" height="717" fill="#f3f4f6"/>
<rect x="40.0" y="62.0" width="1076.0" height="565.6" fill="#ffffff" stroke="#d1d5db" stroke-width="1.1"/>
<rect x="50.0" y="72.0" width="1056.0" height="513.6" fill="none" stroke="#e2e8f0" stroke-width="0.8"/>
<text x="58.0" y="32.0" fill="#111827" font-size="19" font-family="Segoe UI, Microsoft JhengHei, sans-serif" font-weight="700">[A] floor-2 2F</text>
<text x="58.0" y="55.0" fill="#64748b" font-size="12" font-family="Segoe UI, Microsoft JhengHei, sans-serif" font-weight="500">2F 私領域</text>
<rect x="824.0" y="18.0" width="274.0" height="48" fill="#ffffff" stroke="#d1d5db" stroke-width="0.8"/>
<text x="834.0" y="35.0" fill="#111827" font-size="10" font-family="Segoe UI, Microsoft JhengHei, sans-serif" font-weight="700">住宅平面討論圖</text>
<text x="834.0" y="51.0" fill="#64748b" font-size="8" font-family="Segoe UI, Microsoft JhengHei, sans-serif" font-weight="500">Selection: baseline | presentation v2</text>
<text x="1014.0" y="51.0" fill="#64748b" font-size="8" font-family="Segoe UI, Microsoft JhengHei, sans-serif" font-weight="500">Scale: diagram</text>
<rect x="58.0" y="90.0" width="693.3" height="104.0" fill="#f7f8ff" stroke="#374151" stroke-width="2.2"/>
<g opacity="0.42">
<rect x="359.7" y="116.7" width="90.0" height="66.6" fill="#ffffff" stroke="#64748b" stroke-width="1.1"/>
<rect x="366.9" y="121.7" width="19.8" height="13.3" fill="#ffffff" stroke="#64748b" stroke-width="0.9"/>
<rect x="422.7" y="121.7" width="19.8" height="13.3" fill="#ffffff" stroke="#64748b" stroke-width="0.9"/>
</g>
<text x="404.7" y="135.0" fill="#111827" font-size="12" font-family="Segoe UI, Microsoft JhengHei, sans-serif" font-weight="700" text-anchor="middle" dominant-baseline="middle" paint-order="stroke" stroke="#ffffff" stroke-width="2.4" stroke-linejoin="round">主臥室 Master Bedroom</text>
<text x="404.7" y="153.0" fill="#64748b" font-size="8" font-family="Segoe UI, Microsoft JhengHei, sans-serif" font-weight="500" text-anchor="middle" dominant-baseline="middle" paint-order="stroke" stroke="#ffffff" stroke-width="2.4" stroke-linejoin="round">約 6 坪</text>
<rect x="751.3" y="90.0" width="346.7" height="104.0" fill="#f7f8ff" stroke="#374151" stroke-width="2.2"/>
<g opacity="0.42">
<rect x="879.7" y="116.7" width="90.0" height="66.6" fill="#ffffff" stroke="#64748b" stroke-width="1.1"/>
<rect x="886.9" y="121.7" width="19.8" height="13.3" fill="#ffffff" stroke="#64748b" stroke-width="0.9"/>
<rect x="942.7" y="121.7" width="19.8" height="13.3" fill="#ffffff" stroke="#64748b" stroke-width="0.9"/>
</g>
<text x="924.7" y="142.0" fill="#111827" font-size="12" font-family="Segoe UI, Microsoft JhengHei, sans-serif" font-weight="700" text-anchor="middle" dominant-baseline="middle" paint-order="stroke" stroke="#ffffff" stroke-width="2.4" stroke-linejoin="round">主臥衛浴</text>
<rect x="58.0" y="194.0" width="520.0" height="122.9" fill="#ffffff" stroke="#374151" stroke-width="2.2"/>
<g opacity="0.42">
</g>
<text x="318.0" y="255.5" fill="#111827" font-size="12" font-family="Segoe UI, Microsoft JhengHei, sans-serif" font-weight="700" text-anchor="middle" dominant-baseline="middle" paint-order="stroke" stroke="#ffffff" stroke-width="2.4" stroke-linejoin="round">更衣/收納</text>
<rect x="578.0" y="194.0" width="520.0" height="122.9" fill="#f8fafc" stroke="#374151" stroke-width="2.2"/>
<g opacity="0.42">
<line x1="588.0" y1="210.0" x2="1088.0" y2="210.0" stroke="#64748b" stroke-width="0.9"/>
<line x1="588.0" y1="223.0" x2="1088.0" y2="223.0" stroke="#64748b" stroke-width="0.9"/>
<line x1="588.0" y1="236.0" x2="1088.0" y2="236.0" stroke="#64748b" stroke-width="0.9"/>
<line x1="588.0" y1="249.0" x2="1088.0" y2="249.0" stroke="#64748b" stroke-width="0.9"/>
<line x1="588.0" y1="261.9" x2="1088.0" y2="261.9" stroke="#64748b" stroke-width="0.9"/>
<line x1="588.0" y1="274.9" x2="1088.0" y2="274.9" stroke="#64748b" stroke-width="0.9"/>
<line x1="588.0" y1="287.9" x2="1088.0" y2="287.9" stroke="#64748b" stroke-width="0.9"/>
</g>
<text x="838.0" y="255.5" fill="#111827" font-size="12" font-family="Segoe UI, Microsoft JhengHei, sans-serif" font-weight="700" text-anchor="middle" dominant-baseline="middle" paint-order="stroke" stroke="#ffffff" stroke-width="2.4" stroke-linejoin="round">走廊/梯間</text>
<rect x="58.0" y="316.9" width="520.0" height="104.0" fill="#ffffff" stroke="#374151" stroke-width="2.2"/>
<g opacity="0.42">
</g>
<text x="318.0" y="361.9" fill="#111827" font-size="12" font-family="Segoe UI, Microsoft JhengHei, sans-serif" font-weight="700" text-anchor="middle" dominant-baseline="middle" paint-order="stroke" stroke="#ffffff" stroke-width="2.4" stroke-linejoin="round">書房/工作室</text>
<text x="318.0" y="379.9" fill="#64748b" font-size="8" font-family="Segoe UI, Microsoft JhengHei, sans-serif" font-weight="500" text-anchor="middle" dominant-baseline="middle" paint-order="stroke" stroke="#ffffff" stroke-width="2.4" stroke-linejoin="round">約 3–4 坪</text>
<rect x="578.0" y="316.9" width="520.0" height="104.0" fill="#f7f8ff" stroke="#374151" stroke-width="2.2"/>
<g opacity="0.42">
<rect x="793.0" y="343.6" width="90.0" height="66.6" fill="#ffffff" stroke="#64748b" stroke-width="1.1"/>
<rect x="800.2" y="348.6" width="19.8" height="13.3" fill="#ffffff" stroke="#64748b" stroke-width="0.9"/>
<rect x="856.0" y="348.6" width="19.8" height="13.3" fill="#ffffff" stroke="#64748b" stroke-width="0.9"/>
</g>
<text x="838.0" y="361.9" fill="#111827" font-size="12" font-family="Segoe UI, Microsoft JhengHei, sans-serif" font-weight="700" text-anchor="middle" dominant-baseline="middle" paint-order="stroke" stroke="#ffffff" stroke-width="2.4" stroke-linejoin="round">次臥</text>
<text x="838.0" y="379.9" fill="#64748b" font-size="8" font-family="Segoe UI, Microsoft JhengHei, sans-serif" font-weight="500" text-anchor="middle" dominant-baseline="middle" paint-order="stroke" stroke="#ffffff" stroke-width="2.4" stroke-linejoin="round">約 4 坪</text>
<rect x="58.0" y="420.9" width="520.0" height="160.7" fill="#f3fdff" stroke="#374151" stroke-width="2.2"/>
<path data-hatch-kind="bath" d="M 58.0 572.6 L 67.0 581.6 M 58.0 563.6 L 76.0 581.6 M 58.0 554.6 L 85.0 581.6 M 58.0 545.6 L 94.0 581.6 M 58.0 536.6 L 103.0 581.6 M 58.0 527.6 L 112.0 581.6 M 58.0 518.6 L 121.0 581.6 M 58.0 509.6 L 130.0 581.6 M 58.0 500.6 L 139.0 581.6 M 58.0 491.6 L 148.0 581.6 M 58.0 482.6 L 157.0 581.6 M 58.0 473.6 L 166.0 581.6 M 58.0 464.6 L 175.0 581.6 M 58.0 455.6 L 184.0 581.6 M 58.0 446.6 L 193.0 581.6 M 58.0 437.6 L 202.0 581.6 M 58.0 428.6 L 211.0 581.6 M 59.3 420.9 L 220.0 581.6 M 68.3 420.9 L 229.0 581.6 M 77.3 420.9 L 238.0 581.6 M 86.3 420.9 L 247.0 581.6 M 95.3 420.9 L 256.0 581.6 M 104.3 420.9 L 265.0 581.6 M 113.3 420.9 L 274.0 581.6 M 122.3 420.9 L 283.0 581.6 M 131.3 420.9 L 292.0 581.6 M 140.3 420.9 L 301.0 581.6 M 149.3 420.9 L 310.0 581.6 M 158.3 420.9 L 319.0 581.6 M 167.3 420.9 L 328.0 581.6 M 176.3 420.9 L 337.0 581.6 M 185.3 420.9 L 346.0 581.6 M 194.3 420.9 L 355.0 581.6 M 203.3 420.9 L 364.0 581.6 M 212.3 420.9 L 373.0 581.6 M 221.3 420.9 L 382.0 581.6 M 230.3 420.9 L 391.0 581.6 M 239.3 420.9 L 400.0 581.6 M 248.3 420.9 L 409.0 581.6 M 257.3 420.9 L 418.0 581.6 M 266.3 420.9 L 427.0 581.6 M 275.3 420.9 L 436.0 581.6 M 284.3 420.9 L 445.0 581.6 M 293.3 420.9 L 454.0 581.6 M 302.3 420.9 L 463.0 581.6 M 311.3 420.9 L 472.0 581.6 M 320.3 420.9 L 481.0 581.6 M 329.3 420.9 L 490.0 581.6 M 338.3 420.9 L 499.0 581.6 M 347.3 420.9 L 508.0 581.6 M 356.3 420.9 L 517.0 581.6 M 365.3 420.9 L 526.0 581.6 M 374.3 420.9 L 535.0 581.6 M 383.3 420.9 L 544.0 581.6 M 392.3 420.9 L 553.0 581.6 M 401.3 420.9 L 562.0 581.6 M 410.3 420.9 L 571.0 581.6 M 419.3 420.9 L 578.0 579.6 M 428.3 420.9 L 578.0 570.6 M 437.3 420.9 L 578.0 561.6 M 446.3 420.9 L 578.0 552.6 M 455.3 420.9 L 578.0 543.6 M 464.3 420.9 L 578.0 534.6 M 473.3 420.9 L 578.0 525.6 M 482.3 420.9 L 578.0 516.6 M 491.3 420.9 L 578.0 507.6 M 500.3 420.9 L 578.0 498.6 M 509.3 420.9 L 578.0 489.6 M 518.3 420.9 L 578.0 480.6 M 527.3 420.9 L 578.0 471.6 M 536.3 420.9 L 578.0 462.6 M 545.3 420.9 L 578.0 453.6 M 554.3 420.9 L 578.0 444.6 M 563.3 420.9 L 578.0 435.6 M 572.3 420.9 L 578.0 426.6" fill="none" stroke="#94a3b8" stroke-width="0.55" opacity="0.28" pointer-events="none"/>
<g opacity="0.42">
<rect x="349.2" y="509.3" width="34.0" height="24.0" fill="#ffffff" stroke="#64748b" stroke-width="1.0"/>
<ellipse cx="366.2" cy="501.3" rx="17.0" ry="7" fill="#ffffff" stroke="#64748b" stroke-width="0.9"/>
</g>
<text x="318.0" y="501.3" fill="#111827" font-size="12" font-family="Segoe UI, Microsoft JhengHei, sans-serif" font-weight="700" text-anchor="middle" dominant-baseline="middle" paint-order="stroke" stroke="#ffffff" stroke-width="2.4" stroke-linejoin="round">2F 公用衛浴</text>
<rect x="578.0" y="420.9" width="520.0" height="160.7" fill="#f2fbf5" stroke="#374151" stroke-width="2.2"/>
<path data-hatch-kind="outdoor" d="M 584.0 420.9 V 581.6 M 596.0 420.9 V 581.6 M 608.0 420.9 V 581.6 M 620.0 420.9 V 581.6 M 632.0 420.9 V 581.6 M 644.0 420.9 V 581.6 M 656.0 420.9 V 581.6 M 668.0 420.9 V 581.6 M 680.0 420.9 V 581.6 M 692.0 420.9 V 581.6 M 704.0 420.9 V 581.6 M 716.0 420.9 V 581.6 M 728.0 420.9 V 581.6 M 740.0 420.9 V 581.6 M 752.0 420.9 V 581.6 M 764.0 420.9 V 581.6 M 776.0 420.9 V 581.6 M 788.0 420.9 V 581.6 M 800.0 420.9 V 581.6 M 812.0 420.9 V 581.6 M 824.0 420.9 V 581.6 M 836.0 420.9 V 581.6 M 848.0 420.9 V 581.6 M 860.0 420.9 V 581.6 M 872.0 420.9 V 581.6 M 884.0 420.9 V 581.6 M 896.0 420.9 V 581.6 M 908.0 420.9 V 581.6 M 920.0 420.9 V 581.6 M 932.0 420.9 V 581.6 M 944.0 420.9 V 581.6 M 956.0 420.9 V 581.6 M 968.0 420.9 V 581.6 M 980.0 420.9 V 581.6 M 992.0 420.9 V 581.6 M 1004.0 420.9 V 581.6 M 1016.0 420.9 V 581.6 M 1028.0 420.9 V 581.6 M 1040.0 420.9 V 581.6 M 1052.0 420.9 V 581.6 M 1064.0 420.9 V 581.6 M 1076.0 420.9 V 581.6 M 1088.0 420.9 V 581.6 M 578.0 426.9 H 1098.0 M 578.0 438.9 H 1098.0 M 578.0 450.9 H 1098.0 M 578.0 462.9 H 1098.0 M 578.0 474.9 H 1098.0 M 578.0 486.9 H 1098.0 M 578.0 498.9 H 1098.0 M 578.0 510.9 H 1098.0 M 578.0 522.9 H 1098.0 M 578.0 534.9 H 1098.0 M 578.0 546.9 H 1098.0 M 578.0 558.9 H 1098.0 M 578.0 570.9 H 1098.0" fill="none" stroke="#94a3b8" stroke-width="0.45" opacity="0.18" pointer-events="none"/>
<g opacity="0.42">
<rect x="585.0" y="427.9" width="506.0" height="146.7" fill="none" stroke="#8a8a8a" stroke-dasharray="5 4" stroke-width="0.9"/>
</g>
<text x="838.0" y="501.3" fill="#111827" font-size="12" font-family="Segoe UI, Microsoft JhengHei, sans-serif" font-weight="700" text-anchor="middle" dominant-baseline="middle" paint-order="stroke" stroke="#ffffff" stroke-width="2.4" stroke-linejoin="round">高雄厝陽台（植栽區）</text>
<line x1="58.0" y1="90.0" x2="751.3" y2="90.0" stroke="#111827" stroke-width="4.2"/>
<line x1="58.0" y1="90.0" x2="58.0" y2="194.0" stroke="#111827" stroke-width="4.2"/>
<line x1="751.3" y1="90.0" x2="1098.0" y2="90.0" stroke="#111827" stroke-width="4.2"/>
<line x1="1098.0" y1="90.0" x2="1098.0" y2="194.0" stroke="#111827" stroke-width="4.2"/>
<line x1="58.0" y1="194.0" x2="58.0" y2="316.9" stroke="#111827" stroke-width="4.2"/>
<line x1="1098.0" y1="194.0" x2="1098.0" y2="316.9" stroke="#111827" stroke-width="4.2"/>
<line x1="58.0" y1="316.9" x2="58.0" y2="420.9" stroke="#111827" stroke-width="4.2"/>
<line x1="1098.0" y1="316.9" x2="1098.0" y2="420.9" stroke="#111827" stroke-width="4.2"/>
<line x1="58.0" y1="581.6" x2="578.0" y2="581.6" stroke="#111827" stroke-width="4.2"/>
<line x1="58.0" y1="420.9" x2="58.0" y2="581.6" stroke="#111827" stroke-width="4.2"/>
<line x1="1098.0" y1="420.9" x2="1098.0" y2="581.6" stroke="#111827" stroke-width="4.2"/>
<line x1="578.0" y1="581.6" x2="1098.0" y2="581.6" stroke="#111827" stroke-width="4.2"/>
<line x1="368.7" y1="90.0" x2="440.7" y2="90.0" stroke="#ffffff" stroke-width="6.6"/>
<line x1="369.9" y1="92.8" x2="439.5" y2="92.8" stroke="#2563eb" stroke-width="2.2"/>
<line x1="1098.0" y1="124.0" x2="1098.0" y2="160.0" stroke="#ffffff" stroke-width="6.6"/>
<line x1="1095.2" y1="125.2" x2="1095.2" y2="158.8" stroke="#2563eb" stroke-width="2.2"/>
<line x1="58.0" y1="225.5" x2="58.0" y2="285.5" stroke="#ffffff" stroke-width="6.6"/>
<line x1="60.8" y1="226.7" x2="60.8" y2="284.3" stroke="#2563eb" stroke-width="2.2"/>
<line x1="1098.0" y1="225.5" x2="1098.0" y2="285.5" stroke="#ffffff" stroke-width="6.6"/>
<line x1="1095.2" y1="226.7" x2="1095.2" y2="284.3" stroke="#2563eb" stroke-width="2.2"/>
<line x1="58.0" y1="350.9" x2="58.0" y2="386.9" stroke="#ffffff" stroke-width="6.6"/>
<line x1="60.8" y1="352.1" x2="60.8" y2="385.7" stroke="#2563eb" stroke-width="2.2"/>
<line x1="1098.0" y1="332.9" x2="1098.0" y2="404.9" stroke="#ffffff" stroke-width="6.6"/>
<line x1="1095.2" y1="334.1" x2="1095.2" y2="403.7" stroke="#2563eb" stroke-width="2.2"/>
<line x1="58.0" y1="483.3" x2="58.0" y2="519.3" stroke="#ffffff" stroke-width="6.6"/>
<line x1="60.8" y1="484.5" x2="60.8" y2="518.1" stroke="#2563eb" stroke-width="2.2"/>
<line x1="637.7" y1="194.0" x2="691.7" y2="194.0" stroke="#ffffff" stroke-width="4.8"/>
<line x1="637.7" y1="194.0" x2="637.7" y2="248.0" stroke="#475569" stroke-width="1.2"/>
<path d="M 691.7 194.0 A 54.0 54.0 0 0 0 637.7 248.0" fill="none" stroke="#475569" stroke-width="0.9"/>
<line x1="900.7" y1="194.0" x2="948.7" y2="194.0" stroke="#ffffff" stroke-width="4.8"/>
<line x1="900.7" y1="194.0" x2="900.7" y2="146.0" stroke="#475569" stroke-width="1.2"/>
<path d="M 948.7 194.0 A 48.0 48.0 0 0 1 900.7 146.0" fill="none" stroke="#475569" stroke-width="0.9"/>
<line x1="811.0" y1="316.9" x2="865.0" y2="316.9" stroke="#ffffff" stroke-width="4.8"/>
<line x1="811.0" y1="316.9" x2="811.0" y2="370.9" stroke="#475569" stroke-width="1.2"/>
<path d="M 865.0 316.9 A 54.0 54.0 0 0 0 811.0 370.9" fill="none" stroke="#475569" stroke-width="0.9"/>
<line x1="578.0" y1="228.5" x2="578.0" y2="282.5" stroke="#ffffff" stroke-width="4.8"/>
<line x1="578.0" y1="228.5" x2="524.0" y2="228.5" stroke="#475569" stroke-width="1.2"/>
<path d="M 578.0 282.5 A 54.0 54.0 0 0 0 524.0 228.5" fill="none" stroke="#475569" stroke-width="0.9"/>
<line x1="291.0" y1="316.9" x2="345.0" y2="316.9" stroke="#ffffff" stroke-width="4.8"/>
<line x1="291.0" y1="316.9" x2="291.0" y2="370.9" stroke="#475569" stroke-width="1.2"/>
<path d="M 345.0 316.9 A 54.0 54.0 0 0 0 291.0 370.9" fill="none" stroke="#475569" stroke-width="0.9"/>
<line x1="294.0" y1="420.9" x2="342.0" y2="420.9" stroke="#ffffff" stroke-width="4.8"/>
<line x1="294.0" y1="420.9" x2="294.0" y2="372.9" stroke="#475569" stroke-width="1.2"/>
<path d="M 342.0 420.9 A 48.0 48.0 0 0 1 294.0 372.9" fill="none" stroke="#475569" stroke-width="0.9"/>
<line x1="811.0" y1="420.9" x2="865.0" y2="420.9" stroke="#ffffff" stroke-width="4.8"/>
<line x1="811.0" y1="420.9" x2="811.0" y2="366.9" stroke="#475569" stroke-width="1.2"/>
<path d="M 865.0 420.9 A 54.0 54.0 0 0 1 811.0 366.9" fill="none" stroke="#475569" stroke-width="0.9"/>
<line x1="58.0" y1="128.6" x2="58.0" y2="188.6" stroke="#ffffff" stroke-width="5.4"/>
<polygon points="14.0,198.6 34.0,198.6 24.0,180.6" fill="#475569"/>
<line x1="58.0" y1="603.6" x2="1098.0" y2="603.6" stroke="#9ca3af" stroke-width="0.9"/>
<line x1="58.0" y1="599.6" x2="58.0" y2="607.6" stroke="#9ca3af" stroke-width="0.9"/>
<line x1="1098.0" y1="599.6" x2="1098.0" y2="607.6" stroke="#9ca3af" stroke-width="0.9"/>
<line x1="61.0" y1="600.6" x2="58.0" y2="603.6" stroke="#9ca3af" stroke-width="0.9"/>
<line x1="61.0" y1="606.6" x2="58.0" y2="603.6" stroke="#9ca3af" stroke-width="0.9"/>
<line x1="1095.0" y1="600.6" x2="1098.0" y2="603.6" stroke="#9ca3af" stroke-width="0.9"/>
<line x1="1095.0" y1="606.6" x2="1098.0" y2="603.6" stroke="#9ca3af" stroke-width="0.9"/>
<text x="544.0" y="597.6" fill="#9ca3af" font-size="8" font-family="Segoe UI, Microsoft JhengHei, sans-serif" font-weight="500">DIM:W 11000mm</text>
<line x1="30.0" y1="90.0" x2="30.0" y2="581.6" stroke="#9ca3af" stroke-width="0.9"/>
<line x1="26.0" y1="90.0" x2="34.0" y2="90.0" stroke="#9ca3af" stroke-width="0.9"/>
<line x1="26.0" y1="581.6" x2="34.0" y2="581.6" stroke="#9ca3af" stroke-width="0.9"/>
<line x1="27.0" y1="93.0" x2="30.0" y2="90.0" stroke="#9ca3af" stroke-width="0.9"/>
<line x1="33.0" y1="93.0" x2="30.0" y2="90.0" stroke="#9ca3af" stroke-width="0.9"/>
<line x1="27.0" y1="578.6" x2="30.0" y2="581.6" stroke="#9ca3af" stroke-width="0.9"/>
<line x1="33.0" y1="578.6" x2="30.0" y2="581.6" stroke="#9ca3af" stroke-width="0.9"/>
<text x="37.0" y="335.8" fill="#9ca3af" font-size="8" font-family="Segoe UI, Microsoft JhengHei, sans-serif" font-weight="500">DIM:D 5200mm</text>
<circle cx="1122.0" cy="40.0" r="14.0" fill="#ffffff" stroke="#111827" stroke-width="1.1"/>
<polygon points="1122.0,30.0 1117.0,43.0 1127.0,43.0" fill="#111827"/>
<text x="1112.0" y="64.0" fill="#111827" font-size="10" font-family="Segoe UI, Microsoft JhengHei, sans-serif" font-weight="700">N↑</text>
<text x="58.0" y="639.6" fill="#111827" font-size="9" font-family="Segoe UI, Microsoft JhengHei, sans-serif" font-weight="700">LEGEND:</text>
<rect x="116.0" y="629.6" width="18" height="10" fill="#fffaf3" stroke="#cbd5e1" stroke-width="0.8"/>
<text x="139.0" y="639.6" fill="#64748b" font-size="9" font-family="Segoe UI, Microsoft JhengHei, sans-serif" font-weight="500">公共</text>
<rect x="178.0" y="629.6" width="18" height="10" fill="#f7f8ff" stroke="#cbd5e1" stroke-width="0.8"/>
<text x="201.0" y="639.6" fill="#64748b" font-size="9" font-family="Segoe UI, Microsoft JhengHei, sans-serif" font-weight="500">臥室</text>
<rect x="240.0" y="629.6" width="18" height="10" fill="#f3fdff" stroke="#cbd5e1" stroke-width="0.8"/>
<path data-hatch-kind="bath" d="M 240.0 630.6 L 249.0 639.6 M 248.0 629.6 L 258.0 639.6 M 257.0 629.6 L 258.0 630.6" fill="none" stroke="#94a3b8" stroke-width="0.55" opacity="0.28" pointer-events="none"/>
<text x="263.0" y="639.6" fill="#64748b" font-size="9" font-family="Segoe UI, Microsoft JhengHei, sans-serif" font-weight="500">濕區</text>
<rect x="302.0" y="629.6" width="18" height="10" fill="#f7f9fc" stroke="#cbd5e1" stroke-width="0.8"/>
<path data-hatch-kind="service" d="M 302.0 629.6 L 312.0 639.6 M 312.0 629.6 L 320.0 637.6" fill="none" stroke="#94a3b8" stroke-width="0.50" opacity="0.20" pointer-events="none"/>
<text x="325.0" y="639.6" fill="#64748b" font-size="9" font-family="Segoe UI, Microsoft JhengHei, sans-serif" font-weight="500">設備</text>
<rect x="364.0" y="629.6" width="18" height="10" fill="#f2fbf5" stroke="#cbd5e1" stroke-width="0.8"/>
<path data-hatch-kind="outdoor" d="M 370.0 629.6 V 639.6 M 364.0 635.6 H 382.0" fill="none" stroke="#94a3b8" stroke-width="0.45" opacity="0.18" pointer-events="none"/>
<text x="387.0" y="639.6" fill="#64748b" font-size="9" font-family="Segoe UI, Microsoft JhengHei, sans-serif" font-weight="500">戶外</text>
<line x1="434.0" y1="634.6" x2="462.0" y2="634.6" stroke="#111827" stroke-width="4.2"/>
<text x="470.0" y="639.6" fill="#64748b" font-size="9" font-family="Segoe UI, Microsoft JhengHei, sans-serif" font-weight="500">外牆</text>
<line x1="508.0" y1="634.6" x2="536.0" y2="634.6" stroke="#374151" stroke-width="2.2"/>
<text x="544.0" y="639.6" fill="#64748b" font-size="9" font-family="Segoe UI, Microsoft JhengHei, sans-serif" font-weight="500">內牆</text>
<line x1="582.0" y1="634.6" x2="608.0" y2="634.6" stroke="#2563eb" stroke-width="2.0"/>
<text x="616.0" y="639.6" fill="#64748b" font-size="9" font-family="Segoe UI, Microsoft JhengHei, sans-serif" font-weight="500">窗</text>
<line x1="646.0" y1="634.6" x2="672.0" y2="634.6" stroke="#475569" stroke-width="1.2"/>
<text x="680.0" y="639.6" fill="#64748b" font-size="9" font-family="Segoe UI, Microsoft JhengHei, sans-serif" font-weight="500">門</text>
<text x="58.0" y="705.0" fill="#64748b" font-size="9" font-family="Segoe UI, Microsoft JhengHei, sans-serif" font-weight="400">Generated: 2026-07-10T02:28:50.285635+00:00 | layout-top1-svg-v2 | style=presentation</text>
</svg>