<svg xmlns="http://www.w3.org/2000/svg" width="1162" height="594" viewBox="0 0 1162 594" role="img" aria-label="A floor-4">
<metadata>{&quot;schema_version&quot;: &quot;layout-top1-svg-v2&quot;, &quot;drawing_style&quot;: &quot;presentation&quot;, &quot;presentation_version&quot;: 2, &quot;building_id&quot;: &quot;A&quot;, &quot;floor_id&quot;: &quot;floor-4&quot;, &quot;candidate_id&quot;: &quot;baseline&quot;}</metadata>
<rect x="0" y="0" width="1162" height="594" fill="#f3f4f6"/>
<rect x="40.0" y="62.0" width="1076.0" height="442.7" fill="#ffffff" stroke="#d1d5db" stroke-width="1.1"/>
<rect x="50.0" y="72.0" width="1056.0" height="390.7" fill="none" stroke="#e2e8f0" stroke-width="0.8"/>
<text x="58.0" y="32.0" fill="#111827" font-size="19" font-family="Segoe UI, Microsoft JhengHei, sans-serif" font-weight="700">[A] floor-4 RF</text>
<text x="58.0" y="55.0" fill="#64748b" font-size="12" font-family="Segoe UI, Microsoft JhengHei, sans-serif" font-weight="500">RF 設備層</text>
<rect x="824.0" y="18.0" width="274.0" height="48" fill="#ffffff" stroke="#d1d5db" stroke-width="0.8"/>
<text x="834.0" y="35.0" fill="#111827" font-size="10" font-family="Segoe UI, Microsoft JhengHei, sans-serif" font-weight="700">住宅平面討論圖</text>
<text x="834.0" y="51.0" fill="#64748b" font-size="8" font-family="Segoe UI, Microsoft JhengHei, sans-serif" font-weight="500">Selection: baseline | presentation v2</text>
<text x="1014.0" y="51.0" fill="#64748b" font-size="8" font-family="Segoe UI, Microsoft JhengHei, sans-serif" font-weight="500">Scale: diagram</text>
<rect x="58.0" y="90.0" width="1040.0" height="104.0" fill="#ffffff" stroke="#374151" stroke-width="2.2"/>
<g opacity="0.42">
</g>
<text x="578.0" y="142.0" fill="#111827" font-size="12" font-family="Segoe UI, Microsoft JhengHei, sans-serif" font-weight="700" text-anchor="middle" dominant-baseline="middle" paint-order="stroke" stroke="#ffffff" stroke-width="2.4" stroke-linejoin="round">弱電立管終點/維修孔</text>
<rect x="58.0" y="194.0" width="346.7" height="104.0" fill="#ffffff" stroke="#374151" stroke-width="2.2"/>
<g opacity="0.42">
</g>
<text x="231.3" y="239.0" fill="#111827" font-size="12" font-family="Segoe UI, Microsoft JhengHei, sans-serif" font-weight="700" text-anchor="middle" dominant-baseline="middle" paint-order="stroke" stroke="#ffffff" stroke-width="2.4" stroke-linejoin="round">水塔 WT-L-1000B #304</text>
<text x="231.3" y="257.0" fill="#64748b" font-size="8" font-family="Segoe UI, Microsoft JhengHei, sans-serif" font-weight="500" text-anchor="middle" dominant-baseline="middle" paint-order="stroke" stroke="#ffffff" stroke-width="2.4" stroke-linejoin="round">1000L（約 1 噸載重）</text>
<rect x="404.7" y="194.0" width="346.7" height="104.0" fill="#ffffff" stroke="#374151" stroke-width="2.2"/>
<g opacity="0.42">
</g>
<text x="578.0" y="239.0" fill="#111827" font-size="12" font-family="Segoe UI, Microsoft JhengHei, sans-serif" font-weight="700" text-anchor="middle" dominant-baseline="middle" paint-order="stroke" stroke="#ffffff" stroke-width="2.4" stroke-linejoin="round">VF800 變頻恆壓泵 v8.0 含旁通</text>
<text x="578.0" y="257.0" fill="#64748b" font-size="8" font-family="Segoe UI, Microsoft JhengHei, sans-serif" font-weight="500" text-anchor="middle" dominant-baseline="middle" paint-order="stroke" stroke="#ffffff" stroke-width="2.4" stroke-linejoin="round">冷水全戶供應</text>
<rect x="751.3" y="194.0" width="346.7" height="104.0" fill="#ffffff" stroke="#374151" stroke-width="2.2"/>
<g opacity="0.42">
</g>
<text x="924.7" y="239.0" fill="#111827" font-size="12" font-family="Segoe UI, Microsoft JhengHei, sans-serif" font-weight="700" text-anchor="middle" dominant-baseline="middle" paint-order="stroke" stroke="#ffffff" stroke-width="2.4" stroke-linejoin="round">Haier 太陽能熱泵熱水器</text>
<text x="924.7" y="257.0" fill="#64748b" font-size="8" font-family="Segoe UI, Microsoft JhengHei, sans-serif" font-weight="500" text-anchor="middle" dominant-baseline="middle" paint-order="stroke" stroke="#ffffff" stroke-width="2.4" stroke-linejoin="round">HPSE23W/256T</text>
<rect x="58.0" y="298.0" width="520.0" height="160.7" fill="#f7f9fc" stroke="#374151" stroke-width="2.2"/>
<path data-hatch-kind="service" d="M 58.0 448.7 L 68.0 458.7 M 58.0 438.7 L 78.0 458.7 M 58.0 428.7 L 88.0 458.7 M 58.0 418.7 L 98.0 458.7 M 58.0 408.7 L 108.0 458.7 M 58.0 398.7 L 118.0 458.7 M 58.0 388.7 L 128.0 458.7 M 58.0 378.7 L 138.0 458.7 M 58.0 368.7 L 148.0 458.7 M 58.0 358.7 L 158.0 458.7 M 58.0 348.7 L 168.0 458.7 M 58.0 338.7 L 178.0 458.7 M 58.0 328.7 L 188.0 458.7 M 58.0 318.7 L 198.0 458.7 M 58.0 308.7 L 208.0 458.7 M 58.0 298.7 L 218.0 458.7 M 67.3 298.0 L 228.0 458.7 M 77.3 298.0 L 238.0 458.7 M 87.3 298.0 L 248.0 458.7 M 97.3 298.0 L 258.0 458.7 M 107.3 298.0 L 268.0 458.7 M 117.3 298.0 L 278.0 458.7 M 127.3 298.0 L 288.0 458.7 M 137.3 298.0 L 298.0 458.7 M 147.3 298.0 L 308.0 458.7 M 157.3 298.0 L 318.0 458.7 M 167.3 298.0 L 328.0 458.7 M 177.3 298.0 L 338.0 458.7 M 187.3 298.0 L 348.0 458.7 M 197.3 298.0 L 358.0 458.7 M 207.3 298.0 L 368.0 458.7 M 217.3 298.0 L 378.0 458.7 M 227.3 298.0 L 388.0 458.7 M 237.3 298.0 L 398.0 458.7 M 247.3 298.0 L 408.0 458.7 M 257.3 298.0 L 418.0 458.7 M 267.3 298.0 L 428.0 458.7 M 277.3 298.0 L 438.0 458.7 M 287.3 298.0 L 448.0 458.7 M 297.3 298.0 L 458.0 458.7 M 307.3 298.0 L 468.0 458.7 M 317.3 298.0 L 478.0 458.7 M 327.3 298.0 L 488.0 458.7 M 337.3 298.0 L 498.0 458.7 M 347.3 298.0 L 508.0 458.7 M 357.3 298.0 L 518.0 458.7 M 367.3 298.0 L 528.0 458.7 M 377.3 298.0 L 538.0 458.7 M 387.3 298.0 L 548.0 458.7 M 397.3 298.0 L 558.0 458.7 M 407.3 298.0 L 568.0 458.7 M 417.3 298.0 L 578.0 458.7 M 427.3 298.0 L 578.0 448.7 M 437.3 298.0 L 578.0 438.7 M 447.3 298.0 L 578.0 428.7 M 457.3 298.0 L 578.0 418.7 M 467.3 298.0 L 578.0 408.7 M 477.3 298.0 L 578.0 398.7 M 487.3 298.0 L 578.0 388.7 M 497.3 298.0 L 578.0 378.7 M 507.3 298.0 L 578.0 368.7 M 517.3 298.0 L 578.0 358.7 M 527.3 298.0 L 578.0 348.7 M 537.3 298.0 L 578.0 338.7 M 547.3 298.0 L 578.0 328.7 M 557.3 298.0 L 578.0 318.7 M 567.3 298.0 L 578.0 308.7 M 577.3 298.0 L 578.0 298.7" fill="none" stroke="#94a3b8" stroke-width="0.50" opacity="0.20" pointer-events="none"/>
<g opacity="0.42">
</g>
<text x="318.0" y="378.4" fill="#111827" font-size="12" font-family="Segoe UI, Microsoft JhengHei, sans-serif" font-weight="700" text-anchor="middle" dominant-baseline="middle" paint-order="stroke" stroke="#ffffff" stroke-width="2.4" stroke-linejoin="round">太陽能設備區</text>
<rect x="578.0" y="298.0" width="520.0" height="160.7" fill="#f7f9fc" stroke="#374151" stroke-width="2.2"/>
<path data-hatch-kind="service" d="M 578.0 448.7 L 588.0 458.7 M 578.0 438.7 L 598.0 458.7 M 578.0 428.7 L 608.0 458.7 M 578.0 418.7 L 618.0 458.7 M 578.0 408.7 L 628.0 458.7 M 578.0 398.7 L 638.0 458.7 M 578.0 388.7 L 648.0 458.7 M 578.0 378.7 L 658.0 458.7 M 578.0 368.7 L 668.0 458.7 M 578.0 358.7 L 678.0 458.7 M 578.0 348.7 L 688.0 458.7 M 578.0 338.7 L 698.0 458.7 M 578.0 328.7 L 708.0 458.7 M 578.0 318.7 L 718.0 458.7 M 578.0 308.7 L 728.0 458.7 M 578.0 298.7 L 738.0 458.7 M 587.3 298.0 L 748.0 458.7 M 597.3 298.0 L 758.0 458.7 M 607.3 298.0 L 768.0 458.7 M 617.3 298.0 L 778.0 458.7 M 627.3 298.0 L 788.0 458.7 M 637.3 298.0 L 798.0 458.7 M 647.3 298.0 L 808.0 458.7 M 657.3 298.0 L 818.0 458.7 M 667.3 298.0 L 828.0 458.7 M 677.3 298.0 L 838.0 458.7 M 687.3 298.0 L 848.0 458.7 M 697.3 298.0 L 858.0 458.7 M 707.3 298.0 L 868.0 458.7 M 717.3 298.0 L 878.0 458.7 M 727.3 298.0 L 888.0 458.7 M 737.3 298.0 L 898.0 458.7 M 747.3 298.0 L 908.0 458.7 M 757.3 298.0 L 918.0 458.7 M 767.3 298.0 L 928.0 458.7 M 777.3 298.0 L 938.0 458.7 M 787.3 298.0 L 948.0 458.7 M 797.3 298.0 L 958.0 458.7 M 807.3 298.0 L 968.0 458.7 M 817.3 298.0 L 978.0 458.7 M 827.3 298.0 L 988.0 458.7 M 837.3 298.0 L 998.0 458.7 M 847.3 298.0 L 1008.0 458.7 M 857.3 298.0 L 1018.0 458.7 M 867.3 298.0 L 1028.0 458.7 M 877.3 298.0 L 1038.0 458.7 M 887.3 298.0 L 1048.0 458.7 M 897.3 298.0 L 1058.0 458.7 M 907.3 298.0 L 1068.0 458.7 M 917.3 298.0 L 1078.0 458.7 M 927.3 298.0 L 1088.0 458.7 M 937.3 298.0 L 1098.0 458.7 M 947.3 298.0 L 1098.0 448.7 M 957.3 298.0 L 1098.0 438.7 M 967.3 298.0 L 1098.0 428.7 M 977.3 298.0 L 1098.0 418.7 M 987.3 298.0 L 1098.0 408.7 M 997.3 298.0 L 1098.0 398.7 M 1007.3 298.0 L 1098.0 388.7 M 1017.3 298.0 L 1098.0 378.7 M 1027.3 298.0 L 1098.0 368.7 M 1037.3 298.0 L 1098.0 358.7 M 1047.3 298.0 L 1098.0 348.7 M 1057.3 298.0 L 1098.0 338.7 M 1067.3 298.0 L 1098.0 328.7 M 1077.3 298.0 L 1098.0 318.7 M 1087.3 298.0 L 1098.0 308.7 M 1097.3 298.0 L 1098.0 298.7" fill="none" stroke="#94a3b8" stroke-width="0.50" opacity="0.20" pointer-events="none"/>
<g opacity="0.42">
</g>
<text x="838.0" y="378.4" fill="#111827" font-size="12" font-family="Segoe UI, Microsoft JhengHei, sans-serif" font-weight="700" text-anchor="middle" dominant-baseline="middle" paint-order="stroke" stroke="#ffffff" stroke-width="2.4" stroke-linejoin="round">RF 曬衣／設備維修平台</text>
<line x1="58.0" y1="90.0" x2="1098.0" y2="90.0" stroke="#111827" stroke-width="4.2"/>
<line x1="1098.0" y1="90.0" x2="1098.0" y2="194.0" stroke="#111827" stroke-width="4.2"/>
<line x1="58.0" y1="90.0" x2="58.0" y2="194.0" stroke="#111827" stroke-width="4.2"/>
<line x1="58.0" y1="194.0" x2="58.0" y2="298.0" stroke="#111827" stroke-width="4.2"/>
<line x1="751.4" y1="194.0" x2="751.4" y2="298.0" stroke="#111827" stroke-width="4.2"/>
<line x1="1098.0" y1="194.0" x2="1098.0" y2="298.0" stroke="#111827" stroke-width="4.2"/>
<line x1="751.3" y1="194.0" x2="751.3" y2="298.0" stroke="#111827" stroke-width="4.2"/>
<line x1="58.0" y1="458.7" x2="578.0" y2="458.7" stroke="#111827" stroke-width="4.2"/>
<line x1="58.0" y1="298.0" x2="58.0" y2="458.7" stroke="#111827" stroke-width="4.2"/>
<line x1="1098.0" y1="298.0" x2="1098.0" y2="458.7" stroke="#111827" stroke-width="4.2"/>
<line x1="578.0" y1="458.7" x2="1098.0" y2="458.7" stroke="#111827" stroke-width="4.2"/>
<g data-marker="window">
<line x1="560.0" y1="90.0" x2="596.0" y2="90.0" stroke="#ffffff" stroke-width="6.6"/>
<line x1="561.2" y1="92.8" x2="594.8" y2="92.8" stroke="#2563eb" stroke-width="2.2"/>
</g>
<g data-marker="window">
<line x1="58.0" y1="228.0" x2="58.0" y2="264.0" stroke="#ffffff" stroke-width="6.6"/>
<line x1="60.8" y1="229.2" x2="60.8" y2="262.8" stroke="#2563eb" stroke-width="2.2"/>
</g>
<g data-marker="window">
<line x1="751.4" y1="228.0" x2="751.4" y2="264.0" stroke="#ffffff" stroke-width="6.6"/>
<line x1="748.6" y1="229.2" x2="748.6" y2="262.8" stroke="#2563eb" stroke-width="2.2"/>
</g>
<g data-marker="window">
<line x1="1098.0" y1="216.0" x2="1098.0" y2="276.0" stroke="#ffffff" stroke-width="6.6"/>
<line x1="1095.2" y1="217.2" x2="1095.2" y2="274.8" stroke="#2563eb" stroke-width="2.2"/>
</g>
<g data-marker="window">
<line x1="58.0" y1="360.4" x2="58.0" y2="396.4" stroke="#ffffff" stroke-width="6.6"/>
<line x1="60.8" y1="361.6" x2="60.8" y2="395.2" stroke="#2563eb" stroke-width="2.2"/>
</g>
<g data-marker="window">
<line x1="1098.0" y1="360.4" x2="1098.0" y2="396.4" stroke="#ffffff" stroke-width="6.6"/>
<line x1="1095.2" y1="361.6" x2="1095.2" y2="395.2" stroke="#2563eb" stroke-width="2.2"/>
</g>
<g data-marker="door">
<line x1="207.3" y1="194.0" x2="255.3" y2="194.0" stroke="#ffffff" stroke-width="4.8"/>
<line x1="207.3" y1="194.0" x2="207.3" y2="242.0" stroke="#475569" stroke-width="1.2"/>
<path d="M 255.3 194.0 A 48.0 48.0 0 0 0 207.3 242.0" fill="none" stroke="#475569" stroke-width="0.9"/>
</g>
<g data-marker="door">
<line x1="554.0" y1="194.0" x2="602.0" y2="194.0" stroke="#ffffff" stroke-width="4.8"/>
<line x1="554.0" y1="194.0" x2="554.0" y2="242.0" stroke="#475569" stroke-width="1.2"/>
<path d="M 602.0 194.0 A 48.0 48.0 0 0 0 554.0 242.0" fill="none" stroke="#475569" stroke-width="0.9"/>
</g>
<g data-marker="door">
<line x1="900.7" y1="194.0" x2="948.7" y2="194.0" stroke="#ffffff" stroke-width="4.8"/>
<line x1="900.7" y1="194.0" x2="900.7" y2="242.0" stroke="#475569" stroke-width="1.2"/>
<path d="M 948.7 194.0 A 48.0 48.0 0 0 0 900.7 242.0" fill="none" stroke="#475569" stroke-width="0.9"/>
</g>
<g data-marker="door">
<line x1="207.3" y1="298.0" x2="255.3" y2="298.0" stroke="#ffffff" stroke-width="4.8"/>
<line x1="207.3" y1="298.0" x2="207.3" y2="250.0" stroke="#475569" stroke-width="1.2"/>
<path d="M 255.3 298.0 A 48.0 48.0 0 0 1 207.3 250.0" fill="none" stroke="#475569" stroke-width="0.9"/>
</g>
<g data-marker="door">
<line x1="897.7" y1="298.0" x2="951.7" y2="298.0" stroke="#ffffff" stroke-width="4.8"/>
<line x1="897.7" y1="298.0" x2="897.7" y2="244.0" stroke="#475569" stroke-width="1.2"/>
<path d="M 951.7 298.0 A 54.0 54.0 0 0 1 897.7 244.0" fill="none" stroke="#475569" stroke-width="0.9"/>
</g>
<g data-marker="entrance">
<line x1="1098.0" y1="128.6" x2="1098.0" y2="188.6" stroke="#ffffff" stroke-width="5.4"/>
<polygon points="1122.0,198.6 1142.0,198.6 1132.0,180.6" fill="#475569"/>
</g>
<line x1="58.0" y1="480.7" x2="1098.0" y2="480.7" stroke="#9ca3af" stroke-width="0.9"/>
<line x1="58.0" y1="476.7" x2="58.0" y2="484.7" stroke="#9ca3af" stroke-width="0.9"/>
<line x1="1098.0" y1="476.7" x2="1098.0" y2="484.7" stroke="#9ca3af" stroke-width="0.9"/>
<line x1="61.0" y1="477.7" x2="58.0" y2="480.7" stroke="#9ca3af" stroke-width="0.9"/>
<line x1="61.0" y1="483.7" x2="58.0" y2="480.7" stroke="#9ca3af" stroke-width="0.9"/>
<line x1="1095.0" y1="477.7" x2="1098.0" y2="480.7" stroke="#9ca3af" stroke-width="0.9"/>
<line x1="1095.0" y1="483.7" x2="1098.0" y2="480.7" stroke="#9ca3af" stroke-width="0.9"/>
<text x="544.0" y="474.7" fill="#9ca3af" font-size="8" font-family="Segoe UI, Microsoft JhengHei, sans-serif" font-weight="500">DIM:W 11000mm</text>
<line x1="30.0" y1="90.0" x2="30.0" y2="458.7" stroke="#9ca3af" stroke-width="0.9"/>
<line x1="26.0" y1="90.0" x2="34.0" y2="90.0" stroke="#9ca3af" stroke-width="0.9"/>
<line x1="26.0" y1="458.7" x2="34.0" y2="458.7" stroke="#9ca3af" stroke-width="0.9"/>
<line x1="27.0" y1="93.0" x2="30.0" y2="90.0" stroke="#9ca3af" stroke-width="0.9"/>
<line x1="33.0" y1="93.0" x2="30.0" y2="90.0" stroke="#9ca3af" stroke-width="0.9"/>
<line x1="27.0" y1="455.7" x2="30.0" y2="458.7" stroke="#9ca3af" stroke-width="0.9"/>
<line x1="33.0" y1="455.7" x2="30.0" y2="458.7" stroke="#9ca3af" stroke-width="0.9"/>
<text x="37.0" y="274.4" fill="#9ca3af" font-size="8" font-family="Segoe UI, Microsoft JhengHei, sans-serif" font-weight="500">DIM:D 3900mm</text>
<circle cx="1122.0" cy="40.0" r="14.0" fill="#ffffff" stroke="#111827" stroke-width="1.1"/>
<polygon points="1122.0,30.0 1117.0,43.0 1127.0,43.0" fill="#111827"/>
<text x="1112.0" y="64.0" fill="#111827" font-size="10" font-family="Segoe UI, Microsoft JhengHei, sans-serif" font-weight="700">N↑</text>
<text x="58.0" y="516.7" fill="#111827" font-size="9" font-family="Segoe UI, Microsoft JhengHei, sans-serif" font-weight="700">LEGEND:</text>
<rect x="116.0" y="506.7" width="18" height="10" fill="#fffaf3" stroke="#cbd5e1" stroke-width="0.8"/>
<text x="139.0" y="516.7" fill="#64748b" font-size="9" font-family="Segoe UI, Microsoft JhengHei, sans-serif" font-weight="500">公共</text>
<rect x="178.0" y="506.7" width="18" height="10" fill="#f7f8ff" stroke="#cbd5e1" stroke-width="0.8"/>
<text x="201.0" y="516.7" fill="#64748b" font-size="9" font-family="Segoe UI, Microsoft JhengHei, sans-serif" font-weight="500">臥室</text>
<rect x="240.0" y="506.7" width="18" height="10" fill="#f3fdff" stroke="#cbd5e1" stroke-width="0.8"/>
<path data-hatch-kind="bath" d="M 240.0 507.7 L 249.0 516.7 M 248.0 506.7 L 258.0 516.7 M 257.0 506.7 L 258.0 507.7" fill="none" stroke="#94a3b8" stroke-width="0.55" opacity="0.28" pointer-events="none"/>
<text x="263.0" y="516.7" fill="#64748b" font-size="9" font-family="Segoe UI, Microsoft JhengHei, sans-serif" font-weight="500">濕區</text>
<rect x="302.0" y="506.7" width="18" height="10" fill="#f7f9fc" stroke="#cbd5e1" stroke-width="0.8"/>
<path data-hatch-kind="service" d="M 302.0 506.7 L 312.0 516.7 M 312.0 506.7 L 320.0 514.7" fill="none" stroke="#94a3b8" stroke-width="0.50" opacity="0.20" pointer-events="none"/>
<text x="325.0" y="516.7" fill="#64748b" font-size="9" font-family="Segoe UI, Microsoft JhengHei, sans-serif" font-weight="500">設備</text>
<rect x="364.0" y="506.7" width="18" height="10" fill="#f2fbf5" stroke="#cbd5e1" stroke-width="0.8"/>
<path data-hatch-kind="outdoor" d="M 370.0 506.7 V 516.7 M 364.0 512.7 H 382.0" fill="none" stroke="#94a3b8" stroke-width="0.45" opacity="0.18" pointer-events="none"/>
<text x="387.0" y="516.7" fill="#64748b" font-size="9" font-family="Segoe UI, Microsoft JhengHei, sans-serif" font-weight="500">戶外</text>
<line x1="434.0" y1="511.7" x2="462.0" y2="511.7" stroke="#111827" stroke-width="4.2"/>
<text x="470.0" y="516.7" fill="#64748b" font-size="9" font-family="Segoe UI, Microsoft JhengHei, sans-serif" font-weight="500">外牆</text>
<line x1="508.0" y1="511.7" x2="536.0" y2="511.7" stroke="#374151" stroke-width="2.2"/>
<text x="544.0" y="516.7" fill="#64748b" font-size="9" font-family="Segoe UI, Microsoft JhengHei, sans-serif" font-weight="500">內牆</text>
<line x1="582.0" y1="511.7" x2="608.0" y2="511.7" stroke="#2563eb" stroke-width="2.0"/>
<text x="616.0" y="516.7" fill="#64748b" font-size="9" font-family="Segoe UI, Microsoft JhengHei, sans-serif" font-weight="500">窗</text>
<line x1="646.0" y1="511.7" x2="672.0" y2="511.7" stroke="#475569" stroke-width="1.2"/>
<text x="680.0" y="516.7" fill="#64748b" font-size="9" font-family="Segoe UI, Microsoft JhengHei, sans-serif" font-weight="500">門</text>
<text x="58.0" y="582.0" fill="#64748b" font-size="9" font-family="Segoe UI, Microsoft JhengHei, sans-serif" font-weight="400">Generated: 2026-07-23T07:14:04.724335+00:00 | layout-top1-svg-v2 | style=presentation</text>
</svg>