<svg xmlns="http://www.w3.org/2000/svg" width="1162" height="594" viewBox="0 0 1162 594" role="img" aria-label="A floor-4">
<metadata>{&quot;schema_version&quot;: &quot;layout-top1-svg-v2&quot;, &quot;drawing_style&quot;: &quot;presentation&quot;, &quot;presentation_version&quot;: 2, &quot;building_id&quot;: &quot;A&quot;, &quot;floor_id&quot;: &quot;floor-4&quot;, &quot;candidate_id&quot;: &quot;mep&quot;, &quot;validation_markers&quot;: [&quot;ENT&quot;, &quot;DW:&quot;, &quot;WIN:&quot;, &quot;DIM:&quot;, &quot;LEGEND:&quot;, &quot;ELEV:&quot;]}</metadata>

<defs>
  <pattern id="p2-bath-hatch" patternUnits="userSpaceOnUse" width="9" height="9" patternTransform="rotate(45)">
    <rect width="9" height="9" fill="#f3fdff"/>
    <line x1="0" y1="0" x2="0" y2="9" stroke="#94a3b8" stroke-width="0.55" opacity="0.28"/>
  </pattern>
  <pattern id="p2-service-hatch" patternUnits="userSpaceOnUse" width="10" height="10">
    <rect width="10" height="10" fill="#f7f9fc"/>
    <path d="M 0 10 L 10 0" stroke="#94a3b8" stroke-width="0.5" opacity="0.20"/>
  </pattern>
  <pattern id="p2-outdoor-hatch" patternUnits="userSpaceOnUse" width="12" height="12">
    <rect width="12" height="12" fill="#f2fbf5"/>
    <path d="M 0 6 H 12 M 6 0 V 12" stroke="#94a3b8" stroke-width="0.45" opacity="0.18"/>
  </pattern>
</defs>

<rect x="0" y="0" width="1162" height="594" fill="#f3f4f6"/>
<rect x="40.0" y="62.0" width="1076.0" height="442.7" fill="#ffffff" stroke="#d1d5db" stroke-width="1.1"/>
<rect x="50.0" y="72.0" width="1056.0" height="390.7" fill="none" stroke="#e2e8f0" stroke-width="0.8"/>
<text x="58.0" y="32.0" fill="#111827" font-size="19" font-family="Segoe UI, Microsoft JhengHei, sans-serif" font-weight="700">[A] floor-4 RF</text>
<text x="58.0" y="55.0" fill="#64748b" font-size="12" font-family="Segoe UI, Microsoft JhengHei, sans-serif" font-weight="500">RF 設備層</text>
<rect x="824.0" y="18.0" width="274.0" height="48" fill="#ffffff" stroke="#d1d5db" stroke-width="0.8"/>
<text x="834.0" y="35.0" fill="#111827" font-size="10" font-family="Segoe UI, Microsoft JhengHei, sans-serif" font-weight="700">住宅平面討論圖</text>
<text x="834.0" y="51.0" fill="#64748b" font-size="8" font-family="Segoe UI, Microsoft JhengHei, sans-serif" font-weight="500">Selection: mep | presentation v2</text>
<text x="1014.0" y="51.0" fill="#64748b" font-size="8" font-family="Segoe UI, Microsoft JhengHei, sans-serif" font-weight="500">Scale: diagram</text>
<rect x="58.0" y="90.0" width="1040.0" height="104.0" fill="url(#p2-service-hatch)" stroke="#374151" stroke-width="2.2"/>
<g opacity="0.42">
</g>
<text x="578.0" y="142.0" fill="#111827" font-size="12" font-family="Segoe UI, Microsoft JhengHei, sans-serif" font-weight="700" text-anchor="middle" dominant-baseline="middle" paint-order="stroke" stroke="#ffffff" stroke-width="2.4" stroke-linejoin="round">太陽能設備區</text>
<rect x="58.0" y="194.0" width="346.7" height="104.0" fill="#ffffff" stroke="#374151" stroke-width="2.2"/>
<g opacity="0.42">
</g>
<text x="231.3" y="239.0" fill="#111827" font-size="12" font-family="Segoe UI, Microsoft JhengHei, sans-serif" font-weight="700" text-anchor="middle" dominant-baseline="middle" paint-order="stroke" stroke="#ffffff" stroke-width="2.4" stroke-linejoin="round">Haier 太陽能熱泵熱水器</text>
<text x="231.3" y="257.0" fill="#64748b" font-size="8" font-family="Segoe UI, Microsoft JhengHei, sans-serif" font-weight="500" text-anchor="middle" dominant-baseline="middle" paint-order="stroke" stroke="#ffffff" stroke-width="2.4" stroke-linejoin="round">HPSE23W/256T</text>
<rect x="404.7" y="194.0" width="346.7" height="104.0" fill="#ffffff" stroke="#374151" stroke-width="2.2"/>
<g opacity="0.42">
</g>
<text x="578.0" y="239.0" fill="#111827" font-size="12" font-family="Segoe UI, Microsoft JhengHei, sans-serif" font-weight="700" text-anchor="middle" dominant-baseline="middle" paint-order="stroke" stroke="#ffffff" stroke-width="2.4" stroke-linejoin="round">水塔 WT-L-1000B #304</text>
<text x="578.0" y="257.0" fill="#64748b" font-size="8" font-family="Segoe UI, Microsoft JhengHei, sans-serif" font-weight="500" text-anchor="middle" dominant-baseline="middle" paint-order="stroke" stroke="#ffffff" stroke-width="2.4" stroke-linejoin="round">1000L（約 1 噸載重）</text>
<rect x="751.3" y="194.0" width="346.7" height="104.0" fill="url(#p2-outdoor-hatch)" stroke="#374151" stroke-width="2.2"/>
<g opacity="0.42">
<rect x="758.3" y="201.0" width="332.7" height="90.0" fill="none" stroke="#8a8a8a" stroke-dasharray="5 4" stroke-width="0.9"/>
</g>
<text x="924.7" y="239.0" fill="#111827" font-size="12" font-family="Segoe UI, Microsoft JhengHei, sans-serif" font-weight="700" text-anchor="middle" dominant-baseline="middle" paint-order="stroke" stroke="#ffffff" stroke-width="2.4" stroke-linejoin="round">曬衣區/露台</text>
<text x="924.7" y="257.0" fill="#64748b" font-size="8" font-family="Segoe UI, Microsoft JhengHei, sans-serif" font-weight="500" text-anchor="middle" dominant-baseline="middle" paint-order="stroke" stroke="#ffffff" stroke-width="2.4" stroke-linejoin="round">HPSE23W/256T</text>
<rect x="58.0" y="298.0" width="520.0" height="160.7" fill="#ffffff" stroke="#374151" stroke-width="2.2"/>
<g opacity="0.42">
</g>
<text x="318.0" y="378.4" fill="#111827" font-size="12" font-family="Segoe UI, Microsoft JhengHei, sans-serif" font-weight="700" text-anchor="middle" dominant-baseline="middle" paint-order="stroke" stroke="#ffffff" stroke-width="2.4" stroke-linejoin="round">弱電立管終點/維修孔</text>
<rect x="578.0" y="298.0" width="520.0" height="160.7" fill="#ffffff" stroke="#374151" stroke-width="2.2"/>
<g opacity="0.42">
</g>
<text x="838.0" y="371.4" fill="#111827" font-size="12" font-family="Segoe UI, Microsoft JhengHei, sans-serif" font-weight="700" text-anchor="middle" dominant-baseline="middle" paint-order="stroke" stroke="#ffffff" stroke-width="2.4" stroke-linejoin="round">VF800 變頻恆壓泵 v8.0 含旁通</text>
<text x="838.0" y="389.4" fill="#64748b" font-size="8" font-family="Segoe UI, Microsoft JhengHei, sans-serif" font-weight="500" text-anchor="middle" dominant-baseline="middle" paint-order="stroke" stroke="#ffffff" stroke-width="2.4" stroke-linejoin="round">冷水全戶供應</text>
<line x1="58.0" y1="90.0" x2="1098.0" y2="90.0" stroke="#111827" stroke-width="4.2"/>
<line x1="1098.0" y1="90.0" x2="1098.0" y2="194.0" stroke="#111827" stroke-width="4.2"/>
<line x1="58.0" y1="90.0" x2="58.0" y2="194.0" stroke="#111827" stroke-width="4.2"/>
<line x1="58.0" y1="194.0" x2="58.0" y2="298.0" stroke="#111827" stroke-width="4.2"/>
<line x1="751.4" y1="194.0" x2="751.4" y2="298.0" stroke="#111827" stroke-width="4.2"/>
<line x1="1098.0" y1="194.0" x2="1098.0" y2="298.0" stroke="#111827" stroke-width="4.2"/>
<line x1="751.3" y1="194.0" x2="751.3" y2="298.0" stroke="#111827" stroke-width="4.2"/>
<line x1="58.0" y1="458.7" x2="578.0" y2="458.7" stroke="#111827" stroke-width="4.2"/>
<line x1="58.0" y1="298.0" x2="58.0" y2="458.7" stroke="#111827" stroke-width="4.2"/>
<line x1="1098.0" y1="298.0" x2="1098.0" y2="458.7" stroke="#111827" stroke-width="4.2"/>
<line x1="578.0" y1="458.7" x2="1098.0" y2="458.7" stroke="#111827" stroke-width="4.2"/>
<line x1="560.0" y1="90.0" x2="596.0" y2="90.0" stroke="#ffffff" stroke-width="6.6"/>
<line x1="561.2" y1="92.8" x2="594.8" y2="92.8" stroke="#2563eb" stroke-width="2.2"/>
<line x1="58.0" y1="228.0" x2="58.0" y2="264.0" stroke="#ffffff" stroke-width="6.6"/>
<line x1="60.8" y1="229.2" x2="60.8" y2="262.8" stroke="#2563eb" stroke-width="2.2"/>
<line x1="751.4" y1="228.0" x2="751.4" y2="264.0" stroke="#ffffff" stroke-width="6.6"/>
<line x1="748.6" y1="229.2" x2="748.6" y2="262.8" stroke="#2563eb" stroke-width="2.2"/>
<line x1="300.0" y1="458.7" x2="336.0" y2="458.7" stroke="#ffffff" stroke-width="6.6"/>
<line x1="301.2" y1="455.9" x2="334.8" y2="455.9" stroke="#2563eb" stroke-width="2.2"/>
<line x1="1098.0" y1="348.4" x2="1098.0" y2="408.4" stroke="#ffffff" stroke-width="6.6"/>
<line x1="1095.2" y1="349.6" x2="1095.2" y2="407.2" stroke="#2563eb" stroke-width="2.2"/>
<line x1="207.3" y1="194.0" x2="255.3" y2="194.0" stroke="#ffffff" stroke-width="4.8"/>
<line x1="207.3" y1="194.0" x2="207.3" y2="242.0" stroke="#475569" stroke-width="1.2"/>
<path d="M 255.3 194.0 A 48.0 48.0 0 0 0 207.3 242.0" fill="none" stroke="#475569" stroke-width="0.9"/>
<line x1="554.0" y1="194.0" x2="602.0" y2="194.0" stroke="#ffffff" stroke-width="4.8"/>
<line x1="554.0" y1="194.0" x2="554.0" y2="242.0" stroke="#475569" stroke-width="1.2"/>
<path d="M 602.0 194.0 A 48.0 48.0 0 0 0 554.0 242.0" fill="none" stroke="#475569" stroke-width="0.9"/>
<line x1="900.7" y1="194.0" x2="948.7" y2="194.0" stroke="#ffffff" stroke-width="4.8"/>
<line x1="900.7" y1="194.0" x2="900.7" y2="242.0" stroke="#475569" stroke-width="1.2"/>
<path d="M 948.7 194.0 A 48.0 48.0 0 0 0 900.7 242.0" fill="none" stroke="#475569" stroke-width="0.9"/>
<line x1="207.3" y1="298.0" x2="255.3" y2="298.0" stroke="#ffffff" stroke-width="4.8"/>
<line x1="207.3" y1="298.0" x2="207.3" y2="250.0" stroke="#475569" stroke-width="1.2"/>
<path d="M 255.3 298.0 A 48.0 48.0 0 0 1 207.3 250.0" fill="none" stroke="#475569" stroke-width="0.9"/>
<line x1="897.7" y1="298.0" x2="951.7" y2="298.0" stroke="#ffffff" stroke-width="4.8"/>
<line x1="897.7" y1="298.0" x2="897.7" y2="244.0" stroke="#475569" stroke-width="1.2"/>
<path d="M 951.7 298.0 A 54.0 54.0 0 0 1 897.7 244.0" fill="none" stroke="#475569" stroke-width="0.9"/>
<line x1="1098.0" y1="128.6" x2="1098.0" y2="188.6" stroke="#ffffff" stroke-width="5.4"/>
<polygon points="1122.0,198.6 1142.0,198.6 1132.0,180.6" fill="#475569"/>
<line x1="58.0" y1="480.7" x2="1098.0" y2="480.7" stroke="#9ca3af" stroke-width="0.9"/>
<line x1="58.0" y1="476.7" x2="58.0" y2="484.7" stroke="#9ca3af" stroke-width="0.9"/>
<line x1="1098.0" y1="476.7" x2="1098.0" y2="484.7" stroke="#9ca3af" stroke-width="0.9"/>
<line x1="61.0" y1="477.7" x2="58.0" y2="480.7" stroke="#9ca3af" stroke-width="0.9"/>
<line x1="61.0" y1="483.7" x2="58.0" y2="480.7" stroke="#9ca3af" stroke-width="0.9"/>
<line x1="1095.0" y1="477.7" x2="1098.0" y2="480.7" stroke="#9ca3af" stroke-width="0.9"/>
<line x1="1095.0" y1="483.7" x2="1098.0" y2="480.7" stroke="#9ca3af" stroke-width="0.9"/>
<text x="544.0" y="474.7" fill="#9ca3af" font-size="8" font-family="Segoe UI, Microsoft JhengHei, sans-serif" font-weight="500">DIM:W 11000mm</text>
<line x1="30.0" y1="90.0" x2="30.0" y2="458.7" stroke="#9ca3af" stroke-width="0.9"/>
<line x1="26.0" y1="90.0" x2="34.0" y2="90.0" stroke="#9ca3af" stroke-width="0.9"/>
<line x1="26.0" y1="458.7" x2="34.0" y2="458.7" stroke="#9ca3af" stroke-width="0.9"/>
<line x1="27.0" y1="93.0" x2="30.0" y2="90.0" stroke="#9ca3af" stroke-width="0.9"/>
<line x1="33.0" y1="93.0" x2="30.0" y2="90.0" stroke="#9ca3af" stroke-width="0.9"/>
<line x1="27.0" y1="455.7" x2="30.0" y2="458.7" stroke="#9ca3af" stroke-width="0.9"/>
<line x1="33.0" y1="455.7" x2="30.0" y2="458.7" stroke="#9ca3af" stroke-width="0.9"/>
<text x="37.0" y="274.4" fill="#9ca3af" font-size="8" font-family="Segoe UI, Microsoft JhengHei, sans-serif" font-weight="500">DIM:D 3900mm</text>
<circle cx="1122.0" cy="40.0" r="14.0" fill="#ffffff" stroke="#111827" stroke-width="1.1"/>
<polygon points="1122.0,30.0 1117.0,43.0 1127.0,43.0" fill="#111827"/>
<text x="1112.0" y="64.0" fill="#111827" font-size="10" font-family="Segoe UI, Microsoft JhengHei, sans-serif" font-weight="700">N↑</text>
<text x="58.0" y="516.7" fill="#111827" font-size="9" font-family="Segoe UI, Microsoft JhengHei, sans-serif" font-weight="700">LEGEND:</text>
<rect x="116.0" y="506.7" width="18" height="10" fill="#fffaf3" stroke="#cbd5e1" stroke-width="0.8"/>
<text x="139.0" y="516.7" fill="#64748b" font-size="9" font-family="Segoe UI, Microsoft JhengHei, sans-serif" font-weight="500">公共</text>
<rect x="178.0" y="506.7" width="18" height="10" fill="#f7f8ff" stroke="#cbd5e1" stroke-width="0.8"/>
<text x="201.0" y="516.7" fill="#64748b" font-size="9" font-family="Segoe UI, Microsoft JhengHei, sans-serif" font-weight="500">臥室</text>
<rect x="240.0" y="506.7" width="18" height="10" fill="url(#p2-bath-hatch)" stroke="#cbd5e1" stroke-width="0.8"/>
<text x="263.0" y="516.7" fill="#64748b" font-size="9" font-family="Segoe UI, Microsoft JhengHei, sans-serif" font-weight="500">濕區</text>
<rect x="302.0" y="506.7" width="18" height="10" fill="url(#p2-service-hatch)" stroke="#cbd5e1" stroke-width="0.8"/>
<text x="325.0" y="516.7" fill="#64748b" font-size="9" font-family="Segoe UI, Microsoft JhengHei, sans-serif" font-weight="500">設備</text>
<rect x="364.0" y="506.7" width="18" height="10" fill="url(#p2-outdoor-hatch)" stroke="#cbd5e1" stroke-width="0.8"/>
<text x="387.0" y="516.7" fill="#64748b" font-size="9" font-family="Segoe UI, Microsoft JhengHei, sans-serif" font-weight="500">戶外</text>
<line x1="434.0" y1="511.7" x2="462.0" y2="511.7" stroke="#111827" stroke-width="4.2"/>
<text x="470.0" y="516.7" fill="#64748b" font-size="9" font-family="Segoe UI, Microsoft JhengHei, sans-serif" font-weight="500">外牆</text>
<line x1="508.0" y1="511.7" x2="536.0" y2="511.7" stroke="#374151" stroke-width="2.2"/>
<text x="544.0" y="516.7" fill="#64748b" font-size="9" font-family="Segoe UI, Microsoft JhengHei, sans-serif" font-weight="500">內牆</text>
<line x1="582.0" y1="511.7" x2="608.0" y2="511.7" stroke="#2563eb" stroke-width="2.0"/>
<text x="616.0" y="516.7" fill="#64748b" font-size="9" font-family="Segoe UI, Microsoft JhengHei, sans-serif" font-weight="500">窗</text>
<line x1="646.0" y1="511.7" x2="672.0" y2="511.7" stroke="#475569" stroke-width="1.2"/>
<text x="680.0" y="516.7" fill="#64748b" font-size="9" font-family="Segoe UI, Microsoft JhengHei, sans-serif" font-weight="500">門</text>
<text x="58.0" y="582.0" fill="#64748b" font-size="9" font-family="Segoe UI, Microsoft JhengHei, sans-serif" font-weight="400">Generated: 2026-07-08T01:40:17.279825+00:00 | layout-top1-svg-v2 | style=presentation</text>
</svg>