<svg xmlns="http://www.w3.org/2000/svg" width="1162" height="717" viewBox="0 0 1162 717" role="img" aria-label="A floor-3">
<metadata>{&quot;schema_version&quot;: &quot;layout-top1-svg-v2&quot;, &quot;drawing_style&quot;: &quot;presentation&quot;, &quot;presentation_version&quot;: 2, &quot;building_id&quot;: &quot;A&quot;, &quot;floor_id&quot;: &quot;floor-3&quot;, &quot;candidate_id&quot;: &quot;mep&quot;, &quot;validation_markers&quot;: [&quot;ENT&quot;, &quot;DW:&quot;, &quot;WIN:&quot;, &quot;DIM:&quot;, &quot;LEGEND:&quot;, &quot;ELEV:&quot;]}</metadata>

<defs>
  <pattern id="p2-bath-hatch" patternUnits="userSpaceOnUse" width="9" height="9" patternTransform="rotate(45)">
    <rect width="9" height="9" fill="#f3fdff"/>
    <line x1="0" y1="0" x2="0" y2="9" stroke="#94a3b8" stroke-width="0.55" opacity="0.28"/>
  </pattern>
  <pattern id="p2-service-hatch" patternUnits="userSpaceOnUse" width="10" height="10">
    <rect width="10" height="10" fill="#f7f9fc"/>
    <path d="M 0 10 L 10 0" stroke="#94a3b8" stroke-width="0.5" opacity="0.20"/>
  </pattern>
  <pattern id="p2-outdoor-hatch" patternUnits="userSpaceOnUse" width="12" height="12">
    <rect width="12" height="12" fill="#f2fbf5"/>
    <path d="M 0 6 H 12 M 6 0 V 12" stroke="#94a3b8" stroke-width="0.45" opacity="0.18"/>
  </pattern>
</defs>

<rect x="0" y="0" width="1162" height="717" fill="#f3f4f6"/>
<rect x="40.0" y="62.0" width="1076.0" height="565.6" fill="#ffffff" stroke="#d1d5db" stroke-width="1.1"/>
<rect x="50.0" y="72.0" width="1056.0" height="513.6" fill="none" stroke="#e2e8f0" stroke-width="0.8"/>
<text x="58.0" y="32.0" fill="#111827" font-size="19" font-family="Segoe UI, Microsoft JhengHei, sans-serif" font-weight="700">[A] floor-3 3F</text>
<text x="58.0" y="55.0" fill="#64748b" font-size="12" font-family="Segoe UI, Microsoft JhengHei, sans-serif" font-weight="500">3F 娛樂</text>
<rect x="824.0" y="18.0" width="274.0" height="48" fill="#ffffff" stroke="#d1d5db" stroke-width="0.8"/>
<text x="834.0" y="35.0" fill="#111827" font-size="10" font-family="Segoe UI, Microsoft JhengHei, sans-serif" font-weight="700">住宅平面討論圖</text>
<text x="834.0" y="51.0" fill="#64748b" font-size="8" font-family="Segoe UI, Microsoft JhengHei, sans-serif" font-weight="500">Selection: mep | presentation v2</text>
<text x="1014.0" y="51.0" fill="#64748b" font-size="8" font-family="Segoe UI, Microsoft JhengHei, sans-serif" font-weight="500">Scale: diagram</text>
<rect x="58.0" y="90.0" width="1040.0" height="104.0" fill="#ffffff" stroke="#374151" stroke-width="2.2"/>
<g opacity="0.42">
</g>
<text x="578.0" y="135.0" fill="#111827" font-size="12" font-family="Segoe UI, Microsoft JhengHei, sans-serif" font-weight="700" text-anchor="middle" dominant-baseline="middle" paint-order="stroke" stroke="#ffffff" stroke-width="2.4" stroke-linejoin="round">娛樂室/家庭劇院</text>
<text x="578.0" y="153.0" fill="#64748b" font-size="8" font-family="Segoe UI, Microsoft JhengHei, sans-serif" font-weight="500" text-anchor="middle" dominant-baseline="middle" paint-order="stroke" stroke="#ffffff" stroke-width="2.4" stroke-linejoin="round">約 6–8 坪</text>
<rect x="58.0" y="194.0" width="624.0" height="104.0" fill="#f8fafc" stroke="#374151" stroke-width="2.2"/>
<g opacity="0.42">
<line x1="68.0" y1="210.0" x2="672.0" y2="210.0" stroke="#64748b" stroke-width="0.9"/>
<line x1="68.0" y1="220.3" x2="672.0" y2="220.3" stroke="#64748b" stroke-width="0.9"/>
<line x1="68.0" y1="230.6" x2="672.0" y2="230.6" stroke="#64748b" stroke-width="0.9"/>
<line x1="68.0" y1="240.9" x2="672.0" y2="240.9" stroke="#64748b" stroke-width="0.9"/>
<line x1="68.0" y1="251.1" x2="672.0" y2="251.1" stroke="#64748b" stroke-width="0.9"/>
<line x1="68.0" y1="261.4" x2="672.0" y2="261.4" stroke="#64748b" stroke-width="0.9"/>
<line x1="68.0" y1="271.7" x2="672.0" y2="271.7" stroke="#64748b" stroke-width="0.9"/>
</g>
<text x="370.0" y="246.0" fill="#111827" font-size="12" font-family="Segoe UI, Microsoft JhengHei, sans-serif" font-weight="700" text-anchor="middle" dominant-baseline="middle" paint-order="stroke" stroke="#ffffff" stroke-width="2.4" stroke-linejoin="round">梯間（通往 RF）</text>
<rect x="682.0" y="194.0" width="416.0" height="104.0" fill="url(#p2-bath-hatch)" stroke="#374151" stroke-width="2.2"/>
<g opacity="0.42">
<rect x="915.0" y="251.2" width="34.0" height="20.8" fill="#ffffff" stroke="#64748b" stroke-width="1.0"/>
<ellipse cx="932.0" cy="243.2" rx="17.0" ry="7" fill="#ffffff" stroke="#64748b" stroke-width="0.9"/>
</g>
<text x="890.0" y="246.0" fill="#111827" font-size="12" font-family="Segoe UI, Microsoft JhengHei, sans-serif" font-weight="700" text-anchor="middle" dominant-baseline="middle" paint-order="stroke" stroke="#ffffff" stroke-width="2.4" stroke-linejoin="round">3F 衛浴 水錘吸收器</text>
<rect x="58.0" y="298.0" width="520.0" height="122.9" fill="#ffffff" stroke="#374151" stroke-width="2.2"/>
<g opacity="0.42">
</g>
<text x="318.0" y="352.5" fill="#111827" font-size="12" font-family="Segoe UI, Microsoft JhengHei, sans-serif" font-weight="700" text-anchor="middle" dominant-baseline="middle" paint-order="stroke" stroke="#ffffff" stroke-width="2.4" stroke-linejoin="round">多功能室</text>
<text x="318.0" y="370.5" fill="#64748b" font-size="8" font-family="Segoe UI, Microsoft JhengHei, sans-serif" font-weight="500" text-anchor="middle" dominant-baseline="middle" paint-order="stroke" stroke="#ffffff" stroke-width="2.4" stroke-linejoin="round">約 3 坪</text>
<rect x="578.0" y="298.0" width="520.0" height="122.9" fill="url(#p2-outdoor-hatch)" stroke="#374151" stroke-width="2.2"/>
<g opacity="0.42">
<rect x="585.0" y="305.0" width="506.0" height="108.9" fill="none" stroke="#8a8a8a" stroke-dasharray="5 4" stroke-width="0.9"/>
</g>
<text x="838.0" y="359.5" fill="#111827" font-size="12" font-family="Segoe UI, Microsoft JhengHei, sans-serif" font-weight="700" text-anchor="middle" dominant-baseline="middle" paint-order="stroke" stroke="#ffffff" stroke-width="2.4" stroke-linejoin="round">露台</text>
<rect x="58.0" y="420.9" width="1040.0" height="160.7" fill="#f7f8ff" stroke="#374151" stroke-width="2.2"/>
<g opacity="0.42">
<rect x="533.0" y="457.8" width="90.0" height="102.9" fill="#ffffff" stroke="#64748b" stroke-width="1.1"/>
<rect x="540.2" y="462.8" width="19.8" height="20.6" fill="#ffffff" stroke="#64748b" stroke-width="0.9"/>
<rect x="596.0" y="462.8" width="19.8" height="20.6" fill="#ffffff" stroke="#64748b" stroke-width="0.9"/>
</g>
<text x="578.0" y="494.3" fill="#111827" font-size="12" font-family="Segoe UI, Microsoft JhengHei, sans-serif" font-weight="700" text-anchor="middle" dominant-baseline="middle" paint-order="stroke" stroke="#ffffff" stroke-width="2.4" stroke-linejoin="round">客房</text>
<text x="578.0" y="512.3" fill="#64748b" font-size="8" font-family="Segoe UI, Microsoft JhengHei, sans-serif" font-weight="500" text-anchor="middle" dominant-baseline="middle" paint-order="stroke" stroke="#ffffff" stroke-width="2.4" stroke-linejoin="round">約 4 坪</text>
<line x1="58.0" y1="90.0" x2="1098.0" y2="90.0" stroke="#111827" stroke-width="4.2"/>
<line x1="1098.0" y1="90.0" x2="1098.0" y2="194.0" stroke="#111827" stroke-width="4.2"/>
<line x1="58.0" y1="90.0" x2="58.0" y2="194.0" stroke="#111827" stroke-width="4.2"/>
<line x1="58.0" y1="194.0" x2="58.0" y2="298.0" stroke="#111827" stroke-width="4.2"/>
<line x1="1098.0" y1="194.0" x2="1098.0" y2="298.0" stroke="#111827" stroke-width="4.2"/>
<line x1="58.0" y1="298.0" x2="58.0" y2="420.9" stroke="#111827" stroke-width="4.2"/>
<line x1="1098.0" y1="298.0" x2="1098.0" y2="420.9" stroke="#111827" stroke-width="4.2"/>
<line x1="1098.0" y1="420.9" x2="1098.0" y2="581.6" stroke="#111827" stroke-width="4.2"/>
<line x1="58.0" y1="581.6" x2="1098.0" y2="581.6" stroke="#111827" stroke-width="4.2"/>
<line x1="58.0" y1="420.9" x2="58.0" y2="581.6" stroke="#111827" stroke-width="4.2"/>
<line x1="548.0" y1="90.0" x2="608.0" y2="90.0" stroke="#ffffff" stroke-width="6.6"/>
<line x1="549.2" y1="92.8" x2="606.8" y2="92.8" stroke="#2563eb" stroke-width="2.2"/>
<line x1="58.0" y1="210.0" x2="58.0" y2="282.0" stroke="#ffffff" stroke-width="6.6"/>
<line x1="60.8" y1="211.2" x2="60.8" y2="280.8" stroke="#2563eb" stroke-width="2.2"/>
<line x1="1098.0" y1="228.0" x2="1098.0" y2="264.0" stroke="#ffffff" stroke-width="6.6"/>
<line x1="1095.2" y1="229.2" x2="1095.2" y2="262.8" stroke="#2563eb" stroke-width="2.2"/>
<line x1="58.0" y1="329.5" x2="58.0" y2="389.5" stroke="#ffffff" stroke-width="6.6"/>
<line x1="60.8" y1="330.7" x2="60.8" y2="388.3" stroke="#2563eb" stroke-width="2.2"/>
<line x1="1098.0" y1="465.3" x2="1098.0" y2="537.3" stroke="#ffffff" stroke-width="6.6"/>
<line x1="1095.2" y1="466.5" x2="1095.2" y2="536.1" stroke="#2563eb" stroke-width="2.2"/>
<line x1="343.0" y1="194.0" x2="397.0" y2="194.0" stroke="#ffffff" stroke-width="4.8"/>
<line x1="343.0" y1="194.0" x2="343.0" y2="248.0" stroke="#475569" stroke-width="1.2"/>
<path d="M 397.0 194.0 A 54.0 54.0 0 0 0 343.0 248.0" fill="none" stroke="#475569" stroke-width="0.9"/>
<line x1="291.0" y1="298.0" x2="345.0" y2="298.0" stroke="#ffffff" stroke-width="4.8"/>
<line x1="291.0" y1="298.0" x2="291.0" y2="352.0" stroke="#475569" stroke-width="1.2"/>
<path d="M 345.0 298.0 A 54.0 54.0 0 0 0 291.0 352.0" fill="none" stroke="#475569" stroke-width="0.9"/>
<line x1="682.0" y1="219.0" x2="682.0" y2="273.0" stroke="#ffffff" stroke-width="4.8"/>
<line x1="682.0" y1="219.0" x2="736.0" y2="219.0" stroke="#475569" stroke-width="1.2"/>
<path d="M 682.0 273.0 A 54.0 54.0 0 0 1 736.0 219.0" fill="none" stroke="#475569" stroke-width="0.9"/>
<line x1="603.0" y1="298.0" x2="657.0" y2="298.0" stroke="#ffffff" stroke-width="4.8"/>
<line x1="603.0" y1="298.0" x2="603.0" y2="352.0" stroke="#475569" stroke-width="1.2"/>
<path d="M 657.0 298.0 A 54.0 54.0 0 0 0 603.0 352.0" fill="none" stroke="#475569" stroke-width="0.9"/>
<line x1="291.0" y1="420.9" x2="345.0" y2="420.9" stroke="#ffffff" stroke-width="4.8"/>
<line x1="291.0" y1="420.9" x2="291.0" y2="366.9" stroke="#475569" stroke-width="1.2"/>
<path d="M 345.0 420.9 A 54.0 54.0 0 0 1 291.0 366.9" fill="none" stroke="#475569" stroke-width="0.9"/>
<line x1="1098.0" y1="128.6" x2="1098.0" y2="188.6" stroke="#ffffff" stroke-width="5.4"/>
<polygon points="1122.0,198.6 1142.0,198.6 1132.0,180.6" fill="#475569"/>
<line x1="58.0" y1="603.6" x2="1098.0" y2="603.6" stroke="#9ca3af" stroke-width="0.9"/>
<line x1="58.0" y1="599.6" x2="58.0" y2="607.6" stroke="#9ca3af" stroke-width="0.9"/>
<line x1="1098.0" y1="599.6" x2="1098.0" y2="607.6" stroke="#9ca3af" stroke-width="0.9"/>
<line x1="61.0" y1="600.6" x2="58.0" y2="603.6" stroke="#9ca3af" stroke-width="0.9"/>
<line x1="61.0" y1="606.6" x2="58.0" y2="603.6" stroke="#9ca3af" stroke-width="0.9"/>
<line x1="1095.0" y1="600.6" x2="1098.0" y2="603.6" stroke="#9ca3af" stroke-width="0.9"/>
<line x1="1095.0" y1="606.6" x2="1098.0" y2="603.6" stroke="#9ca3af" stroke-width="0.9"/>
<text x="544.0" y="597.6" fill="#9ca3af" font-size="8" font-family="Segoe UI, Microsoft JhengHei, sans-serif" font-weight="500">DIM:W 11000mm</text>
<line x1="30.0" y1="90.0" x2="30.0" y2="581.6" stroke="#9ca3af" stroke-width="0.9"/>
<line x1="26.0" y1="90.0" x2="34.0" y2="90.0" stroke="#9ca3af" stroke-width="0.9"/>
<line x1="26.0" y1="581.6" x2="34.0" y2="581.6" stroke="#9ca3af" stroke-width="0.9"/>
<line x1="27.0" y1="93.0" x2="30.0" y2="90.0" stroke="#9ca3af" stroke-width="0.9"/>
<line x1="33.0" y1="93.0" x2="30.0" y2="90.0" stroke="#9ca3af" stroke-width="0.9"/>
<line x1="27.0" y1="578.6" x2="30.0" y2="581.6" stroke="#9ca3af" stroke-width="0.9"/>
<line x1="33.0" y1="578.6" x2="30.0" y2="581.6" stroke="#9ca3af" stroke-width="0.9"/>
<text x="37.0" y="335.8" fill="#9ca3af" font-size="8" font-family="Segoe UI, Microsoft JhengHei, sans-serif" font-weight="500">DIM:D 5200mm</text>
<circle cx="1122.0" cy="40.0" r="14.0" fill="#ffffff" stroke="#111827" stroke-width="1.1"/>
<polygon points="1122.0,30.0 1117.0,43.0 1127.0,43.0" fill="#111827"/>
<text x="1112.0" y="64.0" fill="#111827" font-size="10" font-family="Segoe UI, Microsoft JhengHei, sans-serif" font-weight="700">N↑</text>
<text x="58.0" y="639.6" fill="#111827" font-size="9" font-family="Segoe UI, Microsoft JhengHei, sans-serif" font-weight="700">LEGEND:</text>
<rect x="116.0" y="629.6" width="18" height="10" fill="#fffaf3" stroke="#cbd5e1" stroke-width="0.8"/>
<text x="139.0" y="639.6" fill="#64748b" font-size="9" font-family="Segoe UI, Microsoft JhengHei, sans-serif" font-weight="500">公共</text>
<rect x="178.0" y="629.6" width="18" height="10" fill="#f7f8ff" stroke="#cbd5e1" stroke-width="0.8"/>
<text x="201.0" y="639.6" fill="#64748b" font-size="9" font-family="Segoe UI, Microsoft JhengHei, sans-serif" font-weight="500">臥室</text>
<rect x="240.0" y="629.6" width="18" height="10" fill="url(#p2-bath-hatch)" stroke="#cbd5e1" stroke-width="0.8"/>
<text x="263.0" y="639.6" fill="#64748b" font-size="9" font-family="Segoe UI, Microsoft JhengHei, sans-serif" font-weight="500">濕區</text>
<rect x="302.0" y="629.6" width="18" height="10" fill="url(#p2-service-hatch)" stroke="#cbd5e1" stroke-width="0.8"/>
<text x="325.0" y="639.6" fill="#64748b" font-size="9" font-family="Segoe UI, Microsoft JhengHei, sans-serif" font-weight="500">設備</text>
<rect x="364.0" y="629.6" width="18" height="10" fill="url(#p2-outdoor-hatch)" stroke="#cbd5e1" stroke-width="0.8"/>
<text x="387.0" y="639.6" fill="#64748b" font-size="9" font-family="Segoe UI, Microsoft JhengHei, sans-serif" font-weight="500">戶外</text>
<line x1="434.0" y1="634.6" x2="462.0" y2="634.6" stroke="#111827" stroke-width="4.2"/>
<text x="470.0" y="639.6" fill="#64748b" font-size="9" font-family="Segoe UI, Microsoft JhengHei, sans-serif" font-weight="500">外牆</text>
<line x1="508.0" y1="634.6" x2="536.0" y2="634.6" stroke="#374151" stroke-width="2.2"/>
<text x="544.0" y="639.6" fill="#64748b" font-size="9" font-family="Segoe UI, Microsoft JhengHei, sans-serif" font-weight="500">內牆</text>
<line x1="582.0" y1="634.6" x2="608.0" y2="634.6" stroke="#2563eb" stroke-width="2.0"/>
<text x="616.0" y="639.6" fill="#64748b" font-size="9" font-family="Segoe UI, Microsoft JhengHei, sans-serif" font-weight="500">窗</text>
<line x1="646.0" y1="634.6" x2="672.0" y2="634.6" stroke="#475569" stroke-width="1.2"/>
<text x="680.0" y="639.6" fill="#64748b" font-size="9" font-family="Segoe UI, Microsoft JhengHei, sans-serif" font-weight="500">門</text>
<text x="58.0" y="705.0" fill="#64748b" font-size="9" font-family="Segoe UI, Microsoft JhengHei, sans-serif" font-weight="400">Generated: 2026-07-08T01:18:03.956878+00:00 | layout-top1-svg-v2 | style=presentation</text>
</svg>