<svg xmlns="http://www.w3.org/2000/svg" width="1162" height="3281" viewBox="0 0 1162 3281" role="img" aria-label="B floor-3">
<metadata>{&quot;schema_version&quot;: &quot;layout-top1-svg-v2&quot;, &quot;drawing_style&quot;: &quot;presentation&quot;, &quot;presentation_version&quot;: 2, &quot;building_id&quot;: &quot;B&quot;, &quot;floor_id&quot;: &quot;floor-3&quot;, &quot;candidate_id&quot;: &quot;baseline&quot;}</metadata>
<rect x="0" y="0" width="1162" height="3281" fill="#f3f4f6"/>
<rect x="40.0" y="62.0" width="1076.0" height="3129.9" fill="#ffffff" stroke="#d1d5db" stroke-width="1.1"/>
<rect x="50.0" y="72.0" width="1056.0" height="3077.9" fill="none" stroke="#e2e8f0" stroke-width="0.8"/>
<text x="58.0" y="32.0" fill="#111827" font-size="19" font-family="Segoe UI, Microsoft JhengHei, sans-serif" font-weight="700">[B] floor-3 3F</text>
<text x="58.0" y="55.0" fill="#64748b" font-size="12" font-family="Segoe UI, Microsoft JhengHei, sans-serif" font-weight="500">3F 娛樂室 × 客房</text>
<rect x="824.0" y="18.0" width="274.0" height="48" fill="#ffffff" stroke="#d1d5db" stroke-width="0.8"/>
<text x="834.0" y="35.0" fill="#111827" font-size="10" font-family="Segoe UI, Microsoft JhengHei, sans-serif" font-weight="700">住宅平面討論圖</text>
<text x="834.0" y="51.0" fill="#64748b" font-size="8" font-family="Segoe UI, Microsoft JhengHei, sans-serif" font-weight="500">Selection: baseline | presentation v2</text>
<text x="1014.0" y="51.0" fill="#64748b" font-size="8" font-family="Segoe UI, Microsoft JhengHei, sans-serif" font-weight="500">Scale: diagram</text>
<rect x="58.0" y="90.0" width="1040.0" height="416.0" fill="#ffffff" stroke="#374151" stroke-width="2.2"/>
<g opacity="0.42">
</g>
<text x="578.0" y="291.0" fill="#111827" font-size="12" font-family="Segoe UI, Microsoft JhengHei, sans-serif" font-weight="700" text-anchor="middle" dominant-baseline="middle" paint-order="stroke" stroke="#ffffff" stroke-width="2.4" stroke-linejoin="round">3F 前側彈性室內區</text>
<text x="578.0" y="309.0" fill="#64748b" font-size="8" font-family="Segoe UI, Microsoft JhengHei, sans-serif" font-weight="500" text-anchor="middle" dominant-baseline="middle" paint-order="stroke" stroke="#ffffff" stroke-width="2.4" stroke-linejoin="round">前帶室內乾區</text>
<rect x="58.0" y="506.0" width="1040.0" height="693.3" fill="#ffffff" stroke="#374151" stroke-width="2.2"/>
<g opacity="0.42">
</g>
<text x="578.0" y="845.7" fill="#111827" font-size="12" font-family="Segoe UI, Microsoft JhengHei, sans-serif" font-weight="700" text-anchor="middle" dominant-baseline="middle" paint-order="stroke" stroke="#ffffff" stroke-width="2.4" stroke-linejoin="round">多功能娛樂室（KTV/劇院）</text>
<text x="578.0" y="863.7" fill="#64748b" font-size="8" font-family="Segoe UI, Microsoft JhengHei, sans-serif" font-weight="500" text-anchor="middle" dominant-baseline="middle" paint-order="stroke" stroke="#ffffff" stroke-width="2.4" stroke-linejoin="round">前帶重點空間</text>
<rect x="58.0" y="1199.3" width="1040.0" height="227.9" fill="#ffffff" stroke="#374151" stroke-width="2.2"/>
<g opacity="0.42">
</g>
<text x="578.0" y="1306.3" fill="#111827" font-size="12" font-family="Segoe UI, Microsoft JhengHei, sans-serif" font-weight="700" text-anchor="middle" dominant-baseline="middle" paint-order="stroke" stroke="#ffffff" stroke-width="2.4" stroke-linejoin="round">隔音轉折走道</text>
<text x="578.0" y="1324.3" fill="#64748b" font-size="8" font-family="Segoe UI, Microsoft JhengHei, sans-serif" font-weight="500" text-anchor="middle" dominant-baseline="middle" paint-order="stroke" stroke="#ffffff" stroke-width="2.4" stroke-linejoin="round">KTV／客房緩衝</text>
<rect x="58.0" y="1427.3" width="520.0" height="309.4" fill="#f2fbf5" stroke="#374151" stroke-width="2.2"/>
<path data-hatch-kind="outdoor" d="M 64.0 1427.3 V 1736.7 M 76.0 1427.3 V 1736.7 M 88.0 1427.3 V 1736.7 M 100.0 1427.3 V 1736.7 M 112.0 1427.3 V 1736.7 M 124.0 1427.3 V 1736.7 M 136.0 1427.3 V 1736.7 M 148.0 1427.3 V 1736.7 M 160.0 1427.3 V 1736.7 M 172.0 1427.3 V 1736.7 M 184.0 1427.3 V 1736.7 M 196.0 1427.3 V 1736.7 M 208.0 1427.3 V 1736.7 M 220.0 1427.3 V 1736.7 M 232.0 1427.3 V 1736.7 M 244.0 1427.3 V 1736.7 M 256.0 1427.3 V 1736.7 M 268.0 1427.3 V 1736.7 M 280.0 1427.3 V 1736.7 M 292.0 1427.3 V 1736.7 M 304.0 1427.3 V 1736.7 M 316.0 1427.3 V 1736.7 M 328.0 1427.3 V 1736.7 M 340.0 1427.3 V 1736.7 M 352.0 1427.3 V 1736.7 M 364.0 1427.3 V 1736.7 M 376.0 1427.3 V 1736.7 M 388.0 1427.3 V 1736.7 M 400.0 1427.3 V 1736.7 M 412.0 1427.3 V 1736.7 M 424.0 1427.3 V 1736.7 M 436.0 1427.3 V 1736.7 M 448.0 1427.3 V 1736.7 M 460.0 1427.3 V 1736.7 M 472.0 1427.3 V 1736.7 M 484.0 1427.3 V 1736.7 M 496.0 1427.3 V 1736.7 M 508.0 1427.3 V 1736.7 M 520.0 1427.3 V 1736.7 M 532.0 1427.3 V 1736.7 M 544.0 1427.3 V 1736.7 M 556.0 1427.3 V 1736.7 M 568.0 1427.3 V 1736.7 M 58.0 1433.3 H 578.0 M 58.0 1445.3 H 578.0 M 58.0 1457.3 H 578.0 M 58.0 1469.3 H 578.0 M 58.0 1481.3 H 578.0 M 58.0 1493.3 H 578.0 M 58.0 1505.3 H 578.0 M 58.0 1517.3 H 578.0 M 58.0 1529.3 H 578.0 M 58.0 1541.3 H 578.0 M 58.0 1553.3 H 578.0 M 58.0 1565.3 H 578.0 M 58.0 1577.3 H 578.0 M 58.0 1589.3 H 578.0 M 58.0 1601.3 H 578.0 M 58.0 1613.3 H 578.0 M 58.0 1625.3 H 578.0 M 58.0 1637.3 H 578.0 M 58.0 1649.3 H 578.0 M 58.0 1661.3 H 578.0 M 58.0 1673.3 H 578.0 M 58.0 1685.3 H 578.0 M 58.0 1697.3 H 578.0 M 58.0 1709.3 H 578.0 M 58.0 1721.3 H 578.0 M 58.0 1733.3 H 578.0" fill="none" stroke="#94a3b8" stroke-width="0.45" opacity="0.18" pointer-events="none"/>
<g opacity="0.42">
<rect x="65.0" y="1434.3" width="506.0" height="295.4" fill="none" stroke="#8a8a8a" stroke-dasharray="5 4" stroke-width="0.9"/>
</g>
<text x="318.0" y="1575.0" fill="#111827" font-size="12" font-family="Segoe UI, Microsoft JhengHei, sans-serif" font-weight="700" text-anchor="middle" dominant-baseline="middle" paint-order="stroke" stroke="#ffffff" stroke-width="2.4" stroke-linejoin="round">3F 工作小陽台</text>
<text x="318.0" y="1593.0" fill="#64748b" font-size="8" font-family="Segoe UI, Microsoft JhengHei, sans-serif" font-weight="500" text-anchor="middle" dominant-baseline="middle" paint-order="stroke" stroke="#ffffff" stroke-width="2.4" stroke-linejoin="round">立管檢修；非 RF 主要通行</text>
<rect x="578.0" y="1427.3" width="520.0" height="572.0" fill="#f8fafc" stroke="#374151" stroke-width="2.2"/>
<g opacity="0.42">
<line x1="588.0" y1="1443.3" x2="1088.0" y2="1443.3" stroke="#64748b" stroke-width="0.9"/>
<line x1="588.0" y1="1520.4" x2="1088.0" y2="1520.4" stroke="#64748b" stroke-width="0.9"/>
<line x1="588.0" y1="1597.6" x2="1088.0" y2="1597.6" stroke="#64748b" stroke-width="0.9"/>
<line x1="588.0" y1="1674.7" x2="1088.0" y2="1674.7" stroke="#64748b" stroke-width="0.9"/>
<line x1="588.0" y1="1751.8" x2="1088.0" y2="1751.8" stroke="#64748b" stroke-width="0.9"/>
<line x1="588.0" y1="1829.0" x2="1088.0" y2="1829.0" stroke="#64748b" stroke-width="0.9"/>
<line x1="588.0" y1="1906.1" x2="1088.0" y2="1906.1" stroke="#64748b" stroke-width="0.9"/>
</g>
<text x="838.0" y="1706.3" fill="#111827" font-size="12" font-family="Segoe UI, Microsoft JhengHei, sans-serif" font-weight="700" text-anchor="middle" dominant-baseline="middle" paint-order="stroke" stroke="#ffffff" stroke-width="2.4" stroke-linejoin="round">樓梯間（3F）</text>
<text x="838.0" y="1724.3" fill="#64748b" font-size="8" font-family="Segoe UI, Microsoft JhengHei, sans-serif" font-weight="500" text-anchor="middle" dominant-baseline="middle" paint-order="stroke" stroke="#ffffff" stroke-width="2.4" stroke-linejoin="round">⬇️2F ⬆️RF</text>
<rect x="58.0" y="1736.7" width="520.0" height="554.7" fill="#f3fdff" stroke="#374151" stroke-width="2.2"/>
<path data-hatch-kind="bath" d="M 58.0 2282.3 L 67.0 2291.3 M 58.0 2273.3 L 76.0 2291.3 M 58.0 2264.3 L 85.0 2291.3 M 58.0 2255.3 L 94.0 2291.3 M 58.0 2246.3 L 103.0 2291.3 M 58.0 2237.3 L 112.0 2291.3 M 58.0 2228.3 L 121.0 2291.3 M 58.0 2219.3 L 130.0 2291.3 M 58.0 2210.3 L 139.0 2291.3 M 58.0 2201.3 L 148.0 2291.3 M 58.0 2192.3 L 157.0 2291.3 M 58.0 2183.3 L 166.0 2291.3 M 58.0 2174.3 L 175.0 2291.3 M 58.0 2165.3 L 184.0 2291.3 M 58.0 2156.3 L 193.0 2291.3 M 58.0 2147.3 L 202.0 2291.3 M 58.0 2138.3 L 211.0 2291.3 M 58.0 2129.3 L 220.0 2291.3 M 58.0 2120.3 L 229.0 2291.3 M 58.0 2111.3 L 238.0 2291.3 M 58.0 2102.3 L 247.0 2291.3 M 58.0 2093.3 L 256.0 2291.3 M 58.0 2084.3 L 265.0 2291.3 M 58.0 2075.3 L 274.0 2291.3 M 58.0 2066.3 L 283.0 2291.3 M 58.0 2057.3 L 292.0 2291.3 M 58.0 2048.3 L 301.0 2291.3 M 58.0 2039.3 L 310.0 2291.3 M 58.0 2030.3 L 319.0 2291.3 M 58.0 2021.3 L 328.0 2291.3 M 58.0 2012.3 L 337.0 2291.3 M 58.0 2003.3 L 346.0 2291.3 M 58.0 1994.3 L 355.0 2291.3 M 58.0 1985.3 L 364.0 2291.3 M 58.0 1976.3 L 373.0 2291.3 M 58.0 1967.3 L 382.0 2291.3 M 58.0 1958.3 L 391.0 2291.3 M 58.0 1949.3 L 400.0 2291.3 M 58.0 1940.3 L 409.0 2291.3 M 58.0 1931.3 L 418.0 2291.3 M 58.0 1922.3 L 427.0 2291.3 M 58.0 1913.3 L 436.0 2291.3 M 58.0 1904.3 L 445.0 2291.3 M 58.0 1895.3 L 454.0 2291.3 M 58.0 1886.3 L 463.0 2291.3 M 58.0 1877.3 L 472.0 2291.3 M 58.0 1868.3 L 481.0 2291.3 M 58.0 1859.3 L 490.0 2291.3 M 58.0 1850.3 L 499.0 2291.3 M 58.0 1841.3 L 508.0 2291.3 M 58.0 1832.3 L 517.0 2291.3 M 58.0 1823.3 L 526.0 2291.3 M 58.0 1814.3 L 535.0 2291.3 M 58.0 1805.3 L 544.0 2291.3 M 58.0 1796.3 L 553.0 2291.3 M 58.0 1787.3 L 562.0 2291.3 M 58.0 1778.3 L 571.0 2291.3 M 58.0 1769.3 L 578.0 2289.3 M 58.0 1760.3 L 578.0 2280.3 M 58.0 1751.3 L 578.0 2271.3 M 58.0 1742.3 L 578.0 2262.3 M 61.3 1736.7 L 578.0 2253.3 M 70.3 1736.7 L 578.0 2244.3 M 79.3 1736.7 L 578.0 2235.3 M 88.3 1736.7 L 578.0 2226.3 M 97.3 1736.7 L 578.0 2217.3 M 106.3 1736.7 L 578.0 2208.3 M 115.3 1736.7 L 578.0 2199.3 M 124.3 1736.7 L 578.0 2190.3 M 133.3 1736.7 L 578.0 2181.3 M 142.3 1736.7 L 578.0 2172.3 M 151.3 1736.7 L 578.0 2163.3 M 160.3 1736.7 L 578.0 2154.3 M 169.3 1736.7 L 578.0 2145.3 M 178.3 1736.7 L 578.0 2136.3 M 187.3 1736.7 L 578.0 2127.3 M 196.3 1736.7 L 578.0 2118.3 M 205.3 1736.7 L 578.0 2109.3 M 214.3 1736.7 L 578.0 2100.3 M 223.3 1736.7 L 578.0 2091.3 M 232.3 1736.7 L 578.0 2082.3 M 241.3 1736.7 L 578.0 2073.3 M 250.3 1736.7 L 578.0 2064.3 M 259.3 1736.7 L 578.0 2055.3 M 268.3 1736.7 L 578.0 2046.3 M 277.3 1736.7 L 578.0 2037.3 M 286.3 1736.7 L 578.0 2028.3 M 295.3 1736.7 L 578.0 2019.3 M 304.3 1736.7 L 578.0 2010.3 M 313.3 1736.7 L 578.0 2001.3 M 322.3 1736.7 L 578.0 1992.3 M 331.3 1736.7 L 578.0 1983.3 M 340.3 1736.7 L 578.0 1974.3 M 349.3 1736.7 L 578.0 1965.3 M 358.3 1736.7 L 578.0 1956.3 M 367.3 1736.7 L 578.0 1947.3 M 376.3 1736.7 L 578.0 1938.3 M 385.3 1736.7 L 578.0 1929.3 M 394.3 1736.7 L 578.0 1920.3 M 403.3 1736.7 L 578.0 1911.3 M 412.3 1736.7 L 578.0 1902.3 M 421.3 1736.7 L 578.0 1893.3 M 430.3 1736.7 L 578.0 1884.3 M 439.3 1736.7 L 578.0 1875.3 M 448.3 1736.7 L 578.0 1866.3 M 457.3 1736.7 L 578.0 1857.3 M 466.3 1736.7 L 578.0 1848.3 M 475.3 1736.7 L 578.0 1839.3 M 484.3 1736.7 L 578.0 1830.3 M 493.3 1736.7 L 578.0 1821.3 M 502.3 1736.7 L 578.0 1812.3 M 511.3 1736.7 L 578.0 1803.3 M 520.3 1736.7 L 578.0 1794.3 M 529.3 1736.7 L 578.0 1785.3 M 538.3 1736.7 L 578.0 1776.3 M 547.3 1736.7 L 578.0 1767.3 M 556.3 1736.7 L 578.0 1758.3 M 565.3 1736.7 L 578.0 1749.3 M 574.3 1736.7 L 578.0 1740.3" fill="none" stroke="#94a3b8" stroke-width="0.55" opacity="0.28" pointer-events="none"/>
<g opacity="0.42">
<rect x="349.2" y="2041.7" width="34.0" height="24.0" fill="#ffffff" stroke="#64748b" stroke-width="1.0"/>
<ellipse cx="366.2" cy="2033.7" rx="17.0" ry="7" fill="#ffffff" stroke="#64748b" stroke-width="0.9"/>
</g>
<text x="318.0" y="2014.0" fill="#111827" font-size="12" font-family="Segoe UI, Microsoft JhengHei, sans-serif" font-weight="700" text-anchor="middle" dominant-baseline="middle" paint-order="stroke" stroke="#ffffff" stroke-width="2.4" stroke-linejoin="round">3F 衛浴</text>
<rect x="578.0" y="1999.3" width="520.0" height="292.1" fill="#f7f9fc" stroke="#374151" stroke-width="2.2"/>
<path data-hatch-kind="service" d="M 578.0 2281.3 L 588.0 2291.3 M 578.0 2271.3 L 598.0 2291.3 M 578.0 2261.3 L 608.0 2291.3 M 578.0 2251.3 L 618.0 2291.3 M 578.0 2241.3 L 628.0 2291.3 M 578.0 2231.3 L 638.0 2291.3 M 578.0 2221.3 L 648.0 2291.3 M 578.0 2211.3 L 658.0 2291.3 M 578.0 2201.3 L 668.0 2291.3 M 578.0 2191.3 L 678.0 2291.3 M 578.0 2181.3 L 688.0 2291.3 M 578.0 2171.3 L 698.0 2291.3 M 578.0 2161.3 L 708.0 2291.3 M 578.0 2151.3 L 718.0 2291.3 M 578.0 2141.3 L 728.0 2291.3 M 578.0 2131.3 L 738.0 2291.3 M 578.0 2121.3 L 748.0 2291.3 M 578.0 2111.3 L 758.0 2291.3 M 578.0 2101.3 L 768.0 2291.3 M 578.0 2091.3 L 778.0 2291.3 M 578.0 2081.3 L 788.0 2291.3 M 578.0 2071.3 L 798.0 2291.3 M 578.0 2061.3 L 808.0 2291.3 M 578.0 2051.3 L 818.0 2291.3 M 578.0 2041.3 L 828.0 2291.3 M 578.0 2031.3 L 838.0 2291.3 M 578.0 2021.3 L 848.0 2291.3 M 578.0 2011.3 L 858.0 2291.3 M 578.0 2001.3 L 868.0 2291.3 M 585.9 1999.3 L 878.0 2291.3 M 595.9 1999.3 L 888.0 2291.3 M 605.9 1999.3 L 898.0 2291.3 M 615.9 1999.3 L 908.0 2291.3 M 625.9 1999.3 L 918.0 2291.3 M 635.9 1999.3 L 928.0 2291.3 M 645.9 1999.3 L 938.0 2291.3 M 655.9 1999.3 L 948.0 2291.3 M 665.9 1999.3 L 958.0 2291.3 M 675.9 1999.3 L 968.0 2291.3 M 685.9 1999.3 L 978.0 2291.3 M 695.9 1999.3 L 988.0 2291.3 M 705.9 1999.3 L 998.0 2291.3 M 715.9 1999.3 L 1008.0 2291.3 M 725.9 1999.3 L 1018.0 2291.3 M 735.9 1999.3 L 1028.0 2291.3 M 745.9 1999.3 L 1038.0 2291.3 M 755.9 1999.3 L 1048.0 2291.3 M 765.9 1999.3 L 1058.0 2291.3 M 775.9 1999.3 L 1068.0 2291.3 M 785.9 1999.3 L 1078.0 2291.3 M 795.9 1999.3 L 1088.0 2291.3 M 805.9 1999.3 L 1098.0 2291.3 M 815.9 1999.3 L 1098.0 2281.3 M 825.9 1999.3 L 1098.0 2271.3 M 835.9 1999.3 L 1098.0 2261.3 M 845.9 1999.3 L 1098.0 2251.3 M 855.9 1999.3 L 1098.0 2241.3 M 865.9 1999.3 L 1098.0 2231.3 M 875.9 1999.3 L 1098.0 2221.3 M 885.9 1999.3 L 1098.0 2211.3 M 895.9 1999.3 L 1098.0 2201.3 M 905.9 1999.3 L 1098.0 2191.3 M 915.9 1999.3 L 1098.0 2181.3 M 925.9 1999.3 L 1098.0 2171.3 M 935.9 1999.3 L 1098.0 2161.3 M 945.9 1999.3 L 1098.0 2151.3 M 955.9 1999.3 L 1098.0 2141.3 M 965.9 1999.3 L 1098.0 2131.3 M 975.9 1999.3 L 1098.0 2121.3 M 985.9 1999.3 L 1098.0 2111.3 M 995.9 1999.3 L 1098.0 2101.3 M 1005.9 1999.3 L 1098.0 2091.3 M 1015.9 1999.3 L 1098.0 2081.3 M 1025.9 1999.3 L 1098.0 2071.3 M 1035.9 1999.3 L 1098.0 2061.3 M 1045.9 1999.3 L 1098.0 2051.3 M 1055.9 1999.3 L 1098.0 2041.3 M 1065.9 1999.3 L 1098.0 2031.3 M 1075.9 1999.3 L 1098.0 2021.3 M 1085.9 1999.3 L 1098.0 2011.3 M 1095.9 1999.3 L 1098.0 2001.3" fill="none" stroke="#94a3b8" stroke-width="0.50" opacity="0.20" pointer-events="none"/>
<g opacity="0.42">
</g>
<text x="838.0" y="2138.3" fill="#111827" font-size="12" font-family="Segoe UI, Microsoft JhengHei, sans-serif" font-weight="700" text-anchor="middle" dominant-baseline="middle" paint-order="stroke" stroke="#ffffff" stroke-width="2.4" stroke-linejoin="round">隔音／設備緩衝</text>
<text x="838.0" y="2156.3" fill="#64748b" font-size="8" font-family="Segoe UI, Microsoft JhengHei, sans-serif" font-weight="500" text-anchor="middle" dominant-baseline="middle" paint-order="stroke" stroke="#ffffff" stroke-width="2.4" stroke-linejoin="round">中段服務格</text>
<rect x="58.0" y="2291.3" width="1040.0" height="854.5" fill="#f7f8ff" stroke="#374151" stroke-width="2.2"/>
<g opacity="0.42">
<rect x="533.0" y="2669.6" width="90.0" height="114.0" fill="#ffffff" stroke="#64748b" stroke-width="1.1"/>
<rect x="540.2" y="2674.6" width="19.8" height="22.8" fill="#ffffff" stroke="#64748b" stroke-width="0.9"/>
<rect x="596.0" y="2674.6" width="19.8" height="22.8" fill="#ffffff" stroke="#64748b" stroke-width="0.9"/>
</g>
<text x="578.0" y="2711.6" fill="#111827" font-size="12" font-family="Segoe UI, Microsoft JhengHei, sans-serif" font-weight="700" text-anchor="middle" dominant-baseline="middle" paint-order="stroke" stroke="#ffffff" stroke-width="2.4" stroke-linejoin="round">後客房</text>
<text x="578.0" y="2729.6" fill="#64748b" font-size="8" font-family="Segoe UI, Microsoft JhengHei, sans-serif" font-weight="500" text-anchor="middle" dominant-baseline="middle" paint-order="stroke" stroke="#ffffff" stroke-width="2.4" stroke-linejoin="round">神明廳上方乾式保護帶</text>
<line x1="58.0" y1="90.0" x2="1098.0" y2="90.0" stroke="#111827" stroke-width="4.2"/>
<line x1="1098.0" y1="90.0" x2="1098.0" y2="506.0" stroke="#111827" stroke-width="4.2"/>
<line x1="58.0" y1="90.0" x2="58.0" y2="506.0" stroke="#111827" stroke-width="4.2"/>
<line x1="1098.0" y1="506.0" x2="1098.0" y2="1199.3" stroke="#111827" stroke-width="4.2"/>
<line x1="58.0" y1="506.0" x2="58.0" y2="1199.3" stroke="#111827" stroke-width="4.2"/>
<line x1="1098.0" y1="1199.3" x2="1098.0" y2="1427.3" stroke="#111827" stroke-width="4.2"/>
<line x1="58.0" y1="1199.3" x2="58.0" y2="1427.3" stroke="#111827" stroke-width="4.2"/>
<line x1="58.0" y1="1427.3" x2="58.0" y2="1736.7" stroke="#111827" stroke-width="4.2"/>
<line x1="1098.0" y1="1427.3" x2="1098.0" y2="1999.3" stroke="#111827" stroke-width="4.2"/>
<line x1="58.0" y1="1736.7" x2="58.0" y2="2291.3" stroke="#111827" stroke-width="4.2"/>
<line x1="1098.0" y1="1999.3" x2="1098.0" y2="2291.3" stroke="#111827" stroke-width="4.2"/>
<line x1="1098.0" y1="2291.3" x2="1098.0" y2="3145.9" stroke="#111827" stroke-width="4.2"/>
<line x1="58.0" y1="3145.9" x2="1098.0" y2="3145.9" stroke="#111827" stroke-width="4.2"/>
<line x1="58.0" y1="2291.3" x2="58.0" y2="3145.9" stroke="#111827" stroke-width="4.2"/>
<g data-marker="window">
<line x1="1098.0" y1="244.0" x2="1098.0" y2="352.0" stroke="#ffffff" stroke-width="6.6"/>
<line x1="1095.2" y1="245.2" x2="1095.2" y2="350.8" stroke="#2563eb" stroke-width="2.2"/>
</g>
<g data-marker="window">
<line x1="1098.0" y1="801.7" x2="1098.0" y2="903.7" stroke="#ffffff" stroke-width="6.6"/>
<line x1="1095.2" y1="802.9" x2="1095.2" y2="902.5" stroke="#2563eb" stroke-width="2.2"/>
</g>
<g data-marker="window">
<line x1="1098.0" y1="1295.3" x2="1098.0" y2="1331.3" stroke="#ffffff" stroke-width="6.6"/>
<line x1="1095.2" y1="1296.5" x2="1095.2" y2="1330.1" stroke="#2563eb" stroke-width="2.2"/>
</g>
<g data-marker="window">
<line x1="58.0" y1="1987.0" x2="58.0" y2="2041.0" stroke="#ffffff" stroke-width="6.6"/>
<line x1="60.8" y1="1988.2" x2="60.8" y2="2039.8" stroke="#2563eb" stroke-width="2.2"/>
</g>
<g data-marker="window">
<line x1="1098.0" y1="2127.3" x2="1098.0" y2="2163.3" stroke="#ffffff" stroke-width="6.6"/>
<line x1="1095.2" y1="2128.5" x2="1095.2" y2="2162.1" stroke="#2563eb" stroke-width="2.2"/>
</g>
<g data-marker="window">
<line x1="1098.0" y1="2646.6" x2="1098.0" y2="2790.6" stroke="#ffffff" stroke-width="6.6"/>
<line x1="1095.2" y1="2647.8" x2="1095.2" y2="2789.4" stroke="#2563eb" stroke-width="2.2"/>
</g>
<g data-marker="door">
<line x1="811.0" y1="1427.3" x2="865.0" y2="1427.3" stroke="#ffffff" stroke-width="4.8"/>
<line x1="811.0" y1="1427.3" x2="811.0" y2="1373.3" stroke="#475569" stroke-width="1.2"/>
<path d="M 865.0 1427.3 A 54.0 54.0 0 0 1 811.0 1373.3" fill="none" stroke="#475569" stroke-width="0.9"/>
</g>
<g data-marker="door">
<line x1="578.0" y1="1555.0" x2="578.0" y2="1609.0" stroke="#ffffff" stroke-width="4.8"/>
<line x1="578.0" y1="1555.0" x2="524.0" y2="1555.0" stroke="#475569" stroke-width="1.2"/>
<path d="M 578.0 1609.0 A 54.0 54.0 0 0 0 524.0 1555.0" fill="none" stroke="#475569" stroke-width="0.9"/>
</g>
<g data-marker="door">
<line x1="578.0" y1="1841.0" x2="578.0" y2="1895.0" stroke="#ffffff" stroke-width="4.8"/>
<line x1="578.0" y1="1841.0" x2="524.0" y2="1841.0" stroke="#475569" stroke-width="1.2"/>
<path d="M 578.0 1895.0 A 54.0 54.0 0 0 0 524.0 1841.0" fill="none" stroke="#475569" stroke-width="0.9"/>
</g>
<g data-marker="door">
<line x1="291.0" y1="2291.3" x2="345.0" y2="2291.3" stroke="#ffffff" stroke-width="4.8"/>
<line x1="291.0" y1="2291.3" x2="291.0" y2="2237.3" stroke="#475569" stroke-width="1.2"/>
<path d="M 345.0 2291.3 A 54.0 54.0 0 0 1 291.0 2237.3" fill="none" stroke="#475569" stroke-width="0.9"/>
</g>
<g data-marker="door">
<line x1="811.0" y1="1999.3" x2="865.0" y2="1999.3" stroke="#ffffff" stroke-width="4.8"/>
<line x1="811.0" y1="1999.3" x2="811.0" y2="2053.3" stroke="#475569" stroke-width="1.2"/>
<path d="M 865.0 1999.3 A 54.0 54.0 0 0 0 811.0 2053.3" fill="none" stroke="#475569" stroke-width="0.9"/>
</g>
<g data-marker="door">
<line x1="551.0" y1="1199.3" x2="605.0" y2="1199.3" stroke="#ffffff" stroke-width="4.8"/>
<line x1="551.0" y1="1199.3" x2="551.0" y2="1253.3" stroke="#475569" stroke-width="1.2"/>
<path d="M 605.0 1199.3 A 54.0 54.0 0 0 0 551.0 1253.3" fill="none" stroke="#475569" stroke-width="0.9"/>
</g>
<g data-marker="door">
<line x1="551.0" y1="506.0" x2="605.0" y2="506.0" stroke="#ffffff" stroke-width="4.8"/>
<line x1="551.0" y1="506.0" x2="551.0" y2="452.0" stroke="#475569" stroke-width="1.2"/>
<path d="M 605.0 506.0 A 54.0 54.0 0 0 1 551.0 452.0" fill="none" stroke="#475569" stroke-width="0.9"/>
</g>
<g data-marker="entrance">
<line x1="1098.0" y1="1774.8" x2="1098.0" y2="1834.8" stroke="#ffffff" stroke-width="5.4"/>
<polygon points="1122.0,1844.8 1142.0,1844.8 1132.0,1826.8" fill="#475569"/>
</g>
<line x1="58.0" y1="3167.9" x2="1098.0" y2="3167.9" stroke="#9ca3af" stroke-width="0.9"/>
<line x1="58.0" y1="3163.9" x2="58.0" y2="3171.9" stroke="#9ca3af" stroke-width="0.9"/>
<line x1="1098.0" y1="3163.9" x2="1098.0" y2="3171.9" stroke="#9ca3af" stroke-width="0.9"/>
<line x1="61.0" y1="3164.9" x2="58.0" y2="3167.9" stroke="#9ca3af" stroke-width="0.9"/>
<line x1="61.0" y1="3170.9" x2="58.0" y2="3167.9" stroke="#9ca3af" stroke-width="0.9"/>
<line x1="1095.0" y1="3164.9" x2="1098.0" y2="3167.9" stroke="#9ca3af" stroke-width="0.9"/>
<line x1="1095.0" y1="3170.9" x2="1098.0" y2="3167.9" stroke="#9ca3af" stroke-width="0.9"/>
<text x="544.0" y="3161.9" fill="#9ca3af" font-size="8" font-family="Segoe UI, Microsoft JhengHei, sans-serif" font-weight="500">DIM:W 6000mm</text>
<line x1="30.0" y1="90.0" x2="30.0" y2="3145.9" stroke="#9ca3af" stroke-width="0.9"/>
<line x1="26.0" y1="90.0" x2="34.0" y2="90.0" stroke="#9ca3af" stroke-width="0.9"/>
<line x1="26.0" y1="3145.9" x2="34.0" y2="3145.9" stroke="#9ca3af" stroke-width="0.9"/>
<line x1="27.0" y1="93.0" x2="30.0" y2="90.0" stroke="#9ca3af" stroke-width="0.9"/>
<line x1="33.0" y1="93.0" x2="30.0" y2="90.0" stroke="#9ca3af" stroke-width="0.9"/>
<line x1="27.0" y1="3142.9" x2="30.0" y2="3145.9" stroke="#9ca3af" stroke-width="0.9"/>
<line x1="33.0" y1="3142.9" x2="30.0" y2="3145.9" stroke="#9ca3af" stroke-width="0.9"/>
<text x="37.0" y="1617.9" fill="#9ca3af" font-size="8" font-family="Segoe UI, Microsoft JhengHei, sans-serif" font-weight="500">DIM:D 17630mm</text>
<circle cx="1122.0" cy="40.0" r="14.0" fill="#ffffff" stroke="#111827" stroke-width="1.1"/>
<polygon points="1122.0,30.0 1117.0,43.0 1127.0,43.0" fill="#111827"/>
<text x="1112.0" y="64.0" fill="#111827" font-size="10" font-family="Segoe UI, Microsoft JhengHei, sans-serif" font-weight="700">N↑</text>
<text x="58.0" y="3203.9" fill="#111827" font-size="9" font-family="Segoe UI, Microsoft JhengHei, sans-serif" font-weight="700">LEGEND:</text>
<rect x="116.0" y="3193.9" width="18" height="10" fill="#fffaf3" stroke="#cbd5e1" stroke-width="0.8"/>
<text x="139.0" y="3203.9" fill="#64748b" font-size="9" font-family="Segoe UI, Microsoft JhengHei, sans-serif" font-weight="500">公共</text>
<rect x="178.0" y="3193.9" width="18" height="10" fill="#f7f8ff" stroke="#cbd5e1" stroke-width="0.8"/>
<text x="201.0" y="3203.9" fill="#64748b" font-size="9" font-family="Segoe UI, Microsoft JhengHei, sans-serif" font-weight="500">臥室</text>
<rect x="240.0" y="3193.9" width="18" height="10" fill="#f3fdff" stroke="#cbd5e1" stroke-width="0.8"/>
<path data-hatch-kind="bath" d="M 240.0 3194.9 L 249.0 3203.9 M 248.0 3193.9 L 258.0 3203.9 M 257.0 3193.9 L 258.0 3194.9" fill="none" stroke="#94a3b8" stroke-width="0.55" opacity="0.28" pointer-events="none"/>
<text x="263.0" y="3203.9" fill="#64748b" font-size="9" font-family="Segoe UI, Microsoft JhengHei, sans-serif" font-weight="500">濕區</text>
<rect x="302.0" y="3193.9" width="18" height="10" fill="#f7f9fc" stroke="#cbd5e1" stroke-width="0.8"/>
<path data-hatch-kind="service" d="M 302.0 3193.9 L 312.0 3203.9 M 312.0 3193.9 L 320.0 3201.9" fill="none" stroke="#94a3b8" stroke-width="0.50" opacity="0.20" pointer-events="none"/>
<text x="325.0" y="3203.9" fill="#64748b" font-size="9" font-family="Segoe UI, Microsoft JhengHei, sans-serif" font-weight="500">設備</text>
<rect x="364.0" y="3193.9" width="18" height="10" fill="#f2fbf5" stroke="#cbd5e1" stroke-width="0.8"/>
<path data-hatch-kind="outdoor" d="M 370.0 3193.9 V 3203.9 M 364.0 3199.9 H 382.0" fill="none" stroke="#94a3b8" stroke-width="0.45" opacity="0.18" pointer-events="none"/>
<text x="387.0" y="3203.9" fill="#64748b" font-size="9" font-family="Segoe UI, Microsoft JhengHei, sans-serif" font-weight="500">戶外</text>
<line x1="434.0" y1="3198.9" x2="462.0" y2="3198.9" stroke="#111827" stroke-width="4.2"/>
<text x="470.0" y="3203.9" fill="#64748b" font-size="9" font-family="Segoe UI, Microsoft JhengHei, sans-serif" font-weight="500">外牆</text>
<line x1="508.0" y1="3198.9" x2="536.0" y2="3198.9" stroke="#374151" stroke-width="2.2"/>
<text x="544.0" y="3203.9" fill="#64748b" font-size="9" font-family="Segoe UI, Microsoft JhengHei, sans-serif" font-weight="500">內牆</text>
<line x1="582.0" y1="3198.9" x2="608.0" y2="3198.9" stroke="#2563eb" stroke-width="2.0"/>
<text x="616.0" y="3203.9" fill="#64748b" font-size="9" font-family="Segoe UI, Microsoft JhengHei, sans-serif" font-weight="500">窗</text>
<line x1="646.0" y1="3198.9" x2="672.0" y2="3198.9" stroke="#475569" stroke-width="1.2"/>
<text x="680.0" y="3203.9" fill="#64748b" font-size="9" font-family="Segoe UI, Microsoft JhengHei, sans-serif" font-weight="500">門</text>
<text x="58.0" y="3269.0" fill="#64748b" font-size="9" font-family="Segoe UI, Microsoft JhengHei, sans-serif" font-weight="400">Generated: 2026-09-21T06:21:41.779075+00:00 | layout-top1-svg-v2 | style=presentation</text>
</svg>