<svg xmlns="http://www.w3.org/2000/svg" width="1274" height="749" viewBox="0 0 1274 749" role="img" aria-label="B floor-4">
<rect x="0" y="0" width="1274" height="749" fill="#f6f6f6"/>
<rect x="46.0" y="94.0" width="1004.0" height="515.1" fill="#ffffff" stroke="#b5b5b5" stroke-width="1.2"/>
<text x="58.0" y="34.0" fill="#111" font-size="20" font-family="Segoe UI, Microsoft JhengHei, sans-serif" font-weight="700">[B] floor-4 RF</text>
<text x="58.0" y="58.0" fill="#333" font-size="13" font-family="Segoe UI, Microsoft JhengHei, sans-serif" font-weight="500">RF 設備核心</text>
<text x="58.0" y="80.0" fill="#555" font-size="11" font-family="Segoe UI, Microsoft JhengHei, sans-serif" font-weight="500">Strategy: daylight | Total 59.89 | C 52.2 D 57.0 M 70.0</text>
<text x="58.0" y="96.0" fill="#666" font-size="9" font-family="Segoe UI, Microsoft JhengHei, sans-serif" font-weight="400">Default dims(mm): wall int/ext 115/200 | door entry/int/bath 1000/900/800</text>
<text x="58.0" y="110.0" fill="#4b5563" font-size="9" font-family="Segoe UI, Microsoft JhengHei, sans-serif" font-weight="500">Layout source: precise-mm geometry</text>
<rect x="58.0" y="116.0" width="980.0" height="115.8" fill="#fdfdfd" stroke="#1d1d1d" stroke-width="2.2"/>
<text x="66.0" y="136.0" fill="#111" font-size="12" font-family="Segoe UI, Microsoft JhengHei, sans-serif" font-weight="700">🪜 樓梯出口（RF）</text>
<text x="66.0" y="154.0" fill="#575757" font-size="9" font-family="Segoe UI, Microsoft JhengHei, sans-serif" font-weight="400">⬇️3F + 防水人孔蓋</text>
<text x="66.0" y="212.8" fill="#666" font-size="8" font-family="Segoe UI, Microsoft JhengHei, sans-serif" font-weight="400">標示： 🪜 樓梯出口（⬇️3F）+ 防水人孔蓋</text>
<text x="66.0" y="223.8" fill="#666" font-size="8" font-family="Segoe UI, Microsoft JhengHei, sans-serif" font-weight="400">人孔蓋： 可掀式防水蓋板，標示「設備層入口」</text>
<line x1="68.0" y1="132.0" x2="1028.0" y2="132.0" stroke="#555" stroke-width="0.9"/>
<line x1="68.0" y1="144.0" x2="1028.0" y2="144.0" stroke="#555" stroke-width="0.9"/>
<line x1="68.0" y1="155.9" x2="1028.0" y2="155.9" stroke="#555" stroke-width="0.9"/>
<line x1="68.0" y1="167.9" x2="1028.0" y2="167.9" stroke="#555" stroke-width="0.9"/>
<line x1="68.0" y1="179.9" x2="1028.0" y2="179.9" stroke="#555" stroke-width="0.9"/>
<line x1="68.0" y1="191.9" x2="1028.0" y2="191.9" stroke="#555" stroke-width="0.9"/>
<line x1="68.0" y1="203.8" x2="1028.0" y2="203.8" stroke="#555" stroke-width="0.9"/>
<rect x="58.0" y="231.8" width="490.0" height="98.0" fill="#fdfdfd" stroke="#1d1d1d" stroke-width="2.2"/>
<text x="66.0" y="251.8" fill="#111" font-size="12" font-family="Segoe UI, Microsoft JhengHei, sans-serif" font-weight="700">🔥 Haier 熱泵熱水器</text>
<text x="66.0" y="269.8" fill="#575757" font-size="9" font-family="Segoe UI, Microsoft JhengHei, sans-serif" font-weight="400">1000L｜基座抬高15cm</text>
<text x="66.0" y="310.8" fill="#666" font-size="8" font-family="Segoe UI, Microsoft JhengHei, sans-serif" font-weight="400">B-D1 排水 | B-V2 旁通 | 🌀 防颱基座</text>
<text x="66.0" y="321.8" fill="#666" font-size="8" font-family="Segoe UI, Microsoft JhengHei, sans-serif" font-weight="400">水源： 來自 RF 水塔（經 VF800 或重力）</text>
<rect x="548.0" y="231.8" width="490.0" height="98.0" fill="#fdfdfd" stroke="#1d1d1d" stroke-width="2.2"/>
<text x="556.0" y="251.8" fill="#111" font-size="12" font-family="Segoe UI, Microsoft JhengHei, sans-serif" font-weight="700">🛢️ B 棟水塔</text>
<text x="556.0" y="269.8" fill="#575757" font-size="9" font-family="Segoe UI, Microsoft JhengHei, sans-serif" font-weight="400">基座抬高15cm</text>
<text x="556.0" y="310.8" fill="#666" font-size="8" font-family="Segoe UI, Microsoft JhengHei, sans-serif" font-weight="400">B-C1 止回 | B-A2 吸收器 | ⚡ 專迴</text>
<text x="556.0" y="321.8" fill="#666" font-size="8" font-family="Segoe UI, Microsoft JhengHei, sans-serif" font-weight="400">容量： 1000L 不鏽鋼水塔</text>
<rect x="58.0" y="329.8" width="980.0" height="115.8" fill="#fdfdfd" stroke="#1d1d1d" stroke-width="2.2"/>
<text x="66.0" y="349.8" fill="#111" font-size="12" font-family="Segoe UI, Microsoft JhengHei, sans-serif" font-weight="700">🏗️ 活動平台 / 曬衣棚架</text>
<text x="66.0" y="367.8" fill="#575757" font-size="9" font-family="Segoe UI, Microsoft JhengHei, sans-serif" font-weight="400">基座抬高15cm</text>
<text x="66.0" y="426.6" fill="#666" font-size="8" font-family="Segoe UI, Microsoft JhengHei, sans-serif" font-weight="400">B-C3 熱水止回 | 冷凝排水→回收 | ⚡ 專迴</text>
<text x="66.0" y="437.6" fill="#666" font-size="8" font-family="Segoe UI, Microsoft JhengHei, sans-serif" font-weight="400">功能： 曬衣、活動空間</text>
<rect x="58.0" y="445.6" width="980.0" height="151.5" fill="#fdfdfd" stroke="#1d1d1d" stroke-width="2.2"/>
<text x="66.0" y="465.6" fill="#111" font-size="12" font-family="Segoe UI, Microsoft JhengHei, sans-serif" font-weight="700">⚙️ VF800 變頻恆壓泵</text>
<text x="66.0" y="483.6" fill="#575757" font-size="9" font-family="Segoe UI, Microsoft JhengHei, sans-serif" font-weight="400">預留孔：未來太陽能擴充</text>
<text x="66.0" y="578.1" fill="#666" font-size="8" font-family="Segoe UI, Microsoft JhengHei, sans-serif" font-weight="400">預留管路→1F電表</text>
<text x="66.0" y="589.1" fill="#666" font-size="8" font-family="Segoe UI, Microsoft JhengHei, sans-serif" font-weight="400">功能： 從水塔取水，恆壓供應全戶冷水</text>
<line x1="58.0" y1="116.0" x2="1038.0" y2="116.0" stroke="#111" stroke-width="3.8"/>
<line x1="1038.0" y1="116.0" x2="1038.0" y2="231.8" stroke="#111" stroke-width="3.8"/>
<line x1="58.0" y1="116.0" x2="58.0" y2="231.8" stroke="#111" stroke-width="3.8"/>
<line x1="58.0" y1="231.8" x2="58.0" y2="329.8" stroke="#111" stroke-width="3.8"/>
<line x1="1038.0" y1="231.8" x2="1038.0" y2="329.8" stroke="#111" stroke-width="3.8"/>
<line x1="1038.0" y1="329.8" x2="1038.0" y2="445.6" stroke="#111" stroke-width="3.8"/>
<line x1="58.0" y1="329.8" x2="58.0" y2="445.6" stroke="#111" stroke-width="3.8"/>
<line x1="1038.0" y1="445.6" x2="1038.0" y2="597.1" stroke="#111" stroke-width="3.8"/>
<line x1="58.0" y1="597.1" x2="1038.0" y2="597.1" stroke="#111" stroke-width="3.8"/>
<line x1="58.0" y1="445.6" x2="58.0" y2="597.1" stroke="#111" stroke-width="3.8"/>
<line x1="530.0" y1="116.0" x2="566.0" y2="116.0" stroke="#ffffff" stroke-width="6.2"/>
<line x1="531.2" y1="118.8" x2="564.8" y2="118.8" stroke="#2d6ea3" stroke-width="2.2"/>
<text x="530.0" y="110.0" fill="#2d6ea3" font-size="8" font-family="Segoe UI, Microsoft JhengHei, sans-serif" font-weight="500">WIN:600</text>
<line x1="58.0" y1="262.8" x2="58.0" y2="298.8" stroke="#ffffff" stroke-width="6.2"/>
<line x1="60.8" y1="264.0" x2="60.8" y2="297.6" stroke="#2d6ea3" stroke-width="2.2"/>
<text x="66.0" y="258.8" fill="#2d6ea3" font-size="8" font-family="Segoe UI, Microsoft JhengHei, sans-serif" font-weight="500">WIN:600</text>
<line x1="1038.0" y1="262.8" x2="1038.0" y2="298.8" stroke="#ffffff" stroke-width="6.2"/>
<line x1="1035.2" y1="264.0" x2="1035.2" y2="297.6" stroke="#2d6ea3" stroke-width="2.2"/>
<text x="976.0" y="258.8" fill="#2d6ea3" font-size="8" font-family="Segoe UI, Microsoft JhengHei, sans-serif" font-weight="500">WIN:600</text>
<line x1="1038.0" y1="357.7" x2="1038.0" y2="417.7" stroke="#ffffff" stroke-width="6.2"/>
<line x1="1035.2" y1="358.9" x2="1035.2" y2="416.5" stroke="#2d6ea3" stroke-width="2.2"/>
<text x="976.0" y="353.7" fill="#2d6ea3" font-size="8" font-family="Segoe UI, Microsoft JhengHei, sans-serif" font-weight="500">WIN:1000</text>
<line x1="1038.0" y1="491.4" x2="1038.0" y2="551.4" stroke="#ffffff" stroke-width="6.2"/>
<line x1="1035.2" y1="492.6" x2="1035.2" y2="550.2" stroke="#2d6ea3" stroke-width="2.2"/>
<text x="976.0" y="487.4" fill="#2d6ea3" font-size="8" font-family="Segoe UI, Microsoft JhengHei, sans-serif" font-weight="500">WIN:1000</text>
<line x1="276.0" y1="231.8" x2="330.0" y2="231.8" stroke="#ffffff" stroke-width="4.8"/>
<line x1="276.0" y1="231.8" x2="276.0" y2="285.8" stroke="#222" stroke-width="1.2"/>
<path d="M 330.0 231.8 A 54.0 54.0 0 0 0 276.0 285.8" fill="none" stroke="#666" stroke-width="0.9"/>
<text x="334.0" y="241.8" fill="#666" font-size="8" font-family="Segoe UI, Microsoft JhengHei, sans-serif" font-weight="500">DW:90</text>
<line x1="766.0" y1="231.8" x2="820.0" y2="231.8" stroke="#ffffff" stroke-width="4.8"/>
<line x1="766.0" y1="231.8" x2="766.0" y2="285.8" stroke="#222" stroke-width="1.2"/>
<path d="M 820.0 231.8 A 54.0 54.0 0 0 0 766.0 285.8" fill="none" stroke="#666" stroke-width="0.9"/>
<text x="824.0" y="241.8" fill="#666" font-size="8" font-family="Segoe UI, Microsoft JhengHei, sans-serif" font-weight="500">DW:90</text>
<line x1="279.0" y1="329.8" x2="327.0" y2="329.8" stroke="#ffffff" stroke-width="4.8"/>
<line x1="279.0" y1="329.8" x2="279.0" y2="281.8" stroke="#222" stroke-width="1.2"/>
<path d="M 327.0 329.8 A 48.0 48.0 0 0 1 279.0 281.8" fill="none" stroke="#666" stroke-width="0.9"/>
<text x="331.0" y="339.8" fill="#666" font-size="8" font-family="Segoe UI, Microsoft JhengHei, sans-serif" font-weight="500">DW:80</text>
<line x1="521.0" y1="445.6" x2="575.0" y2="445.6" stroke="#ffffff" stroke-width="4.8"/>
<line x1="521.0" y1="445.6" x2="521.0" y2="391.6" stroke="#222" stroke-width="1.2"/>
<path d="M 575.0 445.6 A 54.0 54.0 0 0 1 521.0 391.6" fill="none" stroke="#666" stroke-width="0.9"/>
<text x="579.0" y="455.6" fill="#666" font-size="8" font-family="Segoe UI, Microsoft JhengHei, sans-serif" font-weight="500">DW:90</text>
<line x1="1038.0" y1="162.4" x2="1038.0" y2="222.4" stroke="#ffffff" stroke-width="5.4"/>
<polygon points="1062.0,232.4 1082.0,232.4 1072.0,214.4" fill="#666"/>
<text x="1062.0" y="248.4" fill="#333" font-size="10" font-family="Segoe UI, Microsoft JhengHei, sans-serif" font-weight="700">ENT</text>
<text x="1060.0" y="260.4" fill="#666" font-size="8" font-family="Segoe UI, Microsoft JhengHei, sans-serif" font-weight="500">DW:100</text>
<line x1="58.0" y1="356.5" x2="1038.0" y2="356.5" stroke="#888" stroke-width="0.9" stroke-dasharray="6 4"/>
<circle cx="48.0" cy="356.5" r="8" fill="#fff" stroke="#666" stroke-width="1.0"/>
<circle cx="1048.0" cy="356.5" r="8" fill="#fff" stroke="#666" stroke-width="1.0"/>
<text x="44.0" y="360.5" fill="#333" font-size="9" font-family="Segoe UI, Microsoft JhengHei, sans-serif" font-weight="700">A</text>
<text x="1044.0" y="360.5" fill="#333" font-size="9" font-family="Segoe UI, Microsoft JhengHei, sans-serif" font-weight="700">A</text>
<text x="1060.0" y="352.5" fill="#666" font-size="8" font-family="Segoe UI, Microsoft JhengHei, sans-serif" font-weight="600">ELEV:A-A</text>
<line x1="548.0" y1="116.0" x2="548.0" y2="597.1" stroke="#888" stroke-width="0.9" stroke-dasharray="6 4"/>
<circle cx="548.0" cy="106.0" r="8" fill="#fff" stroke="#666" stroke-width="1.0"/>
<circle cx="548.0" cy="607.1" r="8" fill="#fff" stroke="#666" stroke-width="1.0"/>
<text x="544.0" y="110.0" fill="#333" font-size="9" font-family="Segoe UI, Microsoft JhengHei, sans-serif" font-weight="700">B</text>
<text x="544.0" y="611.1" fill="#333" font-size="9" font-family="Segoe UI, Microsoft JhengHei, sans-serif" font-weight="700">B</text>
<text x="562.0" y="102.0" fill="#666" font-size="8" font-family="Segoe UI, Microsoft JhengHei, sans-serif" font-weight="600">ELEV:B-B</text>
<line x1="58.0" y1="619.1" x2="1038.0" y2="619.1" stroke="#777" stroke-width="0.9"/>
<line x1="58.0" y1="615.1" x2="58.0" y2="623.1" stroke="#777" stroke-width="0.9"/>
<line x1="1038.0" y1="615.1" x2="1038.0" y2="623.1" stroke="#777" stroke-width="0.9"/>
<line x1="61.0" y1="616.1" x2="58.0" y2="619.1" stroke="#777" stroke-width="0.9"/>
<line x1="61.0" y1="622.1" x2="58.0" y2="619.1" stroke="#777" stroke-width="0.9"/>
<line x1="1035.0" y1="616.1" x2="1038.0" y2="619.1" stroke="#777" stroke-width="0.9"/>
<line x1="1035.0" y1="622.1" x2="1038.0" y2="619.1" stroke="#777" stroke-width="0.9"/>
<text x="514.0" y="613.1" fill="#777" font-size="8" font-family="Segoe UI, Microsoft JhengHei, sans-serif" font-weight="500">DIM:W 11000mm</text>
<line x1="30.0" y1="116.0" x2="30.0" y2="597.1" stroke="#777" stroke-width="0.9"/>
<line x1="26.0" y1="116.0" x2="34.0" y2="116.0" stroke="#777" stroke-width="0.9"/>
<line x1="26.0" y1="597.1" x2="34.0" y2="597.1" stroke="#777" stroke-width="0.9"/>
<line x1="27.0" y1="119.0" x2="30.0" y2="116.0" stroke="#777" stroke-width="0.9"/>
<line x1="33.0" y1="119.0" x2="30.0" y2="116.0" stroke="#777" stroke-width="0.9"/>
<line x1="27.0" y1="594.1" x2="30.0" y2="597.1" stroke="#777" stroke-width="0.9"/>
<line x1="33.0" y1="594.1" x2="30.0" y2="597.1" stroke="#777" stroke-width="0.9"/>
<text x="37.0" y="356.5" fill="#777" font-size="8" font-family="Segoe UI, Microsoft JhengHei, sans-serif" font-weight="500">DIM:D 5400mm</text>
<line x1="58.0" y1="637.1" x2="1038.0" y2="637.1" stroke="#777" stroke-width="0.9"/>
<line x1="58.0" y1="633.1" x2="58.0" y2="641.1" stroke="#777" stroke-width="0.9"/>
<line x1="1038.0" y1="633.1" x2="1038.0" y2="641.1" stroke="#777" stroke-width="0.9"/>
<line x1="61.0" y1="634.1" x2="58.0" y2="637.1" stroke="#777" stroke-width="0.9"/>
<line x1="61.0" y1="640.1" x2="58.0" y2="637.1" stroke="#777" stroke-width="0.9"/>
<line x1="1035.0" y1="634.1" x2="1038.0" y2="637.1" stroke="#777" stroke-width="0.9"/>
<line x1="1035.0" y1="640.1" x2="1038.0" y2="637.1" stroke="#777" stroke-width="0.9"/>
<text x="514.0" y="631.1" fill="#777" font-size="8" font-family="Segoe UI, Microsoft JhengHei, sans-serif" font-weight="500">DIM:C1 11000</text>
<line x1="1058.0" y1="116.0" x2="1058.0" y2="231.8" stroke="#777" stroke-width="0.9"/>
<line x1="1054.0" y1="116.0" x2="1062.0" y2="116.0" stroke="#777" stroke-width="0.9"/>
<line x1="1054.0" y1="231.8" x2="1062.0" y2="231.8" stroke="#777" stroke-width="0.9"/>
<line x1="1055.0" y1="119.0" x2="1058.0" y2="116.0" stroke="#777" stroke-width="0.9"/>
<line x1="1061.0" y1="119.0" x2="1058.0" y2="116.0" stroke="#777" stroke-width="0.9"/>
<line x1="1055.0" y1="228.8" x2="1058.0" y2="231.8" stroke="#777" stroke-width="0.9"/>
<line x1="1061.0" y1="228.8" x2="1058.0" y2="231.8" stroke="#777" stroke-width="0.9"/>
<text x="1065.0" y="173.9" fill="#777" font-size="8" font-family="Segoe UI, Microsoft JhengHei, sans-serif" font-weight="500">DIM:R1 1300</text>
<line x1="1058.0" y1="231.8" x2="1058.0" y2="329.8" stroke="#777" stroke-width="0.9"/>
<line x1="1054.0" y1="231.8" x2="1062.0" y2="231.8" stroke="#777" stroke-width="0.9"/>
<line x1="1054.0" y1="329.8" x2="1062.0" y2="329.8" stroke="#777" stroke-width="0.9"/>
<line x1="1055.0" y1="234.8" x2="1058.0" y2="231.8" stroke="#777" stroke-width="0.9"/>
<line x1="1061.0" y1="234.8" x2="1058.0" y2="231.8" stroke="#777" stroke-width="0.9"/>
<line x1="1055.0" y1="326.8" x2="1058.0" y2="329.8" stroke="#777" stroke-width="0.9"/>
<line x1="1061.0" y1="326.8" x2="1058.0" y2="329.8" stroke="#777" stroke-width="0.9"/>
<text x="1065.0" y="280.8" fill="#777" font-size="8" font-family="Segoe UI, Microsoft JhengHei, sans-serif" font-weight="500">DIM:R2 1100</text>
<line x1="1058.0" y1="329.8" x2="1058.0" y2="445.6" stroke="#777" stroke-width="0.9"/>
<line x1="1054.0" y1="329.8" x2="1062.0" y2="329.8" stroke="#777" stroke-width="0.9"/>
<line x1="1054.0" y1="445.6" x2="1062.0" y2="445.6" stroke="#777" stroke-width="0.9"/>
<line x1="1055.0" y1="332.8" x2="1058.0" y2="329.8" stroke="#777" stroke-width="0.9"/>
<line x1="1061.0" y1="332.8" x2="1058.0" y2="329.8" stroke="#777" stroke-width="0.9"/>
<line x1="1055.0" y1="442.6" x2="1058.0" y2="445.6" stroke="#777" stroke-width="0.9"/>
<line x1="1061.0" y1="442.6" x2="1058.0" y2="445.6" stroke="#777" stroke-width="0.9"/>
<text x="1065.0" y="387.7" fill="#777" font-size="8" font-family="Segoe UI, Microsoft JhengHei, sans-serif" font-weight="500">DIM:R3 1300</text>
<line x1="1058.0" y1="445.6" x2="1058.0" y2="597.1" stroke="#777" stroke-width="0.9"/>
<line x1="1054.0" y1="445.6" x2="1062.0" y2="445.6" stroke="#777" stroke-width="0.9"/>
<line x1="1054.0" y1="597.1" x2="1062.0" y2="597.1" stroke="#777" stroke-width="0.9"/>
<line x1="1055.0" y1="448.6" x2="1058.0" y2="445.6" stroke="#777" stroke-width="0.9"/>
<line x1="1061.0" y1="448.6" x2="1058.0" y2="445.6" stroke="#777" stroke-width="0.9"/>
<line x1="1055.0" y1="594.1" x2="1058.0" y2="597.1" stroke="#777" stroke-width="0.9"/>
<line x1="1061.0" y1="594.1" x2="1058.0" y2="597.1" stroke="#777" stroke-width="0.9"/>
<text x="1065.0" y="521.4" fill="#777" font-size="8" font-family="Segoe UI, Microsoft JhengHei, sans-serif" font-weight="500">DIM:R4 1700</text>
<circle cx="1100.0" cy="58.0" r="14.0" fill="#ffffff" stroke="#222" stroke-width="1.1"/>
<polygon points="1100.0,48.0 1095.0,61.0 1105.0,61.0" fill="#222"/>
<text x="1090.0" y="82.0" fill="#222" font-size="10" font-family="Segoe UI, Microsoft JhengHei, sans-serif" font-weight="700">N↑</text>
<rect x="1056.0" y="82.0" width="208.0" height="148.0" fill="#ffffff" stroke="#b5b5b5" stroke-width="1.0"/>
<text x="1066.0" y="100.0" fill="#222" font-size="11" font-family="Segoe UI, Microsoft JhengHei, sans-serif" font-weight="700">LEGEND:</text>
<line x1="1066.0" y1="116.0" x2="1104.0" y2="116.0" stroke="#111" stroke-width="3.8"/>
<text x="1112.0" y="120.0" fill="#333" font-size="9" font-family="Segoe UI, Microsoft JhengHei, sans-serif" font-weight="500">Exterior wall</text>
<line x1="1066.0" y1="134.0" x2="1104.0" y2="134.0" stroke="#1d1d1d" stroke-width="2.2"/>
<text x="1112.0" y="138.0" fill="#333" font-size="9" font-family="Segoe UI, Microsoft JhengHei, sans-serif" font-weight="500">Interior wall</text>
<line x1="1066.0" y1="152.0" x2="1094.0" y2="152.0" stroke="#ffffff" stroke-width="4.8"/>
<line x1="1080.0" y1="152.0" x2="1096.0" y2="140.0" stroke="#222" stroke-width="1.1"/>
<text x="1112.0" y="156.0" fill="#333" font-size="9" font-family="Segoe UI, Microsoft JhengHei, sans-serif" font-weight="500">Door swing (DW)</text>
<line x1="1066.0" y1="170.0" x2="1100.0" y2="170.0" stroke="#ffffff" stroke-width="4.8"/>
<line x1="1067.0" y1="170.0" x2="1099.0" y2="170.0" stroke="#2d6ea3" stroke-width="2.2"/>
<text x="1112.0" y="174.0" fill="#333" font-size="9" font-family="Segoe UI, Microsoft JhengHei, sans-serif" font-weight="500">Window opening (WIN)</text>
<polygon points="1072.0,182.0 1082.0,182.0 1077.0,191.0" fill="#666"/>
<text x="1112.0" y="192.0" fill="#333" font-size="9" font-family="Segoe UI, Microsoft JhengHei, sans-serif" font-weight="500">Entrance marker (ENT)</text>
<rect x="1066.0" y="199.0" width="26" height="12" fill="#f6f6f6" stroke="#666" stroke-width="0.9"/>
<text x="1112.0" y="209.0" fill="#333" font-size="9" font-family="Segoe UI, Microsoft JhengHei, sans-serif" font-weight="500">Furniture block</text>
<text x="58.0" y="737.0" fill="#666" font-size="9" font-family="Segoe UI, Microsoft JhengHei, sans-serif" font-weight="400">Generated: 2026-05-12T00:30:40.326355+00:00 | layout-top1-svg-v2</text>
</svg>