<svg xmlns="http://www.w3.org/2000/svg" width="1162" height="887" viewBox="0 0 1162 887" role="img" aria-label="C floor-1">
<metadata>{&quot;schema_version&quot;: &quot;layout-top1-svg-v2&quot;, &quot;drawing_style&quot;: &quot;presentation&quot;, &quot;presentation_version&quot;: 2, &quot;building_id&quot;: &quot;C&quot;, &quot;floor_id&quot;: &quot;floor-1&quot;, &quot;candidate_id&quot;: &quot;circulation&quot;, &quot;validation_markers&quot;: [&quot;ENT&quot;, &quot;DW:&quot;, &quot;WIN:&quot;, &quot;DIM:&quot;, &quot;LEGEND:&quot;, &quot;ELEV:&quot;]}</metadata>

<defs>
  <pattern id="p2-bath-hatch" patternUnits="userSpaceOnUse" width="9" height="9" patternTransform="rotate(45)">
    <rect width="9" height="9" fill="#f3fdff"/>
    <line x1="0" y1="0" x2="0" y2="9" stroke="#94a3b8" stroke-width="0.55" opacity="0.28"/>
  </pattern>
  <pattern id="p2-service-hatch" patternUnits="userSpaceOnUse" width="10" height="10">
    <rect width="10" height="10" fill="#f7f9fc"/>
    <path d="M 0 10 L 10 0" stroke="#94a3b8" stroke-width="0.5" opacity="0.20"/>
  </pattern>
  <pattern id="p2-outdoor-hatch" patternUnits="userSpaceOnUse" width="12" height="12">
    <rect width="12" height="12" fill="#f2fbf5"/>
    <path d="M 0 6 H 12 M 6 0 V 12" stroke="#94a3b8" stroke-width="0.45" opacity="0.18"/>
  </pattern>
</defs>

<rect x="0" y="0" width="1162" height="887" fill="#f3f4f6"/>
<rect x="40.0" y="62.0" width="1076.0" height="735.8" fill="#ffffff" stroke="#d1d5db" stroke-width="1.1"/>
<rect x="50.0" y="72.0" width="1056.0" height="683.8" fill="none" stroke="#e2e8f0" stroke-width="0.8"/>
<text x="58.0" y="32.0" fill="#111827" font-size="19" font-family="Segoe UI, Microsoft JhengHei, sans-serif" font-weight="700">[C] floor-1 1F</text>
<text x="58.0" y="55.0" fill="#64748b" font-size="12" font-family="Segoe UI, Microsoft JhengHei, sans-serif" font-weight="500">1F IDF×孝親</text>
<rect x="824.0" y="18.0" width="274.0" height="48" fill="#ffffff" stroke="#d1d5db" stroke-width="0.8"/>
<text x="834.0" y="35.0" fill="#111827" font-size="10" font-family="Segoe UI, Microsoft JhengHei, sans-serif" font-weight="700">住宅平面討論圖</text>
<text x="834.0" y="51.0" fill="#64748b" font-size="8" font-family="Segoe UI, Microsoft JhengHei, sans-serif" font-weight="500">Selection: circulation | presentation v2</text>
<text x="1014.0" y="51.0" fill="#64748b" font-size="8" font-family="Segoe UI, Microsoft JhengHei, sans-serif" font-weight="500">Scale: diagram</text>
<rect x="58.0" y="90.0" width="1040.0" height="113.5" fill="url(#p2-outdoor-hatch)" stroke="#374151" stroke-width="2.2"/>
<g opacity="0.42">
<rect x="65.0" y="97.0" width="1026.0" height="99.5" fill="none" stroke="#8a8a8a" stroke-dasharray="5 4" stroke-width="0.9"/>
</g>
<text x="578.0" y="139.7" fill="#111827" font-size="12" font-family="Segoe UI, Microsoft JhengHei, sans-serif" font-weight="700" text-anchor="middle" dominant-baseline="middle" paint-order="stroke" stroke="#ffffff" stroke-width="2.4" stroke-linejoin="round">前院車庫</text>
<text x="578.0" y="157.7" fill="#64748b" font-size="8" font-family="Segoe UI, Microsoft JhengHei, sans-serif" font-weight="500" text-anchor="middle" dominant-baseline="middle" paint-order="stroke" stroke="#ffffff" stroke-width="2.4" stroke-linejoin="round">約 2 車位 + 機車</text>
<rect x="58.0" y="203.5" width="260.0" height="160.7" fill="#f8fafc" stroke="#374151" stroke-width="2.2"/>
<g opacity="0.42">
<line x1="68.0" y1="219.5" x2="308.0" y2="219.5" stroke="#64748b" stroke-width="0.9"/>
<line x1="68.0" y1="237.8" x2="308.0" y2="237.8" stroke="#64748b" stroke-width="0.9"/>
<line x1="68.0" y1="256.2" x2="308.0" y2="256.2" stroke="#64748b" stroke-width="0.9"/>
<line x1="68.0" y1="274.6" x2="308.0" y2="274.6" stroke="#64748b" stroke-width="0.9"/>
<line x1="68.0" y1="293.0" x2="308.0" y2="293.0" stroke="#64748b" stroke-width="0.9"/>
<line x1="68.0" y1="311.4" x2="308.0" y2="311.4" stroke="#64748b" stroke-width="0.9"/>
<line x1="68.0" y1="329.8" x2="308.0" y2="329.8" stroke="#64748b" stroke-width="0.9"/>
</g>
<text x="188.0" y="276.8" fill="#111827" font-size="12" font-family="Segoe UI, Microsoft JhengHei, sans-serif" font-weight="700" text-anchor="middle" dominant-baseline="middle" paint-order="stroke" stroke="#ffffff" stroke-width="2.4" stroke-linejoin="round">樓梯前拉門阻隔（1F↔2F）</text>
<text x="188.0" y="294.8" fill="#64748b" font-size="8" font-family="Segoe UI, Microsoft JhengHei, sans-serif" font-weight="500" text-anchor="middle" dominant-baseline="middle" paint-order="stroke" stroke="#ffffff" stroke-width="2.4" stroke-linejoin="round">公私區隔</text>
<rect x="318.0" y="203.5" width="520.0" height="160.7" fill="url(#p2-outdoor-hatch)" stroke="#374151" stroke-width="2.2"/>
<g opacity="0.42">
<rect x="325.0" y="210.5" width="506.0" height="146.7" fill="none" stroke="#8a8a8a" stroke-dasharray="5 4" stroke-width="0.9"/>
</g>
<text x="578.0" y="276.8" fill="#111827" font-size="12" font-family="Segoe UI, Microsoft JhengHei, sans-serif" font-weight="700" text-anchor="middle" dominant-baseline="middle" paint-order="stroke" stroke="#ffffff" stroke-width="2.4" stroke-linejoin="round">側院（邊間優勢｜通風關鍵）</text>
<text x="578.0" y="294.8" fill="#64748b" font-size="8" font-family="Segoe UI, Microsoft JhengHei, sans-serif" font-weight="500" text-anchor="middle" dominant-baseline="middle" paint-order="stroke" stroke="#ffffff" stroke-width="2.4" stroke-linejoin="round">風道核心</text>
<rect x="838.0" y="203.5" width="260.0" height="160.7" fill="url(#p2-outdoor-hatch)" stroke="#374151" stroke-width="2.2"/>
<g opacity="0.42">
<rect x="845.0" y="210.5" width="246.0" height="146.7" fill="none" stroke="#8a8a8a" stroke-dasharray="5 4" stroke-width="0.9"/>
</g>
<text x="968.0" y="276.8" fill="#111827" font-size="12" font-family="Segoe UI, Microsoft JhengHei, sans-serif" font-weight="700" text-anchor="middle" dominant-baseline="middle" paint-order="stroke" stroke="#ffffff" stroke-width="2.4" stroke-linejoin="round">側院</text>
<text x="968.0" y="294.8" fill="#64748b" font-size="8" font-family="Segoe UI, Microsoft JhengHei, sans-serif" font-weight="500" text-anchor="middle" dominant-baseline="middle" paint-order="stroke" stroke="#ffffff" stroke-width="2.4" stroke-linejoin="round">格柵導風 45°</text>
<rect x="58.0" y="364.2" width="356.5" height="104.0" fill="#fffbeb" stroke="#374151" stroke-width="2.2"/>
<g opacity="0.42">
<rect x="188.3" y="416.2" width="96.0" height="35.4" fill="#ffffff" stroke="#64748b" stroke-width="1.0"/>
<circle cx="177.0" cy="425.0" r="6.2" fill="#ffffff" stroke="#64748b" stroke-width="0.9"/>
<circle cx="177.0" cy="442.7" r="6.2" fill="#ffffff" stroke="#64748b" stroke-width="0.9"/>
<circle cx="295.5" cy="425.0" r="6.2" fill="#ffffff" stroke="#64748b" stroke-width="0.9"/>
<circle cx="295.5" cy="442.7" r="6.2" fill="#ffffff" stroke="#64748b" stroke-width="0.9"/>
</g>
<text x="236.3" y="416.2" fill="#111827" font-size="12" font-family="Segoe UI, Microsoft JhengHei, sans-serif" font-weight="700" text-anchor="middle" dominant-baseline="middle" paint-order="stroke" stroke="#ffffff" stroke-width="2.4" stroke-linejoin="round">餐廳</text>
<rect x="414.5" y="364.2" width="386.3" height="104.0" fill="#f5fff8" stroke="#374151" stroke-width="2.2"/>
<g opacity="0.42">
<rect x="424.5" y="444.2" width="366.3" height="14.0" fill="#f6f6f6" stroke="#64748b" stroke-width="1.0"/>
<circle cx="438.5" cy="451.2" r="4" fill="none" stroke="#64748b" stroke-width="0.9"/>
<circle cx="448.5" cy="451.2" r="4" fill="none" stroke="#64748b" stroke-width="0.9"/>
</g>
<text x="607.7" y="416.2" fill="#111827" font-size="12" font-family="Segoe UI, Microsoft JhengHei, sans-serif" font-weight="700" text-anchor="middle" dominant-baseline="middle" paint-order="stroke" stroke="#ffffff" stroke-width="2.4" stroke-linejoin="round">廚房</text>
<rect x="800.8" y="364.2" width="297.2" height="104.0" fill="#f8fafc" stroke="#374151" stroke-width="2.2"/>
<g opacity="0.42">
<line x1="810.8" y1="380.2" x2="1088.0" y2="380.2" stroke="#64748b" stroke-width="0.9"/>
<line x1="810.8" y1="390.5" x2="1088.0" y2="390.5" stroke="#64748b" stroke-width="0.9"/>
<line x1="810.8" y1="400.8" x2="1088.0" y2="400.8" stroke="#64748b" stroke-width="0.9"/>
<line x1="810.8" y1="411.0" x2="1088.0" y2="411.0" stroke="#64748b" stroke-width="0.9"/>
<line x1="810.8" y1="421.3" x2="1088.0" y2="421.3" stroke="#64748b" stroke-width="0.9"/>
<line x1="810.8" y1="431.6" x2="1088.0" y2="431.6" stroke="#64748b" stroke-width="0.9"/>
<line x1="810.8" y1="441.9" x2="1088.0" y2="441.9" stroke="#64748b" stroke-width="0.9"/>
</g>
<text x="949.4" y="409.2" fill="#111827" font-size="12" font-family="Segoe UI, Microsoft JhengHei, sans-serif" font-weight="700" text-anchor="middle" dominant-baseline="middle" paint-order="stroke" stroke="#ffffff" stroke-width="2.4" stroke-linejoin="round">1F 樓梯間（⬆️2F）+ IDF 弱電機櫃</text>
<text x="949.4" y="427.2" fill="#64748b" font-size="8" font-family="Segoe UI, Microsoft JhengHei, sans-serif" font-weight="500" text-anchor="middle" dominant-baseline="middle" paint-order="stroke" stroke="#ffffff" stroke-width="2.4" stroke-linejoin="round">核心節點</text>
<rect x="58.0" y="468.2" width="742.8" height="122.9" fill="#ffffff" stroke="#374151" stroke-width="2.2"/>
<g opacity="0.42">
</g>
<text x="429.4" y="522.6" fill="#111827" font-size="12" font-family="Segoe UI, Microsoft JhengHei, sans-serif" font-weight="700" text-anchor="middle" dominant-baseline="middle" paint-order="stroke" stroke="#ffffff" stroke-width="2.4" stroke-linejoin="round">孝親房</text>
<text x="429.4" y="540.6" fill="#64748b" font-size="8" font-family="Segoe UI, Microsoft JhengHei, sans-serif" font-weight="500" text-anchor="middle" dominant-baseline="middle" paint-order="stroke" stroke="#ffffff" stroke-width="2.4" stroke-linejoin="round">約 5 坪｜長輩友善</text>
<rect x="800.8" y="468.2" width="297.2" height="122.9" fill="#ffffff" stroke="#374151" stroke-width="2.2"/>
<g opacity="0.42">
</g>
<text x="949.4" y="522.6" fill="#111827" font-size="12" font-family="Segoe UI, Microsoft JhengHei, sans-serif" font-weight="700" text-anchor="middle" dominant-baseline="middle" paint-order="stroke" stroke="#ffffff" stroke-width="2.4" stroke-linejoin="round">拉門阻隔</text>
<text x="949.4" y="540.6" fill="#64748b" font-size="8" font-family="Segoe UI, Microsoft JhengHei, sans-serif" font-weight="500" text-anchor="middle" dominant-baseline="middle" paint-order="stroke" stroke="#ffffff" stroke-width="2.4" stroke-linejoin="round">吊軌無地軌</text>
<rect x="58.0" y="591.1" width="520.0" height="160.7" fill="url(#p2-bath-hatch)" stroke="#374151" stroke-width="2.2"/>
<g opacity="0.42">
<rect x="349.2" y="679.5" width="34.0" height="24.0" fill="#ffffff" stroke="#64748b" stroke-width="1.0"/>
<ellipse cx="366.2" cy="671.5" rx="17.0" ry="7" fill="#ffffff" stroke="#64748b" stroke-width="0.9"/>
</g>
<text x="318.0" y="671.5" fill="#111827" font-size="12" font-family="Segoe UI, Microsoft JhengHei, sans-serif" font-weight="700" text-anchor="middle" dominant-baseline="middle" paint-order="stroke" stroke="#ffffff" stroke-width="2.4" stroke-linejoin="round">孝親衛浴</text>
<rect x="578.0" y="591.1" width="520.0" height="160.7" fill="#ffffff" stroke="#374151" stroke-width="2.2"/>
<g opacity="0.42">
</g>
<text x="838.0" y="671.5" fill="#111827" font-size="12" font-family="Segoe UI, Microsoft JhengHei, sans-serif" font-weight="700" text-anchor="middle" dominant-baseline="middle" paint-order="stroke" stroke="#ffffff" stroke-width="2.4" stroke-linejoin="round">孝親房 / 長輩房</text>
<line x1="58.0" y1="90.0" x2="1098.0" y2="90.0" stroke="#111827" stroke-width="4.2"/>
<line x1="1098.0" y1="90.0" x2="1098.0" y2="203.5" stroke="#111827" stroke-width="4.2"/>
<line x1="58.0" y1="90.0" x2="58.0" y2="203.5" stroke="#111827" stroke-width="4.2"/>
<line x1="58.0" y1="203.5" x2="58.0" y2="364.2" stroke="#111827" stroke-width="4.2"/>
<line x1="1098.0" y1="203.5" x2="1098.0" y2="364.2" stroke="#111827" stroke-width="4.2"/>
<line x1="58.0" y1="364.2" x2="58.0" y2="468.2" stroke="#111827" stroke-width="4.2"/>
<line x1="1098.0" y1="364.2" x2="1098.0" y2="468.2" stroke="#111827" stroke-width="4.2"/>
<line x1="58.0" y1="468.2" x2="58.0" y2="591.1" stroke="#111827" stroke-width="4.2"/>
<line x1="1098.0" y1="468.2" x2="1098.0" y2="591.1" stroke="#111827" stroke-width="4.2"/>
<line x1="58.0" y1="751.8" x2="578.0" y2="751.8" stroke="#111827" stroke-width="4.2"/>
<line x1="58.0" y1="591.1" x2="58.0" y2="751.8" stroke="#111827" stroke-width="4.2"/>
<line x1="1098.0" y1="591.1" x2="1098.0" y2="751.8" stroke="#111827" stroke-width="4.2"/>
<line x1="578.0" y1="751.8" x2="1098.0" y2="751.8" stroke="#111827" stroke-width="4.2"/>
<line x1="58.0" y1="378.7" x2="58.0" y2="453.6" stroke="#ffffff" stroke-width="6.6"/>
<line x1="60.8" y1="379.9" x2="60.8" y2="452.4" stroke="#2563eb" stroke-width="2.2"/>
<line x1="1098.0" y1="398.2" x2="1098.0" y2="434.2" stroke="#ffffff" stroke-width="6.6"/>
<line x1="1095.2" y1="399.4" x2="1095.2" y2="433.0" stroke="#2563eb" stroke-width="2.2"/>
<line x1="58.0" y1="499.6" x2="58.0" y2="559.6" stroke="#ffffff" stroke-width="6.6"/>
<line x1="60.8" y1="500.8" x2="60.8" y2="558.4" stroke="#2563eb" stroke-width="2.2"/>
<line x1="1098.0" y1="499.6" x2="1098.0" y2="559.6" stroke="#ffffff" stroke-width="6.6"/>
<line x1="1095.2" y1="500.8" x2="1095.2" y2="558.4" stroke="#2563eb" stroke-width="2.2"/>
<line x1="58.0" y1="653.5" x2="58.0" y2="689.5" stroke="#ffffff" stroke-width="6.6"/>
<line x1="60.8" y1="654.7" x2="60.8" y2="688.3" stroke="#2563eb" stroke-width="2.2"/>
<line x1="1098.0" y1="641.5" x2="1098.0" y2="701.5" stroke="#ffffff" stroke-width="6.6"/>
<line x1="1095.2" y1="642.7" x2="1095.2" y2="700.3" stroke="#2563eb" stroke-width="2.2"/>
<line x1="158.0" y1="364.2" x2="218.0" y2="364.2" stroke="#ffffff" stroke-width="4.8"/>
<line x1="158.0" y1="364.2" x2="158.0" y2="424.2" stroke="#475569" stroke-width="1.2"/>
<path d="M 218.0 364.2 A 60.0 60.0 0 0 0 158.0 424.2" fill="none" stroke="#475569" stroke-width="0.9"/>
<line x1="414.5" y1="389.2" x2="414.5" y2="443.2" stroke="#ffffff" stroke-width="4.8"/>
<line x1="414.5" y1="389.2" x2="360.5" y2="389.2" stroke="#475569" stroke-width="1.2"/>
<path d="M 414.5 443.2 A 54.0 54.0 0 0 0 360.5 389.2" fill="none" stroke="#475569" stroke-width="0.9"/>
<line x1="209.3" y1="468.2" x2="263.3" y2="468.2" stroke="#ffffff" stroke-width="4.8"/>
<line x1="209.3" y1="468.2" x2="209.3" y2="414.2" stroke="#475569" stroke-width="1.2"/>
<path d="M 263.3 468.2 A 54.0 54.0 0 0 1 209.3 414.2" fill="none" stroke="#475569" stroke-width="0.9"/>
<line x1="161.0" y1="203.5" x2="215.0" y2="203.5" stroke="#ffffff" stroke-width="4.8"/>
<line x1="161.0" y1="203.5" x2="161.0" y2="257.5" stroke="#475569" stroke-width="1.2"/>
<path d="M 215.0 203.5 A 54.0 54.0 0 0 0 161.0 257.5" fill="none" stroke="#475569" stroke-width="0.9"/>
<line x1="339.3" y1="364.2" x2="393.3" y2="364.2" stroke="#ffffff" stroke-width="4.8"/>
<line x1="339.3" y1="364.2" x2="339.3" y2="418.2" stroke="#475569" stroke-width="1.2"/>
<path d="M 393.3 364.2 A 54.0 54.0 0 0 0 339.3 418.2" fill="none" stroke="#475569" stroke-width="0.9"/>
<line x1="800.8" y1="392.2" x2="800.8" y2="440.2" stroke="#ffffff" stroke-width="4.8"/>
<line x1="800.8" y1="392.2" x2="848.8" y2="392.2" stroke="#475569" stroke-width="1.2"/>
<path d="M 800.8 440.2 A 48.0 48.0 0 0 1 848.8 392.2" fill="none" stroke="#475569" stroke-width="0.9"/>
<line x1="941.0" y1="364.2" x2="995.0" y2="364.2" stroke="#ffffff" stroke-width="4.8"/>
<line x1="941.0" y1="364.2" x2="941.0" y2="418.2" stroke="#475569" stroke-width="1.2"/>
<path d="M 995.0 364.2 A 54.0 54.0 0 0 0 941.0 418.2" fill="none" stroke="#475569" stroke-width="0.9"/>
<line x1="922.4" y1="468.2" x2="976.4" y2="468.2" stroke="#ffffff" stroke-width="4.8"/>
<line x1="922.4" y1="468.2" x2="922.4" y2="414.2" stroke="#475569" stroke-width="1.2"/>
<path d="M 976.4 468.2 A 54.0 54.0 0 0 1 922.4 414.2" fill="none" stroke="#475569" stroke-width="0.9"/>
<line x1="291.0" y1="591.1" x2="345.0" y2="591.1" stroke="#ffffff" stroke-width="4.8"/>
<line x1="291.0" y1="591.1" x2="291.0" y2="645.1" stroke="#475569" stroke-width="1.2"/>
<path d="M 345.0 591.1 A 54.0 54.0 0 0 0 291.0 645.1" fill="none" stroke="#475569" stroke-width="0.9"/>
<line x1="662.4" y1="591.1" x2="716.4" y2="591.1" stroke="#ffffff" stroke-width="4.8"/>
<line x1="662.4" y1="591.1" x2="662.4" y2="645.1" stroke="#475569" stroke-width="1.2"/>
<path d="M 716.4 591.1 A 54.0 54.0 0 0 0 662.4 645.1" fill="none" stroke="#475569" stroke-width="0.9"/>
<line x1="58.0" y1="279.5" x2="58.0" y2="339.5" stroke="#ffffff" stroke-width="5.4"/>
<polygon points="14.0,349.5 34.0,349.5 24.0,331.5" fill="#475569"/>
<line x1="58.0" y1="773.8" x2="1098.0" y2="773.8" stroke="#9ca3af" stroke-width="0.9"/>
<line x1="58.0" y1="769.8" x2="58.0" y2="777.8" stroke="#9ca3af" stroke-width="0.9"/>
<line x1="1098.0" y1="769.8" x2="1098.0" y2="777.8" stroke="#9ca3af" stroke-width="0.9"/>
<line x1="61.0" y1="770.8" x2="58.0" y2="773.8" stroke="#9ca3af" stroke-width="0.9"/>
<line x1="61.0" y1="776.8" x2="58.0" y2="773.8" stroke="#9ca3af" stroke-width="0.9"/>
<line x1="1095.0" y1="770.8" x2="1098.0" y2="773.8" stroke="#9ca3af" stroke-width="0.9"/>
<line x1="1095.0" y1="776.8" x2="1098.0" y2="773.8" stroke="#9ca3af" stroke-width="0.9"/>
<text x="544.0" y="767.8" fill="#9ca3af" font-size="8" font-family="Segoe UI, Microsoft JhengHei, sans-serif" font-weight="500">DIM:W 11000mm</text>
<line x1="30.0" y1="90.0" x2="30.0" y2="751.8" stroke="#9ca3af" stroke-width="0.9"/>
<line x1="26.0" y1="90.0" x2="34.0" y2="90.0" stroke="#9ca3af" stroke-width="0.9"/>
<line x1="26.0" y1="751.8" x2="34.0" y2="751.8" stroke="#9ca3af" stroke-width="0.9"/>
<line x1="27.0" y1="93.0" x2="30.0" y2="90.0" stroke="#9ca3af" stroke-width="0.9"/>
<line x1="33.0" y1="93.0" x2="30.0" y2="90.0" stroke="#9ca3af" stroke-width="0.9"/>
<line x1="27.0" y1="748.8" x2="30.0" y2="751.8" stroke="#9ca3af" stroke-width="0.9"/>
<line x1="33.0" y1="748.8" x2="30.0" y2="751.8" stroke="#9ca3af" stroke-width="0.9"/>
<text x="37.0" y="420.9" fill="#9ca3af" font-size="8" font-family="Segoe UI, Microsoft JhengHei, sans-serif" font-weight="500">DIM:D 7000mm</text>
<circle cx="1122.0" cy="40.0" r="14.0" fill="#ffffff" stroke="#111827" stroke-width="1.1"/>
<polygon points="1122.0,30.0 1117.0,43.0 1127.0,43.0" fill="#111827"/>
<text x="1112.0" y="64.0" fill="#111827" font-size="10" font-family="Segoe UI, Microsoft JhengHei, sans-serif" font-weight="700">N↑</text>
<text x="58.0" y="809.8" fill="#111827" font-size="9" font-family="Segoe UI, Microsoft JhengHei, sans-serif" font-weight="700">LEGEND:</text>
<rect x="116.0" y="799.8" width="18" height="10" fill="#fffaf3" stroke="#cbd5e1" stroke-width="0.8"/>
<text x="139.0" y="809.8" fill="#64748b" font-size="9" font-family="Segoe UI, Microsoft JhengHei, sans-serif" font-weight="500">公共</text>
<rect x="178.0" y="799.8" width="18" height="10" fill="#f7f8ff" stroke="#cbd5e1" stroke-width="0.8"/>
<text x="201.0" y="809.8" fill="#64748b" font-size="9" font-family="Segoe UI, Microsoft JhengHei, sans-serif" font-weight="500">臥室</text>
<rect x="240.0" y="799.8" width="18" height="10" fill="url(#p2-bath-hatch)" stroke="#cbd5e1" stroke-width="0.8"/>
<text x="263.0" y="809.8" fill="#64748b" font-size="9" font-family="Segoe UI, Microsoft JhengHei, sans-serif" font-weight="500">濕區</text>
<rect x="302.0" y="799.8" width="18" height="10" fill="url(#p2-service-hatch)" stroke="#cbd5e1" stroke-width="0.8"/>
<text x="325.0" y="809.8" fill="#64748b" font-size="9" font-family="Segoe UI, Microsoft JhengHei, sans-serif" font-weight="500">設備</text>
<rect x="364.0" y="799.8" width="18" height="10" fill="url(#p2-outdoor-hatch)" stroke="#cbd5e1" stroke-width="0.8"/>
<text x="387.0" y="809.8" fill="#64748b" font-size="9" font-family="Segoe UI, Microsoft JhengHei, sans-serif" font-weight="500">戶外</text>
<line x1="434.0" y1="804.8" x2="462.0" y2="804.8" stroke="#111827" stroke-width="4.2"/>
<text x="470.0" y="809.8" fill="#64748b" font-size="9" font-family="Segoe UI, Microsoft JhengHei, sans-serif" font-weight="500">外牆</text>
<line x1="508.0" y1="804.8" x2="536.0" y2="804.8" stroke="#374151" stroke-width="2.2"/>
<text x="544.0" y="809.8" fill="#64748b" font-size="9" font-family="Segoe UI, Microsoft JhengHei, sans-serif" font-weight="500">內牆</text>
<line x1="582.0" y1="804.8" x2="608.0" y2="804.8" stroke="#2563eb" stroke-width="2.0"/>
<text x="616.0" y="809.8" fill="#64748b" font-size="9" font-family="Segoe UI, Microsoft JhengHei, sans-serif" font-weight="500">窗</text>
<line x1="646.0" y1="804.8" x2="672.0" y2="804.8" stroke="#475569" stroke-width="1.2"/>
<text x="680.0" y="809.8" fill="#64748b" font-size="9" font-family="Segoe UI, Microsoft JhengHei, sans-serif" font-weight="500">門</text>
<text x="58.0" y="875.0" fill="#64748b" font-size="9" font-family="Segoe UI, Microsoft JhengHei, sans-serif" font-weight="400">Generated: 2026-07-08T01:18:04.050582+00:00 | layout-top1-svg-v2 | style=presentation</text>
</svg>