<svg xmlns="http://www.w3.org/2000/svg" width="1162" height="689" viewBox="0 0 1162 689" role="img" aria-label="C floor-3">
<metadata>{&quot;schema_version&quot;: &quot;layout-top1-svg-v2&quot;, &quot;drawing_style&quot;: &quot;presentation&quot;, &quot;presentation_version&quot;: 2, &quot;building_id&quot;: &quot;C&quot;, &quot;floor_id&quot;: &quot;floor-3&quot;, &quot;candidate_id&quot;: &quot;baseline&quot;}</metadata>
<rect x="0" y="0" width="1162" height="689" fill="#f3f4f6"/>
<rect x="40.0" y="62.0" width="1076.0" height="537.3" fill="#ffffff" stroke="#d1d5db" stroke-width="1.1"/>
<rect x="50.0" y="72.0" width="1056.0" height="485.3" fill="none" stroke="#e2e8f0" stroke-width="0.8"/>
<text x="58.0" y="32.0" fill="#111827" font-size="19" font-family="Segoe UI, Microsoft JhengHei, sans-serif" font-weight="700">[C] floor-3 3F</text>
<text x="58.0" y="55.0" fill="#64748b" font-size="12" font-family="Segoe UI, Microsoft JhengHei, sans-serif" font-weight="500">3F 主臥×運動</text>
<rect x="824.0" y="18.0" width="274.0" height="48" fill="#ffffff" stroke="#d1d5db" stroke-width="0.8"/>
<text x="834.0" y="35.0" fill="#111827" font-size="10" font-family="Segoe UI, Microsoft JhengHei, sans-serif" font-weight="700">住宅平面討論圖</text>
<text x="834.0" y="51.0" fill="#64748b" font-size="8" font-family="Segoe UI, Microsoft JhengHei, sans-serif" font-weight="500">Selection: baseline | presentation v2</text>
<text x="1014.0" y="51.0" fill="#64748b" font-size="8" font-family="Segoe UI, Microsoft JhengHei, sans-serif" font-weight="500">Scale: diagram</text>
<rect x="58.0" y="90.0" width="472.7" height="94.5" fill="#f7f8ff" stroke="#374151" stroke-width="2.2"/>
<g opacity="0.42">
<rect x="249.4" y="115.0" width="90.0" height="60.5" fill="#ffffff" stroke="#64748b" stroke-width="1.1"/>
<rect x="256.6" y="120.0" width="19.8" height="12.1" fill="#ffffff" stroke="#64748b" stroke-width="0.9"/>
<rect x="312.4" y="120.0" width="19.8" height="12.1" fill="#ffffff" stroke="#64748b" stroke-width="0.9"/>
</g>
<text x="294.4" y="130.3" fill="#111827" font-size="12" font-family="Segoe UI, Microsoft JhengHei, sans-serif" font-weight="700" text-anchor="middle" dominant-baseline="middle" paint-order="stroke" stroke="#ffffff" stroke-width="2.4" stroke-linejoin="round">3F 主臥通風小陽台</text>
<text x="294.4" y="148.3" fill="#64748b" font-size="8" font-family="Segoe UI, Microsoft JhengHei, sans-serif" font-weight="500" text-anchor="middle" dominant-baseline="middle" paint-order="stroke" stroke="#ffffff" stroke-width="2.4" stroke-linejoin="round">約 5.0 m²</text>
<rect x="58.0" y="203.5" width="1040.0" height="122.9" fill="#f7f8ff" stroke="#374151" stroke-width="2.2"/>
<g opacity="0.42">
<rect x="533.0" y="233.6" width="90.0" height="78.7" fill="#ffffff" stroke="#64748b" stroke-width="1.1"/>
<rect x="540.2" y="238.6" width="19.8" height="15.7" fill="#ffffff" stroke="#64748b" stroke-width="0.9"/>
<rect x="596.0" y="238.6" width="19.8" height="15.7" fill="#ffffff" stroke="#64748b" stroke-width="0.9"/>
</g>
<text x="578.0" y="257.9" fill="#111827" font-size="12" font-family="Segoe UI, Microsoft JhengHei, sans-serif" font-weight="700" text-anchor="middle" dominant-baseline="middle" paint-order="stroke" stroke="#ffffff" stroke-width="2.4" stroke-linejoin="round">主臥室（飯店級配置）</text>
<text x="578.0" y="275.9" fill="#64748b" font-size="8" font-family="Segoe UI, Microsoft JhengHei, sans-serif" font-weight="500" text-anchor="middle" dominant-baseline="middle" paint-order="stroke" stroke="#ffffff" stroke-width="2.4" stroke-linejoin="round">約 11.5 坪</text>
<rect x="58.0" y="326.4" width="693.3" height="122.9" fill="#ffffff" stroke="#374151" stroke-width="2.2"/>
<g opacity="0.42">
</g>
<text x="404.7" y="380.8" fill="#111827" font-size="12" font-family="Segoe UI, Microsoft JhengHei, sans-serif" font-weight="700" text-anchor="middle" dominant-baseline="middle" paint-order="stroke" stroke="#ffffff" stroke-width="2.4" stroke-linejoin="round">運動空間</text>
<text x="404.7" y="398.8" fill="#64748b" font-size="8" font-family="Segoe UI, Microsoft JhengHei, sans-serif" font-weight="500" text-anchor="middle" dominant-baseline="middle" paint-order="stroke" stroke="#ffffff" stroke-width="2.4" stroke-linejoin="round">約 4.5 坪</text>
<rect x="751.3" y="326.4" width="346.7" height="122.9" fill="#f8fafc" stroke="#374151" stroke-width="2.2"/>
<g opacity="0.42">
<line x1="761.3" y1="342.4" x2="1088.0" y2="342.4" stroke="#64748b" stroke-width="0.9"/>
<line x1="761.3" y1="355.4" x2="1088.0" y2="355.4" stroke="#64748b" stroke-width="0.9"/>
<line x1="761.3" y1="368.3" x2="1088.0" y2="368.3" stroke="#64748b" stroke-width="0.9"/>
<line x1="761.3" y1="381.3" x2="1088.0" y2="381.3" stroke="#64748b" stroke-width="0.9"/>
<line x1="761.3" y1="394.3" x2="1088.0" y2="394.3" stroke="#64748b" stroke-width="0.9"/>
<line x1="761.3" y1="407.3" x2="1088.0" y2="407.3" stroke="#64748b" stroke-width="0.9"/>
<line x1="761.3" y1="420.3" x2="1088.0" y2="420.3" stroke="#64748b" stroke-width="0.9"/>
</g>
<text x="924.7" y="387.8" fill="#111827" font-size="12" font-family="Segoe UI, Microsoft JhengHei, sans-serif" font-weight="700" text-anchor="middle" dominant-baseline="middle" paint-order="stroke" stroke="#ffffff" stroke-width="2.4" stroke-linejoin="round">3F 樓梯間（⬇️2F ⬆️RF）</text>
<rect x="58.0" y="449.3" width="1040.0" height="104.0" fill="#f3fdff" stroke="#374151" stroke-width="2.2"/>
<path data-hatch-kind="bath" d="M 58.0 544.3 L 67.0 553.3 M 58.0 535.3 L 76.0 553.3 M 58.0 526.3 L 85.0 553.3 M 58.0 517.3 L 94.0 553.3 M 58.0 508.3 L 103.0 553.3 M 58.0 499.3 L 112.0 553.3 M 58.0 490.3 L 121.0 553.3 M 58.0 481.3 L 130.0 553.3 M 58.0 472.3 L 139.0 553.3 M 58.0 463.3 L 148.0 553.3 M 58.0 454.3 L 157.0 553.3 M 62.0 449.3 L 166.0 553.3 M 71.0 449.3 L 175.0 553.3 M 80.0 449.3 L 184.0 553.3 M 89.0 449.3 L 193.0 553.3 M 98.0 449.3 L 202.0 553.3 M 107.0 449.3 L 211.0 553.3 M 116.0 449.3 L 220.0 553.3 M 125.0 449.3 L 229.0 553.3 M 134.0 449.3 L 238.0 553.3 M 143.0 449.3 L 247.0 553.3 M 152.0 449.3 L 256.0 553.3 M 161.0 449.3 L 265.0 553.3 M 170.0 449.3 L 274.0 553.3 M 179.0 449.3 L 283.0 553.3 M 188.0 449.3 L 292.0 553.3 M 197.0 449.3 L 301.0 553.3 M 206.0 449.3 L 310.0 553.3 M 215.0 449.3 L 319.0 553.3 M 224.0 449.3 L 328.0 553.3 M 233.0 449.3 L 337.0 553.3 M 242.0 449.3 L 346.0 553.3 M 251.0 449.3 L 355.0 553.3 M 260.0 449.3 L 364.0 553.3 M 269.0 449.3 L 373.0 553.3 M 278.0 449.3 L 382.0 553.3 M 287.0 449.3 L 391.0 553.3 M 296.0 449.3 L 400.0 553.3 M 305.0 449.3 L 409.0 553.3 M 314.0 449.3 L 418.0 553.3 M 323.0 449.3 L 427.0 553.3 M 332.0 449.3 L 436.0 553.3 M 341.0 449.3 L 445.0 553.3 M 350.0 449.3 L 454.0 553.3 M 359.0 449.3 L 463.0 553.3 M 368.0 449.3 L 472.0 553.3 M 377.0 449.3 L 481.0 553.3 M 386.0 449.3 L 490.0 553.3 M 395.0 449.3 L 499.0 553.3 M 404.0 449.3 L 508.0 553.3 M 413.0 449.3 L 517.0 553.3 M 422.0 449.3 L 526.0 553.3 M 431.0 449.3 L 535.0 553.3 M 440.0 449.3 L 544.0 553.3 M 449.0 449.3 L 553.0 553.3 M 458.0 449.3 L 562.0 553.3 M 467.0 449.3 L 571.0 553.3 M 476.0 449.3 L 580.0 553.3 M 485.0 449.3 L 589.0 553.3 M 494.0 449.3 L 598.0 553.3 M 503.0 449.3 L 607.0 553.3 M 512.0 449.3 L 616.0 553.3 M 521.0 449.3 L 625.0 553.3 M 530.0 449.3 L 634.0 553.3 M 539.0 449.3 L 643.0 553.3 M 548.0 449.3 L 652.0 553.3 M 557.0 449.3 L 661.0 553.3 M 566.0 449.3 L 670.0 553.3 M 575.0 449.3 L 679.0 553.3 M 584.0 449.3 L 688.0 553.3 M 593.0 449.3 L 697.0 553.3 M 602.0 449.3 L 706.0 553.3 M 611.0 449.3 L 715.0 553.3 M 620.0 449.3 L 724.0 553.3 M 629.0 449.3 L 733.0 553.3 M 638.0 449.3 L 742.0 553.3 M 647.0 449.3 L 751.0 553.3 M 656.0 449.3 L 760.0 553.3 M 665.0 449.3 L 769.0 553.3 M 674.0 449.3 L 778.0 553.3 M 683.0 449.3 L 787.0 553.3 M 692.0 449.3 L 796.0 553.3 M 701.0 449.3 L 805.0 553.3 M 710.0 449.3 L 814.0 553.3 M 719.0 449.3 L 823.0 553.3 M 728.0 449.3 L 832.0 553.3 M 737.0 449.3 L 841.0 553.3 M 746.0 449.3 L 850.0 553.3 M 755.0 449.3 L 859.0 553.3 M 764.0 449.3 L 868.0 553.3 M 773.0 449.3 L 877.0 553.3 M 782.0 449.3 L 886.0 553.3 M 791.0 449.3 L 895.0 553.3 M 800.0 449.3 L 904.0 553.3 M 809.0 449.3 L 913.0 553.3 M 818.0 449.3 L 922.0 553.3 M 827.0 449.3 L 931.0 553.3 M 836.0 449.3 L 940.0 553.3 M 845.0 449.3 L 949.0 553.3 M 854.0 449.3 L 958.0 553.3 M 863.0 449.3 L 967.0 553.3 M 872.0 449.3 L 976.0 553.3 M 881.0 449.3 L 985.0 553.3 M 890.0 449.3 L 994.0 553.3 M 899.0 449.3 L 1003.0 553.3 M 908.0 449.3 L 1012.0 553.3 M 917.0 449.3 L 1021.0 553.3 M 926.0 449.3 L 1030.0 553.3 M 935.0 449.3 L 1039.0 553.3 M 944.0 449.3 L 1048.0 553.3 M 953.0 449.3 L 1057.0 553.3 M 962.0 449.3 L 1066.0 553.3 M 971.0 449.3 L 1075.0 553.3 M 980.0 449.3 L 1084.0 553.3 M 989.0 449.3 L 1093.0 553.3 M 998.0 449.3 L 1098.0 549.3 M 1007.0 449.3 L 1098.0 540.3 M 1016.0 449.3 L 1098.0 531.3 M 1025.0 449.3 L 1098.0 522.3 M 1034.0 449.3 L 1098.0 513.3 M 1043.0 449.3 L 1098.0 504.3 M 1052.0 449.3 L 1098.0 495.3 M 1061.0 449.3 L 1098.0 486.3 M 1070.0 449.3 L 1098.0 477.3 M 1079.0 449.3 L 1098.0 468.3 M 1088.0 449.3 L 1098.0 459.3 M 1097.0 449.3 L 1098.0 450.3" fill="none" stroke="#94a3b8" stroke-width="0.55" opacity="0.28" pointer-events="none"/>
<g opacity="0.42">
<rect x="640.4" y="506.5" width="34.0" height="20.8" fill="#ffffff" stroke="#64748b" stroke-width="1.0"/>
<ellipse cx="657.4" cy="498.5" rx="17.0" ry="7" fill="#ffffff" stroke="#64748b" stroke-width="0.9"/>
</g>
<text x="578.0" y="494.3" fill="#111827" font-size="12" font-family="Segoe UI, Microsoft JhengHei, sans-serif" font-weight="700" text-anchor="middle" dominant-baseline="middle" paint-order="stroke" stroke="#ffffff" stroke-width="2.4" stroke-linejoin="round">廁所（乾濕分離）</text>
<text x="578.0" y="512.3" fill="#64748b" font-size="8" font-family="Segoe UI, Microsoft JhengHei, sans-serif" font-weight="500" text-anchor="middle" dominant-baseline="middle" paint-order="stroke" stroke="#ffffff" stroke-width="2.4" stroke-linejoin="round">約 2.8 坪</text>
<line x1="58.0" y1="90.0" x2="530.7" y2="90.0" stroke="#111827" stroke-width="4.2"/>
<line x1="530.7" y1="90.0" x2="530.7" y2="184.5" stroke="#111827" stroke-width="4.2"/>
<line x1="58.0" y1="184.5" x2="530.7" y2="184.5" stroke="#111827" stroke-width="4.2"/>
<line x1="58.0" y1="90.0" x2="58.0" y2="184.5" stroke="#111827" stroke-width="4.2"/>
<line x1="58.0" y1="203.5" x2="1098.0" y2="203.5" stroke="#111827" stroke-width="4.2"/>
<line x1="1098.0" y1="203.5" x2="1098.0" y2="326.4" stroke="#111827" stroke-width="4.2"/>
<line x1="58.0" y1="203.5" x2="58.0" y2="326.4" stroke="#111827" stroke-width="4.2"/>
<line x1="58.0" y1="326.4" x2="58.0" y2="449.3" stroke="#111827" stroke-width="4.2"/>
<line x1="1098.0" y1="326.4" x2="1098.0" y2="449.3" stroke="#111827" stroke-width="4.2"/>
<line x1="1098.0" y1="449.3" x2="1098.0" y2="553.3" stroke="#111827" stroke-width="4.2"/>
<line x1="58.0" y1="553.3" x2="1098.0" y2="553.3" stroke="#111827" stroke-width="4.2"/>
<line x1="58.0" y1="449.3" x2="58.0" y2="553.3" stroke="#111827" stroke-width="4.2"/>
<g data-marker="window">
<line x1="530.7" y1="103.2" x2="530.7" y2="171.3" stroke="#ffffff" stroke-width="6.6"/>
<line x1="527.9" y1="104.4" x2="527.9" y2="170.1" stroke="#2563eb" stroke-width="2.2"/>
</g>
<g data-marker="window">
<line x1="1098.0" y1="220.7" x2="1098.0" y2="309.2" stroke="#ffffff" stroke-width="6.6"/>
<line x1="1095.2" y1="221.9" x2="1095.2" y2="308.0" stroke="#2563eb" stroke-width="2.2"/>
</g>
<g data-marker="window">
<line x1="58.0" y1="357.8" x2="58.0" y2="417.8" stroke="#ffffff" stroke-width="6.6"/>
<line x1="60.8" y1="359.0" x2="60.8" y2="416.6" stroke="#2563eb" stroke-width="2.2"/>
</g>
<g data-marker="window">
<line x1="1098.0" y1="369.8" x2="1098.0" y2="405.8" stroke="#ffffff" stroke-width="6.6"/>
<line x1="1095.2" y1="371.0" x2="1095.2" y2="404.6" stroke="#2563eb" stroke-width="2.2"/>
</g>
<g data-marker="window">
<line x1="1098.0" y1="483.3" x2="1098.0" y2="519.3" stroke="#ffffff" stroke-width="6.6"/>
<line x1="1095.2" y1="484.5" x2="1095.2" y2="518.1" stroke="#2563eb" stroke-width="2.2"/>
</g>
<g data-marker="door">
<line x1="897.7" y1="326.4" x2="951.7" y2="326.4" stroke="#ffffff" stroke-width="4.8"/>
<line x1="897.7" y1="326.4" x2="897.7" y2="380.4" stroke="#475569" stroke-width="1.2"/>
<path d="M 951.7 326.4 A 54.0 54.0 0 0 0 897.7 380.4" fill="none" stroke="#475569" stroke-width="0.9"/>
</g>
<g data-marker="door">
<line x1="897.7" y1="449.3" x2="951.7" y2="449.3" stroke="#ffffff" stroke-width="4.8"/>
<line x1="897.7" y1="449.3" x2="897.7" y2="395.3" stroke="#475569" stroke-width="1.2"/>
<path d="M 951.7 449.3 A 54.0 54.0 0 0 1 897.7 395.3" fill="none" stroke="#475569" stroke-width="0.9"/>
</g>
<g data-marker="door">
<line x1="751.3" y1="360.8" x2="751.3" y2="414.8" stroke="#ffffff" stroke-width="4.8"/>
<line x1="751.3" y1="360.8" x2="805.3" y2="360.8" stroke="#475569" stroke-width="1.2"/>
<path d="M 751.3 414.8 A 54.0 54.0 0 0 1 805.3 360.8" fill="none" stroke="#475569" stroke-width="0.9"/>
</g>
<g data-marker="entrance">
<line x1="58.0" y1="123.1" x2="58.0" y2="181.7" stroke="#ffffff" stroke-width="5.4"/>
<polygon points="14.0,192.4 34.0,192.4 24.0,174.4" fill="#475569"/>
</g>
<line x1="58.0" y1="575.3" x2="1098.0" y2="575.3" stroke="#9ca3af" stroke-width="0.9"/>
<line x1="58.0" y1="571.3" x2="58.0" y2="579.3" stroke="#9ca3af" stroke-width="0.9"/>
<line x1="1098.0" y1="571.3" x2="1098.0" y2="579.3" stroke="#9ca3af" stroke-width="0.9"/>
<line x1="61.0" y1="572.3" x2="58.0" y2="575.3" stroke="#9ca3af" stroke-width="0.9"/>
<line x1="61.0" y1="578.3" x2="58.0" y2="575.3" stroke="#9ca3af" stroke-width="0.9"/>
<line x1="1095.0" y1="572.3" x2="1098.0" y2="575.3" stroke="#9ca3af" stroke-width="0.9"/>
<line x1="1095.0" y1="578.3" x2="1098.0" y2="575.3" stroke="#9ca3af" stroke-width="0.9"/>
<text x="544.0" y="569.3" fill="#9ca3af" font-size="8" font-family="Segoe UI, Microsoft JhengHei, sans-serif" font-weight="500">DIM:W 11000mm</text>
<line x1="30.0" y1="90.0" x2="30.0" y2="553.3" stroke="#9ca3af" stroke-width="0.9"/>
<line x1="26.0" y1="90.0" x2="34.0" y2="90.0" stroke="#9ca3af" stroke-width="0.9"/>
<line x1="26.0" y1="553.3" x2="34.0" y2="553.3" stroke="#9ca3af" stroke-width="0.9"/>
<line x1="27.0" y1="93.0" x2="30.0" y2="90.0" stroke="#9ca3af" stroke-width="0.9"/>
<line x1="33.0" y1="93.0" x2="30.0" y2="90.0" stroke="#9ca3af" stroke-width="0.9"/>
<line x1="27.0" y1="550.3" x2="30.0" y2="553.3" stroke="#9ca3af" stroke-width="0.9"/>
<line x1="33.0" y1="550.3" x2="30.0" y2="553.3" stroke="#9ca3af" stroke-width="0.9"/>
<text x="37.0" y="321.6" fill="#9ca3af" font-size="8" font-family="Segoe UI, Microsoft JhengHei, sans-serif" font-weight="500">DIM:D 4900mm</text>
<circle cx="1122.0" cy="40.0" r="14.0" fill="#ffffff" stroke="#111827" stroke-width="1.1"/>
<polygon points="1122.0,30.0 1117.0,43.0 1127.0,43.0" fill="#111827"/>
<text x="1112.0" y="64.0" fill="#111827" font-size="10" font-family="Segoe UI, Microsoft JhengHei, sans-serif" font-weight="700">N↑</text>
<text x="58.0" y="611.3" fill="#111827" font-size="9" font-family="Segoe UI, Microsoft JhengHei, sans-serif" font-weight="700">LEGEND:</text>
<rect x="116.0" y="601.3" width="18" height="10" fill="#fffaf3" stroke="#cbd5e1" stroke-width="0.8"/>
<text x="139.0" y="611.3" fill="#64748b" font-size="9" font-family="Segoe UI, Microsoft JhengHei, sans-serif" font-weight="500">公共</text>
<rect x="178.0" y="601.3" width="18" height="10" fill="#f7f8ff" stroke="#cbd5e1" stroke-width="0.8"/>
<text x="201.0" y="611.3" fill="#64748b" font-size="9" font-family="Segoe UI, Microsoft JhengHei, sans-serif" font-weight="500">臥室</text>
<rect x="240.0" y="601.3" width="18" height="10" fill="#f3fdff" stroke="#cbd5e1" stroke-width="0.8"/>
<path data-hatch-kind="bath" d="M 240.0 602.3 L 249.0 611.3 M 248.0 601.3 L 258.0 611.3 M 257.0 601.3 L 258.0 602.3" fill="none" stroke="#94a3b8" stroke-width="0.55" opacity="0.28" pointer-events="none"/>
<text x="263.0" y="611.3" fill="#64748b" font-size="9" font-family="Segoe UI, Microsoft JhengHei, sans-serif" font-weight="500">濕區</text>
<rect x="302.0" y="601.3" width="18" height="10" fill="#f7f9fc" stroke="#cbd5e1" stroke-width="0.8"/>
<path data-hatch-kind="service" d="M 302.0 601.3 L 312.0 611.3 M 312.0 601.3 L 320.0 609.3" fill="none" stroke="#94a3b8" stroke-width="0.50" opacity="0.20" pointer-events="none"/>
<text x="325.0" y="611.3" fill="#64748b" font-size="9" font-family="Segoe UI, Microsoft JhengHei, sans-serif" font-weight="500">設備</text>
<rect x="364.0" y="601.3" width="18" height="10" fill="#f2fbf5" stroke="#cbd5e1" stroke-width="0.8"/>
<path data-hatch-kind="outdoor" d="M 370.0 601.3 V 611.3 M 364.0 607.3 H 382.0" fill="none" stroke="#94a3b8" stroke-width="0.45" opacity="0.18" pointer-events="none"/>
<text x="387.0" y="611.3" fill="#64748b" font-size="9" font-family="Segoe UI, Microsoft JhengHei, sans-serif" font-weight="500">戶外</text>
<line x1="434.0" y1="606.3" x2="462.0" y2="606.3" stroke="#111827" stroke-width="4.2"/>
<text x="470.0" y="611.3" fill="#64748b" font-size="9" font-family="Segoe UI, Microsoft JhengHei, sans-serif" font-weight="500">外牆</text>
<line x1="508.0" y1="606.3" x2="536.0" y2="606.3" stroke="#374151" stroke-width="2.2"/>
<text x="544.0" y="611.3" fill="#64748b" font-size="9" font-family="Segoe UI, Microsoft JhengHei, sans-serif" font-weight="500">內牆</text>
<line x1="582.0" y1="606.3" x2="608.0" y2="606.3" stroke="#2563eb" stroke-width="2.0"/>
<text x="616.0" y="611.3" fill="#64748b" font-size="9" font-family="Segoe UI, Microsoft JhengHei, sans-serif" font-weight="500">窗</text>
<line x1="646.0" y1="606.3" x2="672.0" y2="606.3" stroke="#475569" stroke-width="1.2"/>
<text x="680.0" y="611.3" fill="#64748b" font-size="9" font-family="Segoe UI, Microsoft JhengHei, sans-serif" font-weight="500">門</text>
<text x="58.0" y="677.0" fill="#64748b" font-size="9" font-family="Segoe UI, Microsoft JhengHei, sans-serif" font-weight="400">Generated: 2026-07-23T07:14:04.786773+00:00 | layout-top1-svg-v2 | style=presentation</text>
</svg>