<svg xmlns="http://www.w3.org/2000/svg" width="1162" height="812" viewBox="0 0 1162 812" role="img" aria-label="C floor-2">
<metadata>{&quot;schema_version&quot;: &quot;layout-top1-svg-v2&quot;, &quot;drawing_style&quot;: &quot;presentation&quot;, &quot;presentation_version&quot;: 2, &quot;building_id&quot;: &quot;C&quot;, &quot;floor_id&quot;: &quot;floor-2&quot;, &quot;candidate_id&quot;: &quot;baseline&quot;, &quot;validation_markers&quot;: [&quot;ENT&quot;, &quot;DW:&quot;, &quot;WIN:&quot;, &quot;DIM:&quot;, &quot;LEGEND:&quot;, &quot;ELEV:&quot;]}</metadata>
<rect x="0" y="0" width="1162" height="812" fill="#f3f4f6"/>
<rect x="40.0" y="62.0" width="1076.0" height="660.2" fill="#ffffff" stroke="#d1d5db" stroke-width="1.1"/>
<rect x="50.0" y="72.0" width="1056.0" height="608.2" fill="none" stroke="#e2e8f0" stroke-width="0.8"/>
<text x="58.0" y="32.0" fill="#111827" font-size="19" font-family="Segoe UI, Microsoft JhengHei, sans-serif" font-weight="700">[C] floor-2 2F</text>
<text x="58.0" y="55.0" fill="#64748b" font-size="12" font-family="Segoe UI, Microsoft JhengHei, sans-serif" font-weight="500">2F 公共×客房</text>
<rect x="824.0" y="18.0" width="274.0" height="48" fill="#ffffff" stroke="#d1d5db" stroke-width="0.8"/>
<text x="834.0" y="35.0" fill="#111827" font-size="10" font-family="Segoe UI, Microsoft JhengHei, sans-serif" font-weight="700">住宅平面討論圖</text>
<text x="834.0" y="51.0" fill="#64748b" font-size="8" font-family="Segoe UI, Microsoft JhengHei, sans-serif" font-weight="500">Selection: baseline | presentation v2</text>
<text x="1014.0" y="51.0" fill="#64748b" font-size="8" font-family="Segoe UI, Microsoft JhengHei, sans-serif" font-weight="500">Scale: diagram</text>
<rect x="58.0" y="90.0" width="1040.0" height="113.5" fill="#f2fbf5" stroke="#374151" stroke-width="2.2"/>
<path data-hatch-kind="outdoor" d="M 64.0 90.0 V 203.5 M 76.0 90.0 V 203.5 M 88.0 90.0 V 203.5 M 100.0 90.0 V 203.5 M 112.0 90.0 V 203.5 M 124.0 90.0 V 203.5 M 136.0 90.0 V 203.5 M 148.0 90.0 V 203.5 M 160.0 90.0 V 203.5 M 172.0 90.0 V 203.5 M 184.0 90.0 V 203.5 M 196.0 90.0 V 203.5 M 208.0 90.0 V 203.5 M 220.0 90.0 V 203.5 M 232.0 90.0 V 203.5 M 244.0 90.0 V 203.5 M 256.0 90.0 V 203.5 M 268.0 90.0 V 203.5 M 280.0 90.0 V 203.5 M 292.0 90.0 V 203.5 M 304.0 90.0 V 203.5 M 316.0 90.0 V 203.5 M 328.0 90.0 V 203.5 M 340.0 90.0 V 203.5 M 352.0 90.0 V 203.5 M 364.0 90.0 V 203.5 M 376.0 90.0 V 203.5 M 388.0 90.0 V 203.5 M 400.0 90.0 V 203.5 M 412.0 90.0 V 203.5 M 424.0 90.0 V 203.5 M 436.0 90.0 V 203.5 M 448.0 90.0 V 203.5 M 460.0 90.0 V 203.5 M 472.0 90.0 V 203.5 M 484.0 90.0 V 203.5 M 496.0 90.0 V 203.5 M 508.0 90.0 V 203.5 M 520.0 90.0 V 203.5 M 532.0 90.0 V 203.5 M 544.0 90.0 V 203.5 M 556.0 90.0 V 203.5 M 568.0 90.0 V 203.5 M 580.0 90.0 V 203.5 M 592.0 90.0 V 203.5 M 604.0 90.0 V 203.5 M 616.0 90.0 V 203.5 M 628.0 90.0 V 203.5 M 640.0 90.0 V 203.5 M 652.0 90.0 V 203.5 M 664.0 90.0 V 203.5 M 676.0 90.0 V 203.5 M 688.0 90.0 V 203.5 M 700.0 90.0 V 203.5 M 712.0 90.0 V 203.5 M 724.0 90.0 V 203.5 M 736.0 90.0 V 203.5 M 748.0 90.0 V 203.5 M 760.0 90.0 V 203.5 M 772.0 90.0 V 203.5 M 784.0 90.0 V 203.5 M 796.0 90.0 V 203.5 M 808.0 90.0 V 203.5 M 820.0 90.0 V 203.5 M 832.0 90.0 V 203.5 M 844.0 90.0 V 203.5 M 856.0 90.0 V 203.5 M 868.0 90.0 V 203.5 M 880.0 90.0 V 203.5 M 892.0 90.0 V 203.5 M 904.0 90.0 V 203.5 M 916.0 90.0 V 203.5 M 928.0 90.0 V 203.5 M 940.0 90.0 V 203.5 M 952.0 90.0 V 203.5 M 964.0 90.0 V 203.5 M 976.0 90.0 V 203.5 M 988.0 90.0 V 203.5 M 1000.0 90.0 V 203.5 M 1012.0 90.0 V 203.5 M 1024.0 90.0 V 203.5 M 1036.0 90.0 V 203.5 M 1048.0 90.0 V 203.5 M 1060.0 90.0 V 203.5 M 1072.0 90.0 V 203.5 M 1084.0 90.0 V 203.5 M 1096.0 90.0 V 203.5 M 58.0 96.0 H 1098.0 M 58.0 108.0 H 1098.0 M 58.0 120.0 H 1098.0 M 58.0 132.0 H 1098.0 M 58.0 144.0 H 1098.0 M 58.0 156.0 H 1098.0 M 58.0 168.0 H 1098.0 M 58.0 180.0 H 1098.0 M 58.0 192.0 H 1098.0" fill="none" stroke="#94a3b8" stroke-width="0.45" opacity="0.18" pointer-events="none"/>
<g opacity="0.42">
<rect x="65.0" y="97.0" width="1026.0" height="99.5" fill="none" stroke="#8a8a8a" stroke-dasharray="5 4" stroke-width="0.9"/>
</g>
<text x="578.0" y="139.7" fill="#111827" font-size="12" font-family="Segoe UI, Microsoft JhengHei, sans-serif" font-weight="700" text-anchor="middle" dominant-baseline="middle" paint-order="stroke" stroke="#ffffff" stroke-width="2.4" stroke-linejoin="round">前陽台（洗衣曬衣區）</text>
<text x="578.0" y="157.7" fill="#64748b" font-size="8" font-family="Segoe UI, Microsoft JhengHei, sans-serif" font-weight="500" text-anchor="middle" dominant-baseline="middle" paint-order="stroke" stroke="#ffffff" stroke-width="2.4" stroke-linejoin="round">約 1.8 坪</text>
<rect x="58.0" y="203.5" width="1040.0" height="122.9" fill="#fffaf3" stroke="#374151" stroke-width="2.2"/>
<g opacity="0.42">
<rect x="515.0" y="271.1" width="126.0" height="43.0" fill="#ffffff" stroke="#64748b" stroke-width="1.1"/>
<rect x="484.4" y="248.9" width="187.2" height="14.7" fill="#ffffff" stroke="#64748b" stroke-width="1.0"/>
</g>
<text x="578.0" y="257.9" fill="#111827" font-size="12" font-family="Segoe UI, Microsoft JhengHei, sans-serif" font-weight="700" text-anchor="middle" dominant-baseline="middle" paint-order="stroke" stroke="#ffffff" stroke-width="2.4" stroke-linejoin="round">客廳（2F 主角空間）</text>
<text x="578.0" y="275.9" fill="#64748b" font-size="8" font-family="Segoe UI, Microsoft JhengHei, sans-serif" font-weight="500" text-anchor="middle" dominant-baseline="middle" paint-order="stroke" stroke="#ffffff" stroke-width="2.4" stroke-linejoin="round">約 8.5 坪</text>
<rect x="58.0" y="326.4" width="693.3" height="122.9" fill="#f7f8ff" stroke="#374151" stroke-width="2.2"/>
<g opacity="0.42">
<rect x="359.7" y="356.5" width="90.0" height="78.7" fill="#ffffff" stroke="#64748b" stroke-width="1.1"/>
<rect x="366.9" y="361.5" width="19.8" height="15.7" fill="#ffffff" stroke="#64748b" stroke-width="0.9"/>
<rect x="422.7" y="361.5" width="19.8" height="15.7" fill="#ffffff" stroke="#64748b" stroke-width="0.9"/>
</g>
<text x="404.7" y="380.8" fill="#111827" font-size="12" font-family="Segoe UI, Microsoft JhengHei, sans-serif" font-weight="700" text-anchor="middle" dominant-baseline="middle" paint-order="stroke" stroke="#ffffff" stroke-width="2.4" stroke-linejoin="round">客房 / 多功能房</text>
<text x="404.7" y="398.8" fill="#64748b" font-size="8" font-family="Segoe UI, Microsoft JhengHei, sans-serif" font-weight="500" text-anchor="middle" dominant-baseline="middle" paint-order="stroke" stroke="#ffffff" stroke-width="2.4" stroke-linejoin="round">約 3.5 坪</text>
<rect x="751.3" y="326.4" width="346.7" height="122.9" fill="#f8fafc" stroke="#374151" stroke-width="2.2"/>
<g opacity="0.42">
<line x1="761.3" y1="342.4" x2="1088.0" y2="342.4" stroke="#64748b" stroke-width="0.9"/>
<line x1="761.3" y1="355.4" x2="1088.0" y2="355.4" stroke="#64748b" stroke-width="0.9"/>
<line x1="761.3" y1="368.3" x2="1088.0" y2="368.3" stroke="#64748b" stroke-width="0.9"/>
<line x1="761.3" y1="381.3" x2="1088.0" y2="381.3" stroke="#64748b" stroke-width="0.9"/>
<line x1="761.3" y1="394.3" x2="1088.0" y2="394.3" stroke="#64748b" stroke-width="0.9"/>
<line x1="761.3" y1="407.3" x2="1088.0" y2="407.3" stroke="#64748b" stroke-width="0.9"/>
<line x1="761.3" y1="420.3" x2="1088.0" y2="420.3" stroke="#64748b" stroke-width="0.9"/>
</g>
<text x="924.7" y="387.8" fill="#111827" font-size="12" font-family="Segoe UI, Microsoft JhengHei, sans-serif" font-weight="700" text-anchor="middle" dominant-baseline="middle" paint-order="stroke" stroke="#ffffff" stroke-width="2.4" stroke-linejoin="round">2F 樓梯間（⬇️1F ⬆️3F）</text>
<rect x="58.0" y="449.3" width="1040.0" height="122.9" fill="#f5fff8" stroke="#374151" stroke-width="2.2"/>
<g opacity="0.42">
<rect x="68.0" y="548.2" width="1020.0" height="14.0" fill="#f6f6f6" stroke="#64748b" stroke-width="1.0"/>
<circle cx="82.0" cy="555.2" r="4" fill="none" stroke="#64748b" stroke-width="0.9"/>
<circle cx="92.0" cy="555.2" r="4" fill="none" stroke="#64748b" stroke-width="0.9"/>
</g>
<text x="578.0" y="503.7" fill="#111827" font-size="12" font-family="Segoe UI, Microsoft JhengHei, sans-serif" font-weight="700" text-anchor="middle" dominant-baseline="middle" paint-order="stroke" stroke="#ffffff" stroke-width="2.4" stroke-linejoin="round">小型廚房</text>
<text x="578.0" y="521.7" fill="#64748b" font-size="8" font-family="Segoe UI, Microsoft JhengHei, sans-serif" font-weight="500" text-anchor="middle" dominant-baseline="middle" paint-order="stroke" stroke="#ffffff" stroke-width="2.4" stroke-linejoin="round">約 4.5 坪</text>
<rect x="58.0" y="572.2" width="1040.0" height="104.0" fill="#f3fdff" stroke="#374151" stroke-width="2.2"/>
<path data-hatch-kind="bath" d="M 58.0 667.2 L 67.0 676.2 M 58.0 658.2 L 76.0 676.2 M 58.0 649.2 L 85.0 676.2 M 58.0 640.2 L 94.0 676.2 M 58.0 631.2 L 103.0 676.2 M 58.0 622.2 L 112.0 676.2 M 58.0 613.2 L 121.0 676.2 M 58.0 604.2 L 130.0 676.2 M 58.0 595.2 L 139.0 676.2 M 58.0 586.2 L 148.0 676.2 M 58.0 577.2 L 157.0 676.2 M 62.0 572.2 L 166.0 676.2 M 71.0 572.2 L 175.0 676.2 M 80.0 572.2 L 184.0 676.2 M 89.0 572.2 L 193.0 676.2 M 98.0 572.2 L 202.0 676.2 M 107.0 572.2 L 211.0 676.2 M 116.0 572.2 L 220.0 676.2 M 125.0 572.2 L 229.0 676.2 M 134.0 572.2 L 238.0 676.2 M 143.0 572.2 L 247.0 676.2 M 152.0 572.2 L 256.0 676.2 M 161.0 572.2 L 265.0 676.2 M 170.0 572.2 L 274.0 676.2 M 179.0 572.2 L 283.0 676.2 M 188.0 572.2 L 292.0 676.2 M 197.0 572.2 L 301.0 676.2 M 206.0 572.2 L 310.0 676.2 M 215.0 572.2 L 319.0 676.2 M 224.0 572.2 L 328.0 676.2 M 233.0 572.2 L 337.0 676.2 M 242.0 572.2 L 346.0 676.2 M 251.0 572.2 L 355.0 676.2 M 260.0 572.2 L 364.0 676.2 M 269.0 572.2 L 373.0 676.2 M 278.0 572.2 L 382.0 676.2 M 287.0 572.2 L 391.0 676.2 M 296.0 572.2 L 400.0 676.2 M 305.0 572.2 L 409.0 676.2 M 314.0 572.2 L 418.0 676.2 M 323.0 572.2 L 427.0 676.2 M 332.0 572.2 L 436.0 676.2 M 341.0 572.2 L 445.0 676.2 M 350.0 572.2 L 454.0 676.2 M 359.0 572.2 L 463.0 676.2 M 368.0 572.2 L 472.0 676.2 M 377.0 572.2 L 481.0 676.2 M 386.0 572.2 L 490.0 676.2 M 395.0 572.2 L 499.0 676.2 M 404.0 572.2 L 508.0 676.2 M 413.0 572.2 L 517.0 676.2 M 422.0 572.2 L 526.0 676.2 M 431.0 572.2 L 535.0 676.2 M 440.0 572.2 L 544.0 676.2 M 449.0 572.2 L 553.0 676.2 M 458.0 572.2 L 562.0 676.2 M 467.0 572.2 L 571.0 676.2 M 476.0 572.2 L 580.0 676.2 M 485.0 572.2 L 589.0 676.2 M 494.0 572.2 L 598.0 676.2 M 503.0 572.2 L 607.0 676.2 M 512.0 572.2 L 616.0 676.2 M 521.0 572.2 L 625.0 676.2 M 530.0 572.2 L 634.0 676.2 M 539.0 572.2 L 643.0 676.2 M 548.0 572.2 L 652.0 676.2 M 557.0 572.2 L 661.0 676.2 M 566.0 572.2 L 670.0 676.2 M 575.0 572.2 L 679.0 676.2 M 584.0 572.2 L 688.0 676.2 M 593.0 572.2 L 697.0 676.2 M 602.0 572.2 L 706.0 676.2 M 611.0 572.2 L 715.0 676.2 M 620.0 572.2 L 724.0 676.2 M 629.0 572.2 L 733.0 676.2 M 638.0 572.2 L 742.0 676.2 M 647.0 572.2 L 751.0 676.2 M 656.0 572.2 L 760.0 676.2 M 665.0 572.2 L 769.0 676.2 M 674.0 572.2 L 778.0 676.2 M 683.0 572.2 L 787.0 676.2 M 692.0 572.2 L 796.0 676.2 M 701.0 572.2 L 805.0 676.2 M 710.0 572.2 L 814.0 676.2 M 719.0 572.2 L 823.0 676.2 M 728.0 572.2 L 832.0 676.2 M 737.0 572.2 L 841.0 676.2 M 746.0 572.2 L 850.0 676.2 M 755.0 572.2 L 859.0 676.2 M 764.0 572.2 L 868.0 676.2 M 773.0 572.2 L 877.0 676.2 M 782.0 572.2 L 886.0 676.2 M 791.0 572.2 L 895.0 676.2 M 800.0 572.2 L 904.0 676.2 M 809.0 572.2 L 913.0 676.2 M 818.0 572.2 L 922.0 676.2 M 827.0 572.2 L 931.0 676.2 M 836.0 572.2 L 940.0 676.2 M 845.0 572.2 L 949.0 676.2 M 854.0 572.2 L 958.0 676.2 M 863.0 572.2 L 967.0 676.2 M 872.0 572.2 L 976.0 676.2 M 881.0 572.2 L 985.0 676.2 M 890.0 572.2 L 994.0 676.2 M 899.0 572.2 L 1003.0 676.2 M 908.0 572.2 L 1012.0 676.2 M 917.0 572.2 L 1021.0 676.2 M 926.0 572.2 L 1030.0 676.2 M 935.0 572.2 L 1039.0 676.2 M 944.0 572.2 L 1048.0 676.2 M 953.0 572.2 L 1057.0 676.2 M 962.0 572.2 L 1066.0 676.2 M 971.0 572.2 L 1075.0 676.2 M 980.0 572.2 L 1084.0 676.2 M 989.0 572.2 L 1093.0 676.2 M 998.0 572.2 L 1098.0 672.2 M 1007.0 572.2 L 1098.0 663.2 M 1016.0 572.2 L 1098.0 654.2 M 1025.0 572.2 L 1098.0 645.2 M 1034.0 572.2 L 1098.0 636.2 M 1043.0 572.2 L 1098.0 627.2 M 1052.0 572.2 L 1098.0 618.2 M 1061.0 572.2 L 1098.0 609.2 M 1070.0 572.2 L 1098.0 600.2 M 1079.0 572.2 L 1098.0 591.2 M 1088.0 572.2 L 1098.0 582.2 M 1097.0 572.2 L 1098.0 573.2" fill="none" stroke="#94a3b8" stroke-width="0.55" opacity="0.28" pointer-events="none"/>
<g opacity="0.42">
<rect x="640.4" y="629.4" width="34.0" height="20.8" fill="#ffffff" stroke="#64748b" stroke-width="1.0"/>
<ellipse cx="657.4" cy="621.4" rx="17.0" ry="7" fill="#ffffff" stroke="#64748b" stroke-width="0.9"/>
</g>
<text x="578.0" y="617.2" fill="#111827" font-size="12" font-family="Segoe UI, Microsoft JhengHei, sans-serif" font-weight="700" text-anchor="middle" dominant-baseline="middle" paint-order="stroke" stroke="#ffffff" stroke-width="2.4" stroke-linejoin="round">廁所（乾濕分離）</text>
<text x="578.0" y="635.2" fill="#64748b" font-size="8" font-family="Segoe UI, Microsoft JhengHei, sans-serif" font-weight="500" text-anchor="middle" dominant-baseline="middle" paint-order="stroke" stroke="#ffffff" stroke-width="2.4" stroke-linejoin="round">約 2.8 坪</text>
<line x1="58.0" y1="90.0" x2="1098.0" y2="90.0" stroke="#111827" stroke-width="4.2"/>
<line x1="1098.0" y1="90.0" x2="1098.0" y2="203.5" stroke="#111827" stroke-width="4.2"/>
<line x1="58.0" y1="90.0" x2="58.0" y2="203.5" stroke="#111827" stroke-width="4.2"/>
<line x1="1098.0" y1="203.5" x2="1098.0" y2="326.4" stroke="#111827" stroke-width="4.2"/>
<line x1="58.0" y1="203.5" x2="58.0" y2="326.4" stroke="#111827" stroke-width="4.2"/>
<line x1="58.0" y1="326.4" x2="58.0" y2="449.3" stroke="#111827" stroke-width="4.2"/>
<line x1="1098.0" y1="326.4" x2="1098.0" y2="449.3" stroke="#111827" stroke-width="4.2"/>
<line x1="1098.0" y1="449.3" x2="1098.0" y2="572.2" stroke="#111827" stroke-width="4.2"/>
<line x1="58.0" y1="449.3" x2="58.0" y2="572.2" stroke="#111827" stroke-width="4.2"/>
<line x1="1098.0" y1="572.2" x2="1098.0" y2="676.2" stroke="#111827" stroke-width="4.2"/>
<line x1="58.0" y1="676.2" x2="1098.0" y2="676.2" stroke="#111827" stroke-width="4.2"/>
<line x1="58.0" y1="572.2" x2="58.0" y2="676.2" stroke="#111827" stroke-width="4.2"/>
<line x1="58.0" y1="220.7" x2="58.0" y2="309.2" stroke="#ffffff" stroke-width="6.6"/>
<line x1="60.8" y1="221.9" x2="60.8" y2="308.0" stroke="#2563eb" stroke-width="2.2"/>
<line x1="58.0" y1="351.8" x2="58.0" y2="423.8" stroke="#ffffff" stroke-width="6.6"/>
<line x1="60.8" y1="353.0" x2="60.8" y2="422.6" stroke="#2563eb" stroke-width="2.2"/>
<line x1="1098.0" y1="369.8" x2="1098.0" y2="405.8" stroke="#ffffff" stroke-width="6.6"/>
<line x1="1095.2" y1="371.0" x2="1095.2" y2="404.6" stroke="#2563eb" stroke-width="2.2"/>
<line x1="1098.0" y1="483.7" x2="1098.0" y2="537.7" stroke="#ffffff" stroke-width="6.6"/>
<line x1="1095.2" y1="484.9" x2="1095.2" y2="536.5" stroke="#2563eb" stroke-width="2.2"/>
<line x1="1098.0" y1="606.2" x2="1098.0" y2="642.2" stroke="#ffffff" stroke-width="6.6"/>
<line x1="1095.2" y1="607.4" x2="1095.2" y2="641.0" stroke="#2563eb" stroke-width="2.2"/>
<line x1="897.7" y1="326.4" x2="951.7" y2="326.4" stroke="#ffffff" stroke-width="4.8"/>
<line x1="897.7" y1="326.4" x2="897.7" y2="380.4" stroke="#475569" stroke-width="1.2"/>
<path d="M 951.7 326.4 A 54.0 54.0 0 0 0 897.7 380.4" fill="none" stroke="#475569" stroke-width="0.9"/>
<line x1="551.0" y1="203.5" x2="605.0" y2="203.5" stroke="#ffffff" stroke-width="4.8"/>
<line x1="551.0" y1="203.5" x2="551.0" y2="149.5" stroke="#475569" stroke-width="1.2"/>
<path d="M 605.0 203.5 A 54.0 54.0 0 0 1 551.0 149.5" fill="none" stroke="#475569" stroke-width="0.9"/>
<line x1="377.7" y1="326.4" x2="431.7" y2="326.4" stroke="#ffffff" stroke-width="4.8"/>
<line x1="377.7" y1="326.4" x2="377.7" y2="380.4" stroke="#475569" stroke-width="1.2"/>
<path d="M 431.7 326.4 A 54.0 54.0 0 0 0 377.7 380.4" fill="none" stroke="#475569" stroke-width="0.9"/>
<line x1="897.7" y1="449.3" x2="951.7" y2="449.3" stroke="#ffffff" stroke-width="4.8"/>
<line x1="897.7" y1="449.3" x2="897.7" y2="395.3" stroke="#475569" stroke-width="1.2"/>
<path d="M 951.7 449.3 A 54.0 54.0 0 0 1 897.7 395.3" fill="none" stroke="#475569" stroke-width="0.9"/>
<line x1="551.0" y1="572.2" x2="605.0" y2="572.2" stroke="#ffffff" stroke-width="4.8"/>
<line x1="551.0" y1="572.2" x2="551.0" y2="626.2" stroke="#475569" stroke-width="1.2"/>
<path d="M 605.0 572.2 A 54.0 54.0 0 0 0 551.0 626.2" fill="none" stroke="#475569" stroke-width="0.9"/>
<line x1="1098.0" y1="254.6" x2="1098.0" y2="314.6" stroke="#ffffff" stroke-width="5.4"/>
<polygon points="1122.0,324.6 1142.0,324.6 1132.0,306.6" fill="#475569"/>
<line x1="58.0" y1="698.2" x2="1098.0" y2="698.2" stroke="#9ca3af" stroke-width="0.9"/>
<line x1="58.0" y1="694.2" x2="58.0" y2="702.2" stroke="#9ca3af" stroke-width="0.9"/>
<line x1="1098.0" y1="694.2" x2="1098.0" y2="702.2" stroke="#9ca3af" stroke-width="0.9"/>
<line x1="61.0" y1="695.2" x2="58.0" y2="698.2" stroke="#9ca3af" stroke-width="0.9"/>
<line x1="61.0" y1="701.2" x2="58.0" y2="698.2" stroke="#9ca3af" stroke-width="0.9"/>
<line x1="1095.0" y1="695.2" x2="1098.0" y2="698.2" stroke="#9ca3af" stroke-width="0.9"/>
<line x1="1095.0" y1="701.2" x2="1098.0" y2="698.2" stroke="#9ca3af" stroke-width="0.9"/>
<text x="544.0" y="692.2" fill="#9ca3af" font-size="8" font-family="Segoe UI, Microsoft JhengHei, sans-serif" font-weight="500">DIM:W 11000mm</text>
<line x1="30.0" y1="90.0" x2="30.0" y2="676.2" stroke="#9ca3af" stroke-width="0.9"/>
<line x1="26.0" y1="90.0" x2="34.0" y2="90.0" stroke="#9ca3af" stroke-width="0.9"/>
<line x1="26.0" y1="676.2" x2="34.0" y2="676.2" stroke="#9ca3af" stroke-width="0.9"/>
<line x1="27.0" y1="93.0" x2="30.0" y2="90.0" stroke="#9ca3af" stroke-width="0.9"/>
<line x1="33.0" y1="93.0" x2="30.0" y2="90.0" stroke="#9ca3af" stroke-width="0.9"/>
<line x1="27.0" y1="673.2" x2="30.0" y2="676.2" stroke="#9ca3af" stroke-width="0.9"/>
<line x1="33.0" y1="673.2" x2="30.0" y2="676.2" stroke="#9ca3af" stroke-width="0.9"/>
<text x="37.0" y="383.1" fill="#9ca3af" font-size="8" font-family="Segoe UI, Microsoft JhengHei, sans-serif" font-weight="500">DIM:D 6200mm</text>
<circle cx="1122.0" cy="40.0" r="14.0" fill="#ffffff" stroke="#111827" stroke-width="1.1"/>
<polygon points="1122.0,30.0 1117.0,43.0 1127.0,43.0" fill="#111827"/>
<text x="1112.0" y="64.0" fill="#111827" font-size="10" font-family="Segoe UI, Microsoft JhengHei, sans-serif" font-weight="700">N↑</text>
<text x="58.0" y="734.2" fill="#111827" font-size="9" font-family="Segoe UI, Microsoft JhengHei, sans-serif" font-weight="700">LEGEND:</text>
<rect x="116.0" y="724.2" width="18" height="10" fill="#fffaf3" stroke="#cbd5e1" stroke-width="0.8"/>
<text x="139.0" y="734.2" fill="#64748b" font-size="9" font-family="Segoe UI, Microsoft JhengHei, sans-serif" font-weight="500">公共</text>
<rect x="178.0" y="724.2" width="18" height="10" fill="#f7f8ff" stroke="#cbd5e1" stroke-width="0.8"/>
<text x="201.0" y="734.2" fill="#64748b" font-size="9" font-family="Segoe UI, Microsoft JhengHei, sans-serif" font-weight="500">臥室</text>
<rect x="240.0" y="724.2" width="18" height="10" fill="#f3fdff" stroke="#cbd5e1" stroke-width="0.8"/>
<path data-hatch-kind="bath" d="M 240.0 725.2 L 249.0 734.2 M 248.0 724.2 L 258.0 734.2 M 257.0 724.2 L 258.0 725.2" fill="none" stroke="#94a3b8" stroke-width="0.55" opacity="0.28" pointer-events="none"/>
<text x="263.0" y="734.2" fill="#64748b" font-size="9" font-family="Segoe UI, Microsoft JhengHei, sans-serif" font-weight="500">濕區</text>
<rect x="302.0" y="724.2" width="18" height="10" fill="#f7f9fc" stroke="#cbd5e1" stroke-width="0.8"/>
<path data-hatch-kind="service" d="M 302.0 724.2 L 312.0 734.2 M 312.0 724.2 L 320.0 732.2" fill="none" stroke="#94a3b8" stroke-width="0.50" opacity="0.20" pointer-events="none"/>
<text x="325.0" y="734.2" fill="#64748b" font-size="9" font-family="Segoe UI, Microsoft JhengHei, sans-serif" font-weight="500">設備</text>
<rect x="364.0" y="724.2" width="18" height="10" fill="#f2fbf5" stroke="#cbd5e1" stroke-width="0.8"/>
<path data-hatch-kind="outdoor" d="M 370.0 724.2 V 734.2 M 364.0 730.2 H 382.0" fill="none" stroke="#94a3b8" stroke-width="0.45" opacity="0.18" pointer-events="none"/>
<text x="387.0" y="734.2" fill="#64748b" font-size="9" font-family="Segoe UI, Microsoft JhengHei, sans-serif" font-weight="500">戶外</text>
<line x1="434.0" y1="729.2" x2="462.0" y2="729.2" stroke="#111827" stroke-width="4.2"/>
<text x="470.0" y="734.2" fill="#64748b" font-size="9" font-family="Segoe UI, Microsoft JhengHei, sans-serif" font-weight="500">外牆</text>
<line x1="508.0" y1="729.2" x2="536.0" y2="729.2" stroke="#374151" stroke-width="2.2"/>
<text x="544.0" y="734.2" fill="#64748b" font-size="9" font-family="Segoe UI, Microsoft JhengHei, sans-serif" font-weight="500">內牆</text>
<line x1="582.0" y1="729.2" x2="608.0" y2="729.2" stroke="#2563eb" stroke-width="2.0"/>
<text x="616.0" y="734.2" fill="#64748b" font-size="9" font-family="Segoe UI, Microsoft JhengHei, sans-serif" font-weight="500">窗</text>
<line x1="646.0" y1="729.2" x2="672.0" y2="729.2" stroke="#475569" stroke-width="1.2"/>
<text x="680.0" y="734.2" fill="#64748b" font-size="9" font-family="Segoe UI, Microsoft JhengHei, sans-serif" font-weight="500">門</text>
<text x="58.0" y="800.0" fill="#64748b" font-size="9" font-family="Segoe UI, Microsoft JhengHei, sans-serif" font-weight="400">Generated: 2026-07-10T02:28:50.373749+00:00 | layout-top1-svg-v2 | style=presentation</text>
</svg>